<?xml version="1.0" encoding="UTF-8" standalone="no"?>
<!-- Created with Inkscape (http://www.inkscape.org/) -->

<svg
   xmlns:dc="http://purl.org/dc/elements/1.1/"
   xmlns:cc="http://creativecommons.org/ns#"
   xmlns:rdf="http://www.w3.org/1999/02/22-rdf-syntax-ns#"
   xmlns:svg="http://www.w3.org/2000/svg"
   xmlns="http://www.w3.org/2000/svg"
   xmlns:xlink="http://www.w3.org/1999/xlink"
   xmlns:sodipodi="http://sodipodi.sourceforge.net/DTD/sodipodi-0.dtd"
   xmlns:inkscape="http://www.inkscape.org/namespaces/inkscape"
   width="980"
   height="1060"
   id="svg2"
   version="1.1"
   inkscape:version="0.48.4 r9939"
   sodipodi:docname="newlogo.v4.svg">
  <defs
     id="defs4">
    <pattern
       inkscape:collect="always"
       xlink:href="#Strips1_1"
       id="pattern7976"
       patternTransform="matrix(7.9360632,6.0843151,-6.0843151,7.9360632,457,516.36218)" />
    <pattern
       inkscape:stockid="Stripes 1:1"
       id="Strips1_1"
       patternTransform="translate(0,0) scale(10,10)"
       height="1"
       width="2"
       patternUnits="userSpaceOnUse"
       inkscape:collect="always">
      <rect
         id="rect7031"
         height="2"
         width="1"
         y="-0.5"
         x="0"
         style="fill:black;stroke:none" />
    </pattern>
    <pattern
       patternTransform="matrix(7.9360632,6.0843151,-6.0843151,7.9360632,-3.7568841,24.115833)"
       id="pattern7992"
       xlink:href="#pattern7976-0"
       inkscape:collect="always" />
    <pattern
       inkscape:collect="always"
       xlink:href="#Strips1_1-3"
       id="pattern7976-0"
       patternTransform="matrix(7.9360632,6.0843151,-6.0843151,7.9360632,457,516.36218)" />
    <pattern
       inkscape:stockid="Stripes 1:1"
       id="Strips1_1-3"
       patternTransform="translate(0,0) scale(10,10)"
       height="1"
       width="2"
       patternUnits="userSpaceOnUse"
       inkscape:collect="always">
      <rect
         id="rect7031-8"
         height="2"
         width="1"
         y="-0.5"
         x="0"
         style="fill:black;stroke:none" />
    </pattern>
  </defs>
  <sodipodi:namedview
     id="base"
     pagecolor="#808080"
     bordercolor="#666666"
     borderopacity="1.0"
     inkscape:pageopacity="1"
     inkscape:pageshadow="2"
     inkscape:zoom="0.5"
     inkscape:cx="667.62125"
     inkscape:cy="540.67154"
     inkscape:document-units="px"
     inkscape:current-layer="layer1"
     showgrid="true"
     inkscape:window-width="1280"
     inkscape:window-height="776"
     inkscape:window-x="0"
     inkscape:window-y="24"
     inkscape:window-maximized="1"
     showborder="true"
     showguides="true"
     inkscape:guide-bbox="true"
     inkscape:snap-bbox="true"
     fit-margin-top="20"
     fit-margin-left="20"
     fit-margin-right="20"
     fit-margin-bottom="20">
    <inkscape:grid
       type="xygrid"
       id="grid4747"
       empspacing="5"
       visible="true"
       enabled="true"
       snapvisiblegridlinesonly="true"
       originx="20px"
       originy="20.000003px" />
  </sodipodi:namedview>
  <metadata
     id="metadata7">
    <rdf:RDF>
      <cc:Work
         rdf:about="">
        <dc:format>image/svg+xml</dc:format>
        <dc:type
           rdf:resource="http://purl.org/dc/dcmitype/StillImage" />
        <dc:title />
      </cc:Work>
    </rdf:RDF>
  </metadata>
  <g
     inkscape:label="Layer 1"
     inkscape:groupmode="layer"
     id="layer1"
     transform="translate(20,-12.362183)">
    <flowRoot
       xml:space="preserve"
       id="flowRoot165304"
       style="font-size:24px;font-style:normal;font-variant:normal;font-weight:normal;font-stretch:normal;line-height:125%;letter-spacing:0px;word-spacing:0px;fill:#000000;fill-opacity:1;stroke:none;font-family:Liberation Sans;-inkscape-font-specification:Liberation Sans"
       transform="translate(120,-920)"><flowRegion
         id="flowRegion165306"><rect
           id="rect165308"
           width="14"
           height="180"
           x="20"
           y="278" /></flowRegion><flowPara
         id="flowPara165310" /></flowRoot>    <g
       id="g6059"
       transform="translate(120,-920)">
      <rect
         y="952.36218"
         x="-120"
         height="500"
         width="940"
         id="rect165261"
         style="color:#000000;fill:#647385;fill-opacity:1;fill-rule:nonzero;stroke:none;stroke-width:16;marker:none;visibility:visible;display:inline;overflow:visible;enable-background:accumulate" />
      <g
         style="fill:#d0d5d8;fill-opacity:1"
         transform="translate(18,560)"
         id="g165220">
        <path
           id="path4102"
           transform="translate(-18,-107.63782)"
           d="m 536.8125,609.28125 c -0.54975,-0.0167 -1.14699,0.0731 -1.78125,0.3125 -3.20644,1.11699 -7.94865,3.06313 -11.46875,4 -0.36369,-0.0458 -0.67815,-0.0554 -0.78125,0.1875 -0.398,0.0932 -0.80546,0.16135 -1.15625,0.21875 -3.18762,0.6255 -3.04613,0.64361 -0.0312,5.5625 -1.10299,5.44233 -0.54984,3.72737 1.625,2.6875 0.0926,0.15677 0.12288,0.21155 0.21875,0.375 0.002,0.003 0.68322,-0.0322 1.25,-0.0625 -3.61065,1.82402 -7.22988,3.62158 -10.875,5.375 -2.32542,1.0797 -4.66633,2.10752 -7.03125,3.09375 -0.36523,0.13377 -0.7288,0.2717 -1.09375,0.40625 0.003,0.0204 -0.003,0.0421 0,0.0625 -0.39524,0.16862 -0.78478,0.3504 -1.1875,0.5 -0.2235,0.083 -0.79757,0.007 -0.6875,0.21875 0.77995,1.49861 1.6409,2.93832 2.53125,4.375 0.21206,1.68768 0.44548,3.3751 0.8125,5.03125 -1.08148,0.63547 -2.16841,1.27189 -3.25,1.90625 -3.72993,3.02104 -8.93795,4.34781 -12.4375,7.6875 -0.76874,0.73362 -2.50041,1.51531 -2.03125,2.46875 1.58016,3.2112 4.72166,5.37367 7.125,8.03125 -1.85905,1.2006 -3.64477,2.48148 -5.3125,3.9375 -0.59956,1.93028 -2.59888,3.91924 -1.8125,5.78125 1.09374,2.58979 4.00391,4.1438 6.53125,5.375 2.06579,1.00636 13.88965,-2.76095 16.25,-3.40625 1.06561,-0.3117 2.12404,-0.65046 3.1875,-0.96875 -0.78602,0.34819 -1.45722,0.62842 -2.03125,0.875 -0.0256,0.011 -0.0686,0.0204 -0.0937,0.0312 -0.15275,0.0245 -0.2841,0.0429 -0.3125,0.125 -0.003,0.008 10e-4,0.022 0,0.0312 -3.8162,1.68582 -2.10959,1.85989 3.84375,12.1875 0.2874,0.49857 1.08066,-0.34452 1.625,-0.53125 1.02398,-0.35128 5.91376,-2.11839 6.5,-2.34375 1.12332,-0.43182 2.22857,-0.89121 3.34375,-1.34375 2.81546,-0.84582 5.63076,-1.6681 8.46875,-2.4375 -2.51679,1.69229 -9.34506,6.45312 -9,8 0.72657,3.25721 2.70514,6.10749 4.0625,9.15625 3.74025,0.55262 7.11317,-0.91338 10.59375,-1.84375 -2.31048,3.45247 -5.20229,6.5363 -7.96875,9.625 -3.46266,3.89383 -7.48904,7.34912 -9.96875,11.96875 1.81487,2.95272 2.80777,6.6543 5.46875,8.875 1.3568,1.13229 9.39517,-2.53656 13.90625,-4.6875 -0.38857,0.27625 -0.76679,0.56874 -1.15625,0.84375 -4.37431,1.81035 -8.55716,4.01923 -12.40625,6.90625 -4.91909,4.50932 -6.39904,4.1934 0.96875,14.09375 1.59236,2.13971 11.81085,-5.31647 13.0625,-6.15625 1.50569,-1.04084 3.00027,-2.10518 4.5,-3.15625 1.55685,-0.60497 3.15109,-1.12405 4.75,-1.625 -1.08528,1.23083 -2.23396,2.42372 -3.40625,3.53125 -4.31869,3.20652 -4.27625,2.08024 3.09375,9.84375 0.74815,1.94361 1.299,2.58386 2.1875,2.3125 0.034,0.0371 0.0595,0.0564 0.0937,0.0937 0.5378,0.58634 1.40951,-0.68327 2.125,-1.03125 3.48284,-1.69384 1.81856,-0.92907 5.34375,-2.46875 0.55898,-0.17986 1.13817,-0.37527 1.71875,-0.5625 -0.0276,0.25024 -0.0731,0.5994 -0.0937,0.78125 -0.32472,3.60654 1.82693,7.40338 6.09375,6.59375 0.76433,-0.14503 1.17358,-1.01115 1.84375,-1.40625 0.52978,-0.31233 1.15106,-0.48225 1.71875,-0.71875 0.30682,-0.0515 0.24434,-0.489 -0.0625,-0.4375 -0.76207,-0.0666 -3.46914,0.0646 -2.25,-1.46875 0.63617,-0.80013 2.8983,0.45918 3.25,0.75 0.262,0.21666 0.19067,0.76518 0.5,0.90625 0.20155,0.0919 0.30798,-0.31635 0.46875,-0.46875 1.28041,-3.14084 2.86544,-7.29656 1.90625,-10.71875 -0.4166,-1.4863 -1.35179,-2.77025 -2.03125,-4.15625 -0.8952,-0.68797 -1.69401,-1.52614 -2.6875,-2.0625 -1.28358,-0.69297 -2.63087,-1.05977 -4,-1.21875 0.0347,-0.12416 0.0611,-0.24965 0.0937,-0.375 -0.0317,-1.51522 0.28342,-3.09463 -0.0937,-4.5625 -0.54621,-2.12571 -1.57889,-3.67351 -2.90625,-4.8125 1.19841,-0.99936 2.39307,-2.02711 3.5625,-3.0625 1.42675,-1.5001 5.40686,-5.10752 5.6875,-7.5 1.12159,-9.56143 -4.52862,-11.56608 -12.03125,-9.84375 -3.82156,0.9919 -7.59677,2.16635 -11.3125,3.5 1.59625,-2.31272 2.96948,-4.75873 3.96875,-7.4375 0.23818,-1.21204 0.70525,-2.42111 0.71875,-3.65625 0.0372,-3.40398 -1.30586,-6.04665 -3.4375,-7.84375 3.01064,-1.95626 5.9464,-4.01016 8.75,-6.25 2.38129,-2.27502 6.40591,-5.63779 5.4375,-9.59375 -0.33673,-1.37554 -0.80976,-2.46965 -1.40625,-3.34375 8.75948,-4.08903 17.71575,-7.91946 25.96875,-12.96875 4.45271,-4.62987 6.13168,-4.32024 0.90625,-12.71875 -1.62929,-2.61866 -11.32723,-0.0809 -13.53125,0.375 -10.58353,2.70229 -20.99621,5.92436 -31.3125,9.5 1.61942,-0.71739 3.24588,-1.42955 4.875,-2.125 5.9155,-2.44944 12.10128,-4.33461 17.96875,-6.875 1.32108,-0.57197 3.71483,-0.47561 3.875,-1.90625 0.4623,-4.12948 -1.5469,-8.16587 -2.3125,-12.25 -5.83095,0.52589 -11.48221,2.37244 -17.125,3.90625 1.58695,-1.14493 3.64002,-2.71928 3.40625,-4.71875 -0.90939,-7.77815 -4.89866,-7.91014 -10.34375,-7.03125 -0.83568,0.1696 -1.67133,0.33699 -2.5,0.53125 -0.51201,-1.47716 -1.10981,-2.94292 -1.625,-4.40625 -0.057,-0.16186 -0.32873,0.0213 -0.5,0.0312 -1.24986,0.0505 -2.49881,0.078 -3.75,0.0625 0.33559,-2.10566 -1.16731,-4.39516 -3.59375,-4.46875 z m 14.875,19.375 c 0.28801,-0.002 0.55628,0.003 0.8125,0 -0.2939,0.047 -0.57778,0.0735 -0.8125,0 z m 37.875,21.5 c 0.0912,0.0203 -0.56068,0.17415 -1.1875,0.15625 0.75248,-0.12221 1.13312,-0.16836 1.1875,-0.15625 z m -43.40625,43.5 c 0.0306,-0.002 0.0631,0.002 0.0937,0 0.29664,0.0396 0.59226,0.0269 0.875,0.125 0.3281,0.11384 -0.488,0.0234 -0.96875,-0.125 z m 22.625,17.65625 c 0.17051,-0.004 0.0181,0.0254 -0.28125,0.0312 0.0898,-0.008 0.23557,-0.0302 0.28125,-0.0312 z m -9.59375,18.53125 c 0.86704,0.0181 0.67231,0.18163 0,0 z m 8.625,12.21875 c 0.23619,-0.0133 0.48182,-0.0116 0.71875,0 0.0134,6.6e-4 -0.007,0.029 0,0.0312 -0.091,0.0297 -0.35333,0.0328 -0.71875,-0.0312 z m -1.34375,0.21875 c -0.5249,0.48633 -0.77567,0.48186 -0.90625,0.21875 0.3005,-0.0849 0.60233,-0.15421 0.90625,-0.21875 z"
           style="color:#000000;fill:#c83737;fill-opacity:1;fill-rule:nonzero;stroke:none;stroke-width:2;marker:none;visibility:visible;display:inline;overflow:visible;enable-background:accumulate"
           inkscape:connector-curvature="0" />
        <path
           id="path165202"
           transform="translate(-18,-107.63782)"
           d="m 463.75,566.96875 c -0.85575,0.0139 -1.73449,0.12376 -2.59375,0.40625 -0.2492,0.0819 -0.47743,0.20448 -0.71875,0.3125 -0.19636,-0.0412 -0.39864,-0.10745 -0.59375,-0.125 -0.63468,-0.0571 -1.26426,0.0253 -1.84375,0.1875 -1.15899,0.32434 -2.27156,1.07148 -3,2.28125 -0.5977,0.99265 -0.69033,2.20898 -0.5625,3.28125 l -0.125,0 0.21875,1.8125 c -1.38396,3.54301 -2.13257,7.09755 -2.71875,10.4375 a 5.0005,5.0005 0 0 0 -0.0312,0.15625 c -0.86358,6.03477 -2.11939,11.98065 -3.71875,17.90625 -0.003,0.01 0.003,0.0214 0,0.0312 -2.82504,9.95188 -7.31228,19.51208 -12.1875,29.09375 -0.006,0.0125 -0.0249,0.0187 -0.0312,0.0312 -6.25787,12.02827 -13.83368,23.2512 -22.5625,33.65625 -0.0524,0.0625 -0.10375,0.12507 -0.15625,0.1875 -6.28026,6.73334 -12.98923,12.64904 -20.875,14.71875 -0.8359,0.21939 -2.15464,0.37457 -3.6875,0.625 -0.0104,9.7e-4 -0.021,-9.5e-4 -0.0312,0 -6.69977,0.61711 -13.39197,-2.93702 -21.75,-5.875 -0.0669,-0.0264 -0.12089,-0.0364 -0.1875,-0.0625 -3.95408,-1.54893 -7.37657,-2.52295 -9.84375,-4.0625 l -0.0625,0.0937 c -0.86991,-0.52987 -1.90136,-0.94401 -2.96875,-0.875 -0.0523,0.003 -0.10459,0.0264 -0.15625,0.0312 -1.00922,-1.15108 -2.18288,-2.11557 -3.5625,-2.5625 -1.14011,-0.36934 -2.29413,-0.46521 -3.40625,-0.375 -1.11212,0.0902 -2.18093,0.38139 -3.15625,0.84375 -1.95065,0.92473 -3.65971,2.54844 -4.53125,4.78125 -0.85327,2.18601 -0.69256,4.86984 0.34375,7.15625 l -0.0312,0 c 0.0218,0.0498 0.0412,0.1062 0.0625,0.15625 1.36709,3.20876 1.79623,6.88017 1.84375,11 6.3e-4,0.0549 -5e-4,0.10114 0,0.15625 -0.17412,6.35709 -1.55678,12.79125 -3.34375,19.34375 -0.003,0.01 0.003,0.0213 0,0.0312 -2.11662,7.61018 -5.42333,15.0317 -9,22.5 -0.004,0.009 0.004,0.0226 0,0.0312 C 324.66952,742.7799 319.82861,750.96589 314.625,759 a 5.0005,5.0005 0 0 0 -0.0312,0.0312 c -5.23647,8.20697 -11.89567,15.37047 -19.375,21.96875 -0.028,0.0247 -0.0657,0.0378 -0.0937,0.0625 -8.2119,6.86128 -17.80736,12.18441 -27.75,17.375 -0.0127,0.007 -0.0186,0.0246 -0.0312,0.0312 -11.15091,5.68481 -22.54535,10.98405 -34,16.28125 a 5.0005,5.0005 0 0 0 0,0.0312 c -11.15707,5.19385 -22.47514,10.03473 -33.9375,14.46875 a 5.0005,5.0005 0 0 0 -0.0625,0 c -9.20354,3.66927 -18.83276,6.20778 -28.71875,7.96875 -0.0201,0.004 -0.0424,-0.004 -0.0625,0 -8.55791,1.45194 -17.00996,1.71536 -25.21875,0.0937 -3.36512,-1.08524 -4.81235,-2.26145 -5.875,-3.875 -1.08722,-1.65086 -1.85939,-4.26285 -2.34375,-8.15625 -0.20557,-2.62596 -0.74879,-4.97127 -1.6875,-7 -0.19169,-2.28734 -1.13762,-4.41971 -2.84375,-5.875 -1.83613,-1.56616 -4.31463,-2.14146 -6.78125,-1.8125 -2.45892,0.32793 -4.86648,1.56487 -6.625,3.59375 l -0.0312,0 c -8.64309,9.84239 -19.648613,17.63545 -31.03125,25.3125 -0.01929,0.013 -0.04321,0.0182 -0.0625,0.0312 -18.205435,11.86574 -37.364845,22.38979 -56.6875,32.78125 a 5.0005,5.0005 0 0 0 -0.0625,0.0312 c -16.8514,9.48341 -35.276121,16.89468 -52.90625,26.6875 -0.01235,0.007 -0.0189,0.0245 -0.03125,0.0312 -4.021446,2.19576 -8.068063,4.4664 -12.0625,6.875 -6.243065,-0.39459 -12.666974,-0.74618 -19.28125,-0.28125 a 5.0005,5.0005 0 0 0 -0.40625,0.0625 c -2.487095,0.38393 -5.065115,2.25347 -6.03125,4.46875 -0.966135,2.21528 -0.769088,4.23117 -0.3125,5.9375 0.456588,1.70633 1.228142,3.21205 2.46875,4.5625 1.192993,1.29862 3.164924,2.74187 5.90625,2.5625 0.109411,-0.007 0.200586,0.0125 0.3125,0 6.47892,-0.28917 13.235314,0.31529 20.25,0.75 0.02112,10e-4 0.04137,-10e-4 0.0625,0 14.368253,1.04416 28.713686,1.52645 43,1.90625 a 5.0005,5.0005 0 0 0 0.03125,0 c 22.975893,0.46028 45.923335,0.88945 68.84375,1.625 30.52024,1.12344 61.05684,3.30375 91.6875,5.1875 0.0104,6.4e-4 0.0209,-6.4e-4 0.0312,0 40.17582,2.64018 80.36551,2.99545 120.46875,2.75 a 5.0005,5.0005 0 0 0 0.0625,0 c 49.26642,-0.80275 98.48651,-2.10724 147.6875,-2.90625 0.0104,-1.3e-4 0.0208,1.3e-4 0.0312,0 52.10356,-0.64535 104.28613,-0.56349 156.5,-1.5625 a 5.0005,5.0005 0 0 0 0.0312,0 c 31.10493,-0.87863 62.45018,-1.84402 93.65625,-5.8125 16.5133,-2.09999 22.16549,-3.36196 38.0625,-6.28125 a 5.0005,5.0005 0 0 0 0.1875,-0.0312 c 20.72282,-4.65459 10.99049,-2.22453 30.25,-7.40625 l -0.0312,-0.0625 c 1.14005,-0.30992 2.40753,-1.10179 3.09375,-2.25 0.72442,-1.21212 0.85293,-2.54373 0.59375,-3.71875 -0.25918,-1.17502 -0.92603,-2.33005 -2.09375,-3.125 -1.10287,-0.7508 -2.58703,-0.94552 -3.75,-0.75 l 0,-0.0625 c -19.52352,3.37257 -9.47703,1.83885 -30.0625,4.53125 -2.27114,0.22784 -4.54007,0.43917 -6.8125,0.65625 -0.41997,-0.72834 -0.93424,-1.42805 -1.53125,-2.03125 l 0.0312,-0.0312 c -0.0297,-0.0306 -0.0643,-0.063 -0.0937,-0.0937 -2.52074,-2.63245 -4.38012,-6.05082 -6,-9.9375 -2.31165,-6.00274 -3.1125,-12.77528 -3.71875,-19.90625 -7.7e-4,-0.01 7.7e-4,-0.0214 0,-0.0312 -0.43703,-5.63808 -0.19623,-11.90269 -1.46875,-18.5625 a 5.0005,5.0005 0 0 0 -0.0937,-0.40625 c -1.11314,-3.9685 -3.90642,-7.49924 -8.03125,-8.28125 -1.53655,-0.29131 -3.04958,-0.12659 -4.46875,0.34375 0.99397,-1.25665 1.85345,-2.5131 2.65625,-3.6875 0.012,-0.0176 0.0194,-0.045 0.0312,-0.0625 2.35736,-3.32173 5.07999,-6.58548 7.8125,-10.0625 a 5.0005,5.0005 0 0 0 0.0312,-0.0312 c 7.23564,-9.43903 13.85502,-19.21695 20.46875,-28.84375 a 5.0005,5.0005 0 0 0 0.0312,0 c 7.29509,-10.7355 14.70812,-21.38499 22.375,-31.8125 a 5.0005,5.0005 0 0 0 0.40625,-0.65625 c 0.44872,-0.86958 2.34472,-3.22425 4.34375,-5.625 1.99903,-2.40075 4.22982,-4.79089 5.34375,-8.4375 0.55463,-1.81568 0.52256,-3.03793 0.59375,-3.5 a 5.0005,5.0005 0 0 0 -0.75,-3.46875 c -0.29863,-0.46423 -0.79399,-2.61863 -3.3125,-4.8125 -2.73585,-2.38323 -5.82015,-2.54005 -8.15625,-2.5 -2.3361,0.0401 -4.37526,0.40488 -5.28125,0.46875 -3.95598,0.2789 -3.95392,0.18393 -8,0.125 -2.33371,-0.25649 -3.18356,-0.28373 -3.4375,-0.375 0.0731,-0.25859 0.17994,-0.4894 0.25,-0.75 a 5.0005,5.0005 0 0 0 0.0312,-0.1875 c 0.44056,-1.92319 1.10888,-4.34553 0.4375,-7.40625 -0.67138,-3.06072 -3.91209,-6.3326 -7.625,-7.0625 A 5.0005,5.0005 0 0 0 722.6562,728.9687 5.0005,5.0005 0 0 0 722.1875,729 c -3.37129,0.32119 -5.93618,1.49257 -8.03125,2.3125 -0.10258,0.0402 -0.24365,0.0867 -0.34375,0.125 l 0.0312,0.0625 c -1.99212,0.69452 -3.80641,2.09118 -4.71875,3.90625 -0.96512,1.92008 -1.01766,4.03696 -0.46875,5.875 0.49318,1.65143 1.57229,3.1412 3.125,4.21875 -1.0598,2.59536 -2.20298,5.21291 -3.40625,7.90625 -0.01,0.0217 -0.0216,0.0408 -0.0312,0.0625 -4.90454,10.45679 -10.02566,20.90067 -14.90625,31.53125 -0.006,0.0127 -0.0254,0.0186 -0.0312,0.0312 -4.96217,10.69846 -9.19089,21.64171 -13.0625,32.65625 a 5.0005,5.0005 0 0 0 -0.0312,0.0625 c -2.36288,6.95302 -4.74951,14.08706 -6.3125,21.65625 a 5.0005,5.0005 0 0 0 -0.0312,0.21875 c -0.45338,2.75393 -0.67273,5.94565 0.78125,9.28125 1.45398,3.3356 5.77428,6.22779 10.25,5.9375 1.93109,-0.12525 3.03766,-0.65222 3.5625,-1 -0.40456,0.95187 -0.66854,1.88527 -0.875,2.8125 -4.21175,0.17011 -8.715,-0.30106 -13.5,-0.84375 -8.37348,-0.9527 -16.73081,-2.18949 -25.125,-3.46875 0.12911,-0.10579 0.27831,-0.20639 0.40625,-0.3125 a 5.0005,5.0005 0 0 0 0.0937,-0.0937 c 5.75416,-5.00075 8.9009,-11.47825 10.84375,-18.0625 a 5.0005,5.0005 0 0 0 0.0937,-0.25 c 1.89095,-8.00896 1.71727,-15.82831 2.03125,-23 a 5.0005,5.0005 0 0 0 0.0312,-0.0937 c 0.1252,-6.07639 1.35906,-12.15734 3.15625,-18.28125 1.87826,-5.67642 4.148,-11.34894 6.375,-17.1875 0.004,-0.009 -0.004,-0.0219 0,-0.0312 2.12662,-5.50126 4.03594,-11.16387 5.46875,-17 1.32394,-5.49118 0.99937,-11.56321 -2.3125,-16.84375 -0.0159,-0.0279 -0.0464,-0.035 -0.0625,-0.0625 -0.031,-0.0489 -0.031,-0.10745 -0.0625,-0.15625 L 675.09375,741 c -1.83843,-3.00499 -4.91683,-3.86758 -6.40625,-4.25 -0.57671,-0.14807 -0.76719,-0.2077 -0.96875,-0.28125 -0.0318,-0.0701 -0.0275,-0.0453 -0.0625,-0.125 l -0.0937,0.0312 c -0.42521,-0.93303 -1.06706,-1.86408 -2,-2.40625 -0.61051,-0.35479 -1.2746,-0.57171 -1.90625,-0.65625 -0.63165,-0.0845 -1.25771,-0.0431 -1.84375,0.0937 -1.17209,0.27393 -2.28242,0.97887 -3.0625,2.15625 -0.6155,0.92899 -0.80342,2.10736 -0.75,3.15625 l -0.0937,0 c 0.004,0.06 -0.004,0.12716 0,0.1875 -3.05287,-1.06097 -6.02399,-2.28224 -8.875,-3.71875 -0.008,-0.004 -0.0237,0.004 -0.0312,0 -3.65696,-1.87506 -7.04388,-4.74338 -10.59375,-7.9375 -0.0217,-0.0202 -0.0408,-0.0423 -0.0625,-0.0625 -3.93717,-3.66264 -7.50413,-7.62009 -10.5625,-11.9375 -0.008,-0.0113 -0.0235,-0.02 -0.0312,-0.0312 -2.09663,-3.02639 -3.18714,-6.73326 -3.9375,-11.03125 -0.006,-0.0343 -0.0254,-0.0594 -0.0312,-0.0937 -0.44454,-4.28411 -1.16095,-9.0508 -3.90625,-13.59375 a 5.0005,5.0005 0 0 0 -0.21875,-0.34375 c -1.99529,-2.75404 -5.00344,-4.71178 -8.21875,-5.125 -3.21531,-0.41322 -6.289,0.59235 -8.875,2.25 a 5.0005,5.0005 0 0 0 -0.53125,0.40625 c -1.99383,1.70614 -4.04069,3.12971 -6.28125,4.28125 -0.008,0.004 -0.0236,-0.004 -0.0312,0 -3.78415,1.90058 -8.00328,2.98617 -12.53125,3.59375 -0.0112,10e-4 -0.0201,-10e-4 -0.0312,0 -3.34324,0.30987 -6.20334,-0.22792 -8.8125,-1.625 1.40711,-2.69262 3.70373,-5.33092 6.4375,-8.21875 0.0102,-0.0105 0.0212,-0.0208 0.0312,-0.0312 4.01543,-4.15639 8.6783,-7.79199 13.65625,-11.21875 4.22256,-2.7605 8.83808,-5.2945 13.5,-8.125 0.0536,-0.03 0.10288,-0.0635 0.15625,-0.0937 3.5625,-2.01997 6.66393,-4.56979 9.375,-7.46875 a 5.0005,5.0005 0 0 0 0.0937,-0.125 c 2.86462,-3.22877 4.47712,-7.15336 5.03125,-11.1875 a 5.0005,5.0005 0 0 0 0.0625,-0.34375 c 0.22444,-3.10645 -0.94247,-6.1305 -2.59375,-8.125 -1.64436,-1.98615 -3.54174,-3.16238 -5.21875,-4.125 -0.007,-0.004 -0.0239,0.004 -0.0312,0 -4.44765,-2.56486 -8.7339,-5.80025 -13.1875,-9.125 l 0,0.0312 c -8.39069,-6.32901 -16.86706,-12.59824 -25.5625,-18.625 -7.03613,-4.87622 -14.10042,-9.37998 -20.6875,-14.25 a 5.0005,5.0005 0 0 0 -0.0625,-0.0625 c -3.25198,-2.32098 -6.44947,-5.20194 -10,-8.09375 -0.0483,-0.0423 -0.10774,-0.0828 -0.15625,-0.125 -1.97446,-1.71829 -4.11164,-3.39214 -6.5625,-4.8125 a 5.0005,5.0005 0 0 0 -0.15625,-0.0625 c -4.87405,-2.62312 -10.89168,-1.46837 -14.71875,1.75 a 5.0005,5.0005 0 0 0 -0.65625,0.65625 c -2.64769,3.21467 -3.83079,6.36746 -5.15625,8.4375 a 5.0005,5.0005 0 0 0 -0.0312,0.0625 c -1.2399,1.9752 -2.9349,3.74906 -4.9375,5.46875 -0.31289,-0.009 -0.60722,-0.0176 -0.90625,0 -1.1961,0.0706 -2.26982,0.33726 -3.15625,0.59375 -1.16988,0.3385 -2.05239,0.65927 -2.75,0.90625 -6.30669,-3.70201 -12.73232,-6.83566 -18.84375,-10.09375 -5.30257,-3.51056 -10.68236,-5.70552 -15.0625,-8.25 0.82806,-2.18099 0.89557,-4.6279 0.0937,-6.65625 -0.8867,-2.24308 -2.59462,-3.88997 -4.5625,-4.8125 -0.98394,-0.46127 -2.06769,-0.75777 -3.1875,-0.84375 -0.27995,-0.0215 -0.5585,-0.005 -0.84375,0 z m 4.375,30.15625 c 3.28481,2.64584 6.8045,4.87741 10.21875,6.8125 a 5.0005,5.0005 0 0 0 0.0312,0.0312 c 6.46447,3.58106 12.94989,6.74339 19.125,10.15625 0.0839,0.0463 0.16625,0.10981 0.25,0.15625 0.42247,0.28098 0.95661,0.6678 1.5,1.0625 -5.19059,7.62655 -11.13818,14.87491 -17.28125,22.09375 -0.01,0.0113 -0.0217,0.02 -0.0312,0.0312 -3.96502,4.60195 -8.1494,9.00128 -12.53125,13.21875 l 0.0312,0.0312 c -4.11846,3.80788 -4.82456,9.44743 -4.0625,13.78125 a 5.0005,5.0005 0 0 0 0.0625,0.25 c 1.22047,5.24409 3.0532,10.12418 4.84375,14.78125 a 5.0005,5.0005 0 0 0 0.0312,0.0625 c 2.22926,5.59334 4.73717,10.96703 7.21875,16.25 0.004,0.009 -0.004,0.0225 0,0.0312 1.46626,3.17887 2.75154,6.40226 3.8125,9.6875 0.009,0.0313 0.0218,0.0625 0.0312,0.0937 0.66451,2.1943 1.36356,4.39491 3.15625,6.4375 1.81829,2.07176 4.46006,3.27809 7.28125,3.90625 a 5.0005,5.0005 0 0 0 1.5625,0.0937 c 6.15403,-0.57804 10.9969,-3.34807 15.0625,-5.09375 a 5.0005,5.0005 0 0 0 0.0312,-0.0312 c 3.84516,-1.68017 7.84411,-3.13309 11.8125,-4.625 -0.87017,5.4805 -1.71986,10.94572 -2.6875,16.34375 a 5.0005,5.0005 0 0 0 0,0.0937 c -0.86519,5.46122 -2.44944,11.19029 -3.46875,17.375 a 5.0005,5.0005 0 0 0 -0.0625,0.375 c -0.15921,1.84532 -0.12278,3.50335 0.34375,5.21875 0.46653,1.7154 1.56933,3.46643 2.9375,4.53125 2.59381,2.01871 4.77834,2.11698 6.75,2.53125 5.00343,1.9752 9.93239,5.00826 15.15625,8.09375 0.0123,0.007 0.019,0.024 0.0312,0.0312 9.09104,5.45169 18.03567,11.17327 26.78125,17.15625 a 5.0005,5.0005 0 0 0 0.375,0.21875 c 0.34663,0.19543 2.75129,2.11096 5.28125,3.8125 2.52996,1.70154 5.64144,4.15808 10.4375,2.8125 2.86982,-0.80517 4.16316,-2.21965 4.59375,-2.46875 a 5.0005,5.0005 0 0 0 2.0625,-2.3125 c 0.2486,-0.55947 0.86043,-1.55547 1.375,-3.15625 1.0762,-3.34797 0.90055,-6.24708 1.125,-7.875 0.4988,-3.6179 0.42886,-2.90759 1.125,-6.53125 0.02,-0.10393 0.01,-0.076 0.0312,-0.1875 2.42109,-10.49958 4.60254,-20.89206 7.375,-31.03125 l 0.0312,-0.0625 1.625,-5.625 -0.0937,-0.0312 c 0.29208,-1.04972 0.36098,-2.29274 -0.0937,-3.375 -0.54707,-1.30189 -1.52456,-2.2 -2.625,-2.6875 -1.10044,-0.4875 -2.41818,-0.62583 -3.75,-0.15625 -1.1147,0.39302 -2.01409,1.29032 -2.59375,2.21875 l -0.0937,-0.0625 -3.09375,5.09375 c -5.78662,9.58705 -12.16833,19.82796 -14.625,32.125 -0.005,0.0229 -0.0267,0.0396 -0.0312,0.0625 l 0.0312,0 c -0.17322,0.82735 -0.27745,1.67199 -0.4375,2.5 -8.33535,-5.63771 -16.77408,-11.13982 -25.40625,-16.3125 a 5.0005,5.0005 0 0 0 -0.0312,0 c -4.6385,-2.73783 -9.53862,-5.91117 -15.125,-8.3125 0.75229,-3.56485 1.50843,-7.0099 2.09375,-10.90625 l 0.0312,0 c 0.005,-0.0323 -0.005,-0.0615 0,-0.0937 1.19904,-7.09711 2.22334,-14.16748 3.28125,-21.1875 0.003,-0.0202 -0.003,-0.0423 0,-0.0625 0.12592,-0.72998 0.61406,-2.66766 1,-4.71875 0.39084,-2.0771 1.04449,-4.0816 0.0625,-7.21875 -0.66944,-2.13866 -1.59984,-3.15987 -1.78125,-3.5 a 5.0005,5.0005 0 0 0 -1.90625,-2 c -0.30675,-0.17487 -1.23342,-1.02569 -3.125,-1.71875 -3.13536,-1.14876 -5.97204,-0.51275 -8.0625,0.0937 -2.09046,0.60655 -3.78926,1.27142 -4.53125,1.4375 a 5.0005,5.0005 0 0 0 -0.53125,0.15625 c -6.38021,2.18615 -12.62386,4.65108 -18.78125,7.3125 -1.36231,0.58495 -2.79799,1.21346 -4.21875,1.8125 -0.9686,-2.61046 -1.8915,-5.22414 -3.125,-7.84375 -0.0139,-0.0307 -0.0174,-0.063 -0.0312,-0.0937 -2.34211,-5.18546 -4.74191,-10.19431 -6.71875,-15.1875 -0.008,-0.022 -0.0229,-0.0405 -0.0312,-0.0625 -1.41386,-3.67161 -2.68731,-7.2392 -3.625,-10.78125 4.07964,-4.10325 8.27389,-8.2706 12.1875,-12.90625 0.0147,-0.0174 0.0167,-0.0451 0.0312,-0.0625 7.04567,-8.15987 13.98418,-16.63214 20,-25.90625 a 5.0005,5.0005 0 0 0 0.0625,-0.0937 c 0.83454,-1.35387 2.73101,-4.1372 4.375,-7.1875 0.58442,-1.08434 1.19591,-2.17383 1.71875,-3.34375 A 5.0005,5.0005 0 0 0 522,612.59375 c 4.2229,-3.29094 8.28698,-7.10985 11.5,-11.9375 a 5.0005,5.0005 0 0 0 0.0625,-0.0937 c 0.16106,-0.25372 0.30633,-0.55571 0.46875,-0.8125 3.26141,2.87897 6.60661,5.78533 10.3125,8.4375 a 5.0005,5.0005 0 0 0 0.0312,0.0312 c 7.06257,4.95642 14.26171,9.46706 21.1875,14.15625 l -0.0312,0.0312 c 8.48282,5.87795 16.83585,11.92329 25.0625,18.15625 a 5.0005,5.0005 0 0 0 0.0937,0.0312 c 3.53978,2.59033 7.23744,5.26394 11.15625,7.78125 -0.944,0.7599 -1.99774,1.50058 -3.21875,2.28125 -0.0265,0.0169 -0.0359,0.0455 -0.0625,0.0625 -4.64465,2.82635 -9.43703,5.63997 -14.15625,8.8125 a 5.0005,5.0005 0 0 0 -0.0625,0.0312 c -5.82736,4.01794 -11.47909,8.49043 -16.5625,13.75 a 5.0005,5.0005 0 0 0 -0.0312,0.0312 c -4.12518,4.37756 -9.02695,9.4624 -11.1875,16.75 a 5.0005,5.0005 0 0 0 -0.15625,0.71875 c -0.51967,3.57045 -0.34037,7.08067 1.03125,10.28125 1.37162,3.20058 3.84408,5.78581 6.875,7.875 a 5.0005,5.0005 0 0 0 0.40625,0.25 c 6.30982,3.51216 13.35123,4.89605 20.53125,4.09375 a 5.0005,5.0005 0 0 0 0.125,0 c 6.26475,-0.8661 12.59882,-2.47929 18.5625,-5.5 a 5.0005,5.0005 0 0 0 0.125,-0.0625 c 0.68813,-0.37678 1.37314,-0.84272 2.0625,-1.25 0.0459,0.25429 0.0417,0.388 0.0937,0.65625 0.008,0.0395 0.0235,0.054 0.0312,0.0937 1.10781,6.17509 2.99797,12.52207 6.96875,18.21875 a 5.0005,5.0005 0 0 0 0.0312,0.0625 c 3.84909,5.39028 8.24388,10.34277 13.0625,14.84375 4.27473,3.94284 8.99829,7.91117 14.71875,10.8125 a 5.0005,5.0005 0 0 0 0.0937,0.0625 c 4.24776,2.03694 8.68287,3.85675 13.375,5.21875 a 5.0005,5.0005 0 0 0 0.0625,0 c 1.33102,0.36956 2.70476,0.7132 4.125,1 -1.05836,3.68004 -2.34009,7.33454 -3.75,11 a 5.0005,5.0005 0 0 0 -0.0312,0 c -2.25358,5.90945 -4.72316,11.95453 -6.75,18.34375 a 5.0005,5.0005 0 0 0 -0.0625,0.0937 c -2.15322,7.36212 -3.68336,15.0339 -3.8125,23.03125 -5.1e-4,0.0316 4.7e-4,0.0622 0,0.0937 -0.22339,6.81526 -0.1176,13.22851 -1.28125,19.0625 -1.13169,3.95607 -2.5915,6.94541 -5.1875,9.21875 -2.56677,2.24409 -5.18418,3.92907 -7.96875,4.78125 -0.0218,0.007 -0.0407,0.0248 -0.0625,0.0312 -3.14909,0.89516 -6.33485,1.36297 -9.5,1.3125 -0.0195,-5e-4 -0.043,5.3e-4 -0.0625,0 -2.55359,-0.0692 -5.27221,-0.3523 -8.15625,-0.59375 a 5.0005,5.0005 0 0 0 -5.21875,3.625 c -0.61538,2.17929 -1.73485,4.83144 -2.28125,8.1875 -0.35447,2.17701 0.62421,3.43156 1.09375,4 0.46954,0.56844 0.76642,0.77028 1,0.9375 0.46715,0.33444 0.73488,0.4473 0.96875,0.5625 0.46774,0.2304 0.84593,0.39448 1.28125,0.5625 0.87064,0.33603 1.86594,0.68503 2.90625,1.03125 1.04031,0.34622 2.10762,0.6785 2.9375,0.9375 0.78578,0.24524 1.00062,0.32452 1.6875,0.5 0.0317,0.009 0.0621,0.0226 0.0937,0.0312 8.48299,2.31161 17.10106,4.09928 25.78125,5.40625 0.0101,0.002 0.0212,-0.002 0.0312,0 9.92088,1.53605 19.88858,2.9064 29.875,4.0625 a 5.0005,5.0005 0 0 0 0.0625,0 c 5.83889,0.60083 12.14576,1.46294 18.875,0.71875 a 5.0005,5.0005 0 0 0 0.21875,-0.0312 c 0.0791,-0.0119 0.20001,-0.0504 0.28125,-0.0625 0.0423,0.61524 0.0312,1.15291 0.0937,1.78125 0.003,0.0404 -0.003,0.0846 0,0.125 0.62791,8.17974 1.62593,16.74011 4.9375,25.0625 a 5.0005,5.0005 0 0 0 0.0625,0.15625 c 1.02914,2.35569 2.18947,4.74018 3.5625,7.0625 -34.24997,2.79363 -68.6303,4.43016 -103,5.125 -0.0104,2.1e-4 -0.0208,-2.1e-4 -0.0312,0 -52.0841,0.75718 -104.20663,0.56613 -156.40625,1.15625 a 5.0005,5.0005 0 0 0 -0.0312,0 c -49.24133,0.72528 -98.43616,2.04102 -147.59375,2.75 -0.0208,1.3e-4 -0.0417,-1.3e-4 -0.0625,0 C 253.37412,917.77518 213.60689,917.38445 174,914.75 a 5.0005,5.0005 0 0 0 -0.0312,0 c -30.64728,-1.88449 -61.34423,-4.10326 -92.1875,-5.25 a 5.0005,5.0005 0 0 0 -0.03125,0 c -23.020552,-0.73845 -46.021818,-1.14431 -69,-1.53125 -0.01043,-2.8e-4 -0.02082,2.8e-4 -0.03125,0 -3.7210888,-0.0989 -7.4464514,-0.1979 -11.15625,-0.3125 13.301795,-5.71297 25.950644,-12.53494 38.5,-19 a 5.0005,5.0005 0 0 0 0.09375,-0.0625 C 59.804144,878.02653 79.513666,867.2635 98.375,854.875 a 5.0005,5.0005 0 0 0 0.0625,-0.0625 c 7.68712,-5.23884 15.48203,-10.67252 22.71875,-16.96875 3.38231,8.80837 10.90929,14.88726 19.84375,17.40625 a 5.0005,5.0005 0 0 0 0.375,0.0937 c 10.84281,2.18266 21.74504,1.96544 32.4375,0.0937 10.95227,-1.96265 21.77557,-4.81888 32.25,-8.96875 0.0127,-0.005 0.0187,-0.0263 0.0312,-0.0312 11.84248,-4.58514 23.49217,-9.61832 34.96875,-14.9375 0.008,-0.004 0.0229,0.004 0.0312,0 11.60531,-5.36716 23.23747,-10.84915 34.71875,-16.6875 a 5.0005,5.0005 0 0 0 0.0625,0 c 10.73203,-5.60772 21.6496,-11.63866 31.375,-19.84375 a 5.0005,5.0005 0 0 0 0.0937,-0.0937 c 8.55336,-7.56929 16.39996,-16.00327 22.71875,-25.875 0.005,-0.007 -0.005,-0.024 0,-0.0312 5.55267,-8.58561 10.732,-17.47803 15.25,-26.75 a 5.0005,5.0005 0 0 0 0,-0.0312 c 3.89457,-8.14251 7.60135,-16.59608 10.09375,-25.65625 a 5.0005,5.0005 0 0 0 0.0312,-0.0625 c 2.00315,-7.67977 3.77036,-15.7526 3.78125,-24.28125 a 5.0005,5.0005 0 0 0 0,-0.15625 c -0.0226,-0.77867 -0.0504,-1.57998 -0.0937,-2.375 9.24784,7.65472 19.66638,10.82601 31.59375,10.125 a 5.0005,5.0005 0 0 0 0.625,-0.0937 c 1.65238,-0.3097 3.78531,-0.48347 6.21875,-1.15625 12.28271,-3.3958 21.5013,-11.87531 29.125,-20.21875 a 5.0005,5.0005 0 0 0 0.15625,-0.15625 c 9.59402,-11.44588 18.08704,-23.81363 25.0314,-37.1564 5.29883,-10.27638 10.3772,-20.98268 13.59375,-32.59375 a 5.0005,5.0005 0 0 0 0,-0.0312 c 0.99948,-3.71562 1.87831,-7.45537 2.65625,-11.25 z M 727,754.375 c 0.74328,0.41557 1.3518,0.89032 4,2.25 a 5.0005,5.0005 0 0 0 0.46875,0.21875 c 4.5122,1.74051 4.69031,1.7142 5.59375,2 -0.95142,1.24432 -1.86945,2.39421 -2.8125,3.71875 -0.0227,0.032 -0.0398,0.0617 -0.0625,0.0937 -7.79226,10.6027 -15.34369,21.39571 -22.71875,32.25 -2.76986,4.07976 -5.54966,8.12821 -8.34375,12.15625 1.95959,-4.9624 4.02869,-9.88375 6.25,-14.71875 4.83636,-10.53775 9.96953,-21.00598 14.90625,-31.65625 a 5.0005,5.0005 0 0 0 0.0312,-0.0937 c 0.90059,-2.01788 1.80189,-4.10637 2.6875,-6.21875 z"
           style="font-size:medium;font-style:normal;font-variant:normal;font-weight:normal;font-stretch:normal;text-indent:0;text-align:start;text-decoration:none;line-height:normal;letter-spacing:normal;word-spacing:normal;text-transform:none;direction:ltr;block-progression:tb;writing-mode:lr-tb;text-anchor:start;baseline-shift:baseline;color:#000000;fill:#2b3e50;fill-opacity:1;fill-rule:nonzero;stroke:none;stroke-width:10;marker:none;visibility:visible;display:inline;overflow:visible;enable-background:accumulate;font-family:Sans;-inkscape-font-specification:Sans"
           inkscape:connector-curvature="0" />
      </g>
      <g
         style="fill:#d0d5d8;fill-opacity:1"
         id="g4288">
        <path
           inkscape:connector-curvature="0"
           id="path4246"
           style="font-size:212.76596069px;font-style:normal;font-variant:normal;font-weight:600;font-stretch:normal;line-height:125%;letter-spacing:0px;word-spacing:0px;fill:#d0d5d8;fill-opacity:1;stroke:none;font-family:URW Gothic L;-inkscape-font-specification:URW Gothic L Semi-Bold"
           d="m -42.000001,1246.5962 29.148937,0 0,-114.2553 65.744682,114.2553 32.553192,0 0,-157.2341 -29.148937,0 0,114.4681 -65.106384,-114.4681 -33.19149,0 0,157.2341" />
        <path
           inkscape:connector-curvature="0"
           id="path4248"
           style="font-size:212.76596069px;font-style:normal;font-variant:normal;font-weight:600;font-stretch:normal;line-height:125%;letter-spacing:0px;word-spacing:0px;fill:#d0d5d8;fill-opacity:1;stroke:none;font-family:URW Gothic L;-inkscape-font-specification:URW Gothic L Semi-Bold"
           d="m 159.75199,1125.9579 c -34.25528,0 -62.34042,27.8724 -62.34042,61.7021 0,34.0425 28.08514,61.7021 62.55319,61.7021 34.25528,0 62.76596,-27.6596 62.76596,-60.851 0,-35.1064 -27.44685,-62.5532 -62.97873,-62.5532 m 0.21277,25.9574 c 18.93615,0 34.25532,16.1703 34.25532,35.7447 0,19.7872 -15.31917,35.7447 -34.04256,35.7447 -19.14891,0 -34.25532,-15.9575 -34.25532,-36.1702 0,-19.3617 15.53194,-35.3192 34.04256,-35.3192" />
        <path
           inkscape:connector-curvature="0"
           id="path4250"
           style="font-size:212.76596069px;font-style:normal;font-variant:normal;font-weight:600;font-stretch:normal;line-height:125%;letter-spacing:0px;word-spacing:0px;fill:#d0d5d8;fill-opacity:1;stroke:none;font-family:URW Gothic L;-inkscape-font-specification:URW Gothic L Semi-Bold"
           d="m 267.3105,1246.5962 23.82979,0 60.85107,-157.2341 -30.6383,0 -42.34043,119.5745 -42.34042,-119.5745 -30.6383,0 61.27659,157.2341" />
        <path
           inkscape:connector-curvature="0"
           id="path4252"
           style="font-size:212.76596069px;font-style:normal;font-variant:normal;font-weight:600;font-stretch:normal;line-height:125%;letter-spacing:0px;word-spacing:0px;fill:#d0d5d8;fill-opacity:1;stroke:none;font-family:URW Gothic L;-inkscape-font-specification:URW Gothic L Semi-Bold"
           d="m 312.5911,1246.5962 32.12766,0 17.44681,-40.6383 55.95745,0 16.80851,40.6383 32.12766,0 -65.95745,-157.2341 -22.97872,0 -65.53192,157.2341 m 60.21277,-68.5106 16.80851,-47.6596 16.80851,47.6596 -33.61702,0" />
      </g>
      <g
         id="text4294"
         style="font-size:87.66661072px;font-style:normal;font-variant:normal;font-weight:600;font-stretch:normal;line-height:125%;letter-spacing:0px;word-spacing:0px;fill:#d0d5d8;fill-opacity:1;stroke:none;font-family:URW Gothic L;-inkscape-font-specification:URW Gothic L Semi-Bold">
        <path
           id="path4843"
           d="m -5.0923558,1068.2671 c -2.8929953,4.471 -6.2243342,6.3997 -11.0459932,6.3997 -8.06532,0 -14.114324,-6.3121 -14.114324,-14.8157 0,-8.5037 5.786004,-14.6403 13.851324,-14.6403 5.259992,0 8.9419971,2.1916 11.3089932,6.6626 l 13.1499916,0 c -1.665664,-4.9093 -3.2436679,-7.4516 -6.5749958,-10.52 -4.7339923,-4.3833 -11.1336663,-6.838 -17.883989,-6.838 -14.377309,0 -25.59865,11.1337 -25.59865,25.4234 0,14.1143 11.572007,25.4233 25.949317,25.4233 11.3089813,0 20.0756577,-6.2244 24.1083178,-17.095 l -13.1499916,0"
           inkscape:connector-curvature="0" />
        <path
           id="path4845"
           d="m 39.847741,1034.5154 c -14.11431,0 -25.686317,11.4844 -25.686317,25.4234 0,14.0266 11.572007,25.4233 25.773983,25.4233 14.114311,0 25.861651,-11.3967 25.861651,-25.0727 0,-14.4649 -11.309008,-25.774 -25.949317,-25.774 m 0.08767,10.6954 c 7.802321,0 14.114325,6.6626 14.114325,14.728 0,8.1529 -6.312004,14.728 -14.026658,14.728 -7.889987,0 -14.114324,-6.5751 -14.114324,-14.9034 0,-7.9776 6.39967,-14.5526 14.026657,-14.5526"
           inkscape:connector-curvature="0" />
        <path
           id="path4847"
           d="m 121.43248,1019.4368 -11.65966,0 0,20.514 c -3.41899,-3.7697 -9.02967,-6.049 -15.166322,-6.049 -13.588311,0 -24.283651,11.3967 -24.283651,25.9493 0,14.3773 10.607673,25.511 24.371317,25.511 6.574986,0 11.396666,-2.1917 16.042986,-7.4517 l 0,6.312 10.69533,0 0,-64.7856 m -25.160317,25.1603 c 8.152987,0 14.377327,6.575 14.377327,15.0787 0,8.4159 -6.22434,14.991 -14.114327,14.991 -8.152987,0 -14.464991,-6.7504 -14.464991,-15.3417 0,-8.2407 6.224338,-14.728 14.201991,-14.728"
           inkscape:connector-curvature="0" />
        <path
           id="path4849"
           style="letter-spacing:10.78261662px;fill:#d0d5d8;fill-opacity:1"
           d="m 178.42947,1065.1111 c 0.35067,-1.6657 0.43833,-2.7177 0.43833,-4.471 0,-15.0786 -10.60767,-26.1247 -25.07265,-26.1247 -14.28964,0 -25.59865,11.3091 -25.59865,25.5987 0,14.202 11.48434,25.248 26.29999,25.248 7.97765,0 14.20199,-2.893 19.28665,-8.7667 1.841,-2.2793 3.06833,-4.2956 3.85733,-6.7503 l -12.71166,0 c -2.98066,3.5066 -5.87366,4.8217 -10.69532,4.8217 -6.92566,0 -12.01033,-3.6821 -13.41299,-9.5557 l 37.60897,0 m -37.95964,-10.257 c 1.841,-6.2243 6.575,-9.6433 13.50066,-9.6433 7.18865,0 11.92266,3.419 13.41299,9.6433 l -26.91365,0"
           inkscape:connector-curvature="0" />
        <g
           style="stroke:#d0d5d8;stroke-width:2.68241715;stroke-miterlimit:4;stroke-opacity:1;stroke-dasharray:none"
           transform="matrix(1.1183943,0,0,1.1183943,-26.317409,-128.01052)"
           id="g5638">
          <path
             sodipodi:nodetypes="cccccccccc"
             inkscape:connector-curvature="0"
             id="path4851"
             d="m 199.78125,1041.875 0,12.75 12.75,0 0,-12.75 z m 0,28.3125 0,12.375 12.75,0 0,-12.375 z"
             style="font-size:medium;font-style:normal;font-variant:normal;font-weight:normal;font-stretch:normal;text-indent:0;text-align:start;text-decoration:none;line-height:125%;letter-spacing:10.78261662px;word-spacing:0;text-transform:none;direction:ltr;block-progression:tb;writing-mode:lr-tb;text-anchor:start;baseline-shift:baseline;color:#000000;fill:#d0d5d8;fill-opacity:1;fill-rule:nonzero;stroke:none;stroke-width:2.68241715;marker:none;visibility:visible;display:inline;overflow:visible;enable-background:accumulate;font-family:URW Gothic L;-inkscape-font-specification:URW Gothic L Semi-Bold" />
          <path
             sodipodi:nodetypes="cccccccccc"
             inkscape:connector-curvature="0"
             id="path4853"
             d="m 232.03125,1041.875 0,12.75 12.75,0 0,-12.75 z m 0,28.3125 0,12.375 12.75,0 0,-12.375 z"
             style="font-size:medium;font-style:normal;font-variant:normal;font-weight:normal;font-stretch:normal;text-indent:0;text-align:start;text-decoration:none;line-height:125%;letter-spacing:10.78261662px;word-spacing:0;text-transform:none;direction:ltr;block-progression:tb;writing-mode:lr-tb;text-anchor:start;baseline-shift:baseline;color:#000000;fill:#d0d5d8;fill-opacity:1;fill-rule:nonzero;stroke:none;stroke-width:2.68241715;marker:none;visibility:visible;display:inline;overflow:visible;enable-background:accumulate;font-family:URW Gothic L;-inkscape-font-specification:URW Gothic L Semi-Bold" />
        </g>
        <path
           id="path4855"
           d="m 268.13048,1084.2224 11.65966,0 0,-37.9596 6.57499,0 0,-9.731 -6.57499,0 c 0.0877,-4.3834 1.578,-5.8737 6.13666,-5.8737 l 1.13967,0 0,-11.046 c -1.40267,-0.1753 -2.104,-0.1753 -2.893,-0.1753 -4.99699,0 -9.205,1.841 -12.18566,5.4353 -2.367,2.8053 -3.24367,5.6107 -3.85733,11.6597 l -4.208,0 0,9.731 4.208,0 0,37.9596"
           inkscape:connector-curvature="0" />
        <path
           id="path4857"
           d="m 315.84712,1034.5154 c -14.11432,0 -25.68632,11.4844 -25.68632,25.4234 0,14.0266 11.57201,25.4233 25.77398,25.4233 14.11431,0 25.86165,-11.3967 25.86165,-25.0727 0,-14.4649 -11.30901,-25.774 -25.94931,-25.774 m 0.0877,10.6954 c 7.80232,0 14.11433,6.6626 14.11433,14.728 0,8.1529 -6.31201,14.728 -14.02666,14.728 -7.88999,0 -14.11433,-6.5751 -14.11433,-14.9034 0,-7.9776 6.39967,-14.5526 14.02666,-14.5526"
           inkscape:connector-curvature="0" />
        <path
           id="path4859"
           d="m 348.42623,1084.2224 11.65966,0 0,-27.0013 c 0,-7.5393 3.41901,-11.309 10.43233,-11.4843 l 0,-11.2214 -0.87667,0 c -4.99699,0 -7.45166,1.4027 -10.51999,5.8737 l 0,-4.734 -10.69533,0 0,48.5673"
           inkscape:connector-curvature="0" />
      </g>
    </g>
    <g
       id="g6211"
       transform="translate(0,-590)">
      <rect
         y="832.36218"
         x="1000"
         height="120"
         width="280"
         id="rect6081"
         style="color:#000000;fill:#2b3e50;fill-opacity:1;fill-rule:nonzero;stroke:none;stroke-width:3;marker:none;visibility:visible;display:inline;overflow:visible;enable-background:accumulate" />
      <rect
         style="color:#000000;fill:#4e5d6c;fill-opacity:1;fill-rule:nonzero;stroke:none;stroke-width:3;marker:none;visibility:visible;display:inline;overflow:visible;enable-background:accumulate"
         id="rect6107"
         width="280"
         height="120"
         x="1000"
         y="952.36218" />
      <rect
         y="1072.3622"
         x="1000"
         height="120"
         width="280"
         id="rect6117"
         style="color:#000000;fill:#647385;fill-opacity:1;fill-rule:nonzero;stroke:none;stroke-width:3;marker:none;visibility:visible;display:inline;overflow:visible;enable-background:accumulate" />
      <rect
         style="color:#000000;fill:#d0d5d8;fill-opacity:1;fill-rule:nonzero;stroke:none;stroke-width:3;marker:none;visibility:visible;display:inline;overflow:visible;enable-background:accumulate"
         id="rect6127"
         width="280"
         height="120"
         x="1000"
         y="1192.3622" />
      <rect
         y="1312.3622"
         x="1000"
         height="120"
         width="280"
         id="rect6137"
         style="color:#000000;fill:#c83737;fill-opacity:1;fill-rule:nonzero;stroke:none;stroke-width:3;marker:none;visibility:visible;display:inline;overflow:visible;enable-background:accumulate" />
      <g
         style="fill:#ffffff;stroke:#ffffff;stroke-width:2;stroke-linejoin:round;stroke-miterlimit:4;stroke-dasharray:none"
         id="g6169">
        <text
           sodipodi:linespacing="125%"
           id="text6171"
           y="868.17078"
           x="1025.6094"
           style="font-size:24px;font-style:normal;font-variant:normal;font-weight:bold;font-stretch:normal;line-height:125%;letter-spacing:0px;word-spacing:0px;fill:#ffffff;fill-opacity:1;stroke:#ffffff;stroke-width:2;stroke-linejoin:round;stroke-miterlimit:4;stroke-dasharray:none;font-family:Liberation Mono;-inkscape-font-specification:Liberation Mono Bold"
           xml:space="preserve"><tspan
             y="868.17078"
             x="1025.6094"
             id="tspan6173"
             sodipodi:role="line">R  43</tspan><tspan
             id="tspan6175"
             y="898.17078"
             x="1025.6094"
             sodipodi:role="line">G  62</tspan><tspan
             id="tspan6177"
             y="928.17078"
             x="1025.6094"
             sodipodi:role="line">B  80</tspan></text>
        <text
           xml:space="preserve"
           style="font-size:24px;font-style:normal;font-variant:normal;font-weight:bold;font-stretch:normal;line-height:125%;letter-spacing:0px;word-spacing:0px;fill:#ffffff;fill-opacity:1;stroke:#ffffff;stroke-width:2;stroke-linejoin:round;stroke-miterlimit:4;stroke-dasharray:none;font-family:Liberation Mono;-inkscape-font-specification:Liberation Mono Bold"
           x="1025.6094"
           y="988.17078"
           id="text6179"
           sodipodi:linespacing="125%"><tspan
             sodipodi:role="line"
             id="tspan6181"
             x="1025.6094"
             y="988.17078">R  73</tspan><tspan
             sodipodi:role="line"
             x="1025.6094"
             y="1018.1708"
             id="tspan6183">G  98</tspan><tspan
             sodipodi:role="line"
             x="1025.6094"
             y="1048.1708"
             id="tspan6185">B 103</tspan></text>
        <text
           sodipodi:linespacing="125%"
           id="text6187"
           y="1108.1708"
           x="1025.6094"
           style="font-size:24px;font-style:normal;font-variant:normal;font-weight:bold;font-stretch:normal;line-height:125%;letter-spacing:0px;word-spacing:0px;fill:#ffffff;fill-opacity:1;stroke:#ffffff;stroke-width:2;stroke-linejoin:round;stroke-miterlimit:4;stroke-dasharray:none;font-family:Liberation Mono;-inkscape-font-specification:Liberation Mono Bold"
           xml:space="preserve"><tspan
             y="1108.1708"
             x="1025.6094"
             id="tspan6189"
             sodipodi:role="line">R 100</tspan><tspan
             id="tspan6191"
             y="1138.1708"
             x="1025.6094"
             sodipodi:role="line">G 115</tspan><tspan
             id="tspan6193"
             y="1168.1708"
             x="1025.6094"
             sodipodi:role="line">B 133</tspan></text>
        <text
           xml:space="preserve"
           style="font-size:24px;font-style:normal;font-variant:normal;font-weight:bold;font-stretch:normal;line-height:125%;letter-spacing:0px;word-spacing:0px;fill:#ffffff;fill-opacity:1;stroke:#ffffff;stroke-width:2;stroke-linejoin:round;stroke-miterlimit:4;stroke-dasharray:none;font-family:Liberation Mono;-inkscape-font-specification:Liberation Mono Bold"
           x="1025.6094"
           y="1228.1708"
           id="text6195"
           sodipodi:linespacing="125%"><tspan
             sodipodi:role="line"
             id="tspan6197"
             x="1025.6094"
             y="1228.1708">R 208</tspan><tspan
             sodipodi:role="line"
             x="1025.6094"
             y="1258.1708"
             id="tspan6199">G 213</tspan><tspan
             sodipodi:role="line"
             x="1025.6094"
             y="1288.1708"
             id="tspan6201">B 216</tspan></text>
        <text
           sodipodi:linespacing="125%"
           id="text6203"
           y="1348.1708"
           x="1025.6094"
           style="font-size:24px;font-style:normal;font-variant:normal;font-weight:bold;font-stretch:normal;line-height:125%;letter-spacing:0px;word-spacing:0px;fill:#ffffff;fill-opacity:1;stroke:#ffffff;stroke-width:2;stroke-linejoin:round;stroke-miterlimit:4;stroke-dasharray:none;font-family:Liberation Mono;-inkscape-font-specification:Liberation Mono Bold"
           xml:space="preserve"><tspan
             y="1348.1708"
             x="1025.6094"
             id="tspan6205"
             sodipodi:role="line">R 200</tspan><tspan
             id="tspan6207"
             y="1378.1708"
             x="1025.6094"
             sodipodi:role="line">G  55</tspan><tspan
             id="tspan6209"
             y="1408.1708"
             x="1025.6094"
             sodipodi:role="line">B  55</tspan></text>
      </g>
      <g
         id="g6147">
        <text
           xml:space="preserve"
           style="font-size:24px;font-style:normal;font-variant:normal;font-weight:bold;font-stretch:normal;line-height:125%;letter-spacing:0px;word-spacing:0px;fill:#000000;fill-opacity:1;stroke:none;font-family:Liberation Mono;-inkscape-font-specification:Liberation Mono Bold"
           x="1025.6094"
           y="868.17078"
           id="text6083"
           sodipodi:linespacing="125%"><tspan
             sodipodi:role="line"
             id="tspan6085"
             x="1025.6094"
             y="868.17078">R  43</tspan><tspan
             sodipodi:role="line"
             x="1025.6094"
             y="898.17078"
             id="tspan6087">G  62</tspan><tspan
             sodipodi:role="line"
             x="1025.6094"
             y="928.17078"
             id="tspan6089">B  80</tspan></text>
        <text
           sodipodi:linespacing="125%"
           id="text6109"
           y="988.17078"
           x="1025.6094"
           style="font-size:24px;font-style:normal;font-variant:normal;font-weight:bold;font-stretch:normal;line-height:125%;letter-spacing:0px;word-spacing:0px;fill:#000000;fill-opacity:1;stroke:none;font-family:Liberation Mono;-inkscape-font-specification:Liberation Mono Bold"
           xml:space="preserve"><tspan
             y="988.17078"
             x="1025.6094"
             id="tspan6111"
             sodipodi:role="line">R  73</tspan><tspan
             id="tspan6113"
             y="1018.1708"
             x="1025.6094"
             sodipodi:role="line">G  98</tspan><tspan
             id="tspan6115"
             y="1048.1708"
             x="1025.6094"
             sodipodi:role="line">B 103</tspan></text>
        <text
           xml:space="preserve"
           style="font-size:24px;font-style:normal;font-variant:normal;font-weight:bold;font-stretch:normal;line-height:125%;letter-spacing:0px;word-spacing:0px;fill:#000000;fill-opacity:1;stroke:none;font-family:Liberation Mono;-inkscape-font-specification:Liberation Mono Bold"
           x="1025.6094"
           y="1108.1708"
           id="text6119"
           sodipodi:linespacing="125%"><tspan
             sodipodi:role="line"
             id="tspan6121"
             x="1025.6094"
             y="1108.1708">R 100</tspan><tspan
             sodipodi:role="line"
             x="1025.6094"
             y="1138.1708"
             id="tspan6123">G 115</tspan><tspan
             sodipodi:role="line"
             x="1025.6094"
             y="1168.1708"
             id="tspan6125">B 133</tspan></text>
        <text
           sodipodi:linespacing="125%"
           id="text6129"
           y="1228.1708"
           x="1025.6094"
           style="font-size:24px;font-style:normal;font-variant:normal;font-weight:bold;font-stretch:normal;line-height:125%;letter-spacing:0px;word-spacing:0px;fill:#000000;fill-opacity:1;stroke:none;font-family:Liberation Mono;-inkscape-font-specification:Liberation Mono Bold"
           xml:space="preserve"><tspan
             y="1228.1708"
             x="1025.6094"
             id="tspan6131"
             sodipodi:role="line">R 208</tspan><tspan
             id="tspan6133"
             y="1258.1708"
             x="1025.6094"
             sodipodi:role="line">G 213</tspan><tspan
             id="tspan6135"
             y="1288.1708"
             x="1025.6094"
             sodipodi:role="line">B 216</tspan></text>
        <text
           xml:space="preserve"
           style="font-size:24px;font-style:normal;font-variant:normal;font-weight:bold;font-stretch:normal;line-height:125%;letter-spacing:0px;word-spacing:0px;fill:#000000;fill-opacity:1;stroke:none;font-family:Liberation Mono;-inkscape-font-specification:Liberation Mono Bold"
           x="1025.6094"
           y="1348.1708"
           id="text6139"
           sodipodi:linespacing="125%"><tspan
             sodipodi:role="line"
             id="tspan6141"
             x="1025.6094"
             y="1348.1708">R 200</tspan><tspan
             sodipodi:role="line"
             x="1025.6094"
             y="1378.1708"
             id="tspan6143">G  55</tspan><tspan
             sodipodi:role="line"
             x="1025.6094"
             y="1408.1708"
             id="tspan6145">B  55</tspan></text>
      </g>
    </g>
    <g
       id="g6260"
       transform="translate(120,-400)">
      <rect
         style="color:#000000;fill:#ffffff;fill-opacity:1;fill-rule:nonzero;stroke:none;stroke-width:16;marker:none;visibility:visible;display:inline;overflow:visible;enable-background:accumulate"
         id="rect6262"
         width="940"
         height="500"
         x="-120"
         y="952.36218" />
      <g
         id="g6264"
         transform="translate(18,560)"
         style="fill:#d0d5d8;fill-opacity:1">
        <path
           style="font-size:medium;font-style:normal;font-variant:normal;font-weight:normal;font-stretch:normal;text-indent:0;text-align:start;text-decoration:none;line-height:normal;letter-spacing:normal;word-spacing:normal;text-transform:none;direction:ltr;block-progression:tb;writing-mode:lr-tb;text-anchor:start;baseline-shift:baseline;color:#000000;fill:#000000;fill-opacity:1;fill-rule:nonzero;stroke:none;stroke-width:10;marker:none;visibility:visible;display:inline;overflow:visible;enable-background:accumulate;font-family:Sans;-inkscape-font-specification:Sans"
           d="m 463.75,566.96875 c -0.85575,0.0139 -1.73449,0.12376 -2.59375,0.40625 -0.2492,0.0819 -0.47743,0.20448 -0.71875,0.3125 -0.19636,-0.0412 -0.39864,-0.10745 -0.59375,-0.125 -0.63468,-0.0571 -1.26426,0.0253 -1.84375,0.1875 -1.15899,0.32434 -2.27156,1.07148 -3,2.28125 -0.5977,0.99265 -0.69033,2.20898 -0.5625,3.28125 l -0.125,0 0.21875,1.8125 c -1.38396,3.54301 -2.13257,7.09755 -2.71875,10.4375 a 5.0005,5.0005 0 0 0 -0.0312,0.15625 c -0.86358,6.03477 -2.11939,11.98065 -3.71875,17.90625 -0.003,0.01 0.003,0.0214 0,0.0312 -2.82504,9.95188 -7.31228,19.51208 -12.1875,29.09375 -0.006,0.0125 -0.0249,0.0187 -0.0312,0.0312 -6.25787,12.02827 -13.83368,23.2512 -22.5625,33.65625 -0.0524,0.0625 -0.10375,0.12507 -0.15625,0.1875 -6.28026,6.73334 -12.98923,12.64904 -20.875,14.71875 -0.8359,0.21939 -2.15464,0.37457 -3.6875,0.625 -0.0104,9.7e-4 -0.021,-9.5e-4 -0.0312,0 -6.69977,0.61711 -13.39197,-2.93702 -21.75,-5.875 -0.0669,-0.0264 -0.12089,-0.0364 -0.1875,-0.0625 -3.95408,-1.54893 -7.37657,-2.52295 -9.84375,-4.0625 l -0.0625,0.0937 c -0.86991,-0.52987 -1.90136,-0.94401 -2.96875,-0.875 -0.0523,0.003 -0.10459,0.0264 -0.15625,0.0312 -1.00922,-1.15108 -2.18288,-2.11557 -3.5625,-2.5625 -1.14011,-0.36934 -2.29413,-0.46521 -3.40625,-0.375 -1.11212,0.0902 -2.18093,0.38139 -3.15625,0.84375 -1.95065,0.92473 -3.65971,2.54844 -4.53125,4.78125 -0.85327,2.18601 -0.69256,4.86984 0.34375,7.15625 l -0.0312,0 c 0.0218,0.0498 0.0412,0.1062 0.0625,0.15625 1.36709,3.20876 1.79623,6.88017 1.84375,11 6.3e-4,0.0549 -5e-4,0.10114 0,0.15625 -0.17412,6.35709 -1.55678,12.79125 -3.34375,19.34375 -0.003,0.01 0.003,0.0213 0,0.0312 -2.11662,7.61018 -5.42333,15.0317 -9,22.5 -0.004,0.009 0.004,0.0226 0,0.0312 C 324.66952,742.7799 319.82861,750.96589 314.625,759 a 5.0005,5.0005 0 0 0 -0.0312,0.0312 c -5.23647,8.20697 -11.89567,15.37047 -19.375,21.96875 -0.028,0.0247 -0.0657,0.0378 -0.0937,0.0625 -8.2119,6.86128 -17.80736,12.18441 -27.75,17.375 -0.0127,0.007 -0.0186,0.0246 -0.0312,0.0312 -11.15091,5.68481 -22.54535,10.98405 -34,16.28125 a 5.0005,5.0005 0 0 0 0,0.0312 c -11.15707,5.19385 -22.47514,10.03473 -33.9375,14.46875 a 5.0005,5.0005 0 0 0 -0.0625,0 c -9.20354,3.66927 -18.83276,6.20778 -28.71875,7.96875 -0.0201,0.004 -0.0424,-0.004 -0.0625,0 -8.55791,1.45194 -17.00996,1.71536 -25.21875,0.0937 -3.36512,-1.08524 -4.81235,-2.26145 -5.875,-3.875 -1.08722,-1.65086 -1.85939,-4.26285 -2.34375,-8.15625 -0.20557,-2.62596 -0.74879,-4.97127 -1.6875,-7 -0.19169,-2.28734 -1.13762,-4.41971 -2.84375,-5.875 -1.83613,-1.56616 -4.31463,-2.14146 -6.78125,-1.8125 -2.45892,0.32793 -4.86648,1.56487 -6.625,3.59375 l -0.0312,0 c -8.64309,9.84239 -19.648613,17.63545 -31.03125,25.3125 -0.01929,0.013 -0.04321,0.0182 -0.0625,0.0312 -18.205435,11.86574 -37.364845,22.38979 -56.6875,32.78125 a 5.0005,5.0005 0 0 0 -0.0625,0.0312 c -16.8514,9.48341 -35.276121,16.89468 -52.90625,26.6875 -0.01235,0.007 -0.0189,0.0245 -0.03125,0.0312 -4.021446,2.19576 -8.068063,4.4664 -12.0625,6.875 -6.243065,-0.39459 -12.666974,-0.74618 -19.28125,-0.28125 a 5.0005,5.0005 0 0 0 -0.40625,0.0625 c -2.487095,0.38393 -5.065115,2.25347 -6.03125,4.46875 -0.966135,2.21528 -0.769088,4.23117 -0.3125,5.9375 0.456588,1.70633 1.228142,3.21205 2.46875,4.5625 1.192993,1.29862 3.164924,2.74187 5.90625,2.5625 0.109411,-0.007 0.200586,0.0125 0.3125,0 6.47892,-0.28917 13.235314,0.31529 20.25,0.75 0.02112,10e-4 0.04137,-10e-4 0.0625,0 14.368253,1.04416 28.713686,1.52645 43,1.90625 a 5.0005,5.0005 0 0 0 0.03125,0 c 22.975893,0.46028 45.923335,0.88945 68.84375,1.625 30.52024,1.12344 61.05684,3.30375 91.6875,5.1875 0.0104,6.4e-4 0.0209,-6.4e-4 0.0312,0 40.17582,2.64018 80.36551,2.99545 120.46875,2.75 a 5.0005,5.0005 0 0 0 0.0625,0 c 49.26642,-0.80275 98.48651,-2.10724 147.6875,-2.90625 0.0104,-1.3e-4 0.0208,1.3e-4 0.0312,0 52.10356,-0.64535 104.28613,-0.56349 156.5,-1.5625 a 5.0005,5.0005 0 0 0 0.0312,0 c 31.10493,-0.87863 62.45018,-1.84402 93.65625,-5.8125 16.5133,-2.09999 22.16549,-3.36196 38.0625,-6.28125 a 5.0005,5.0005 0 0 0 0.1875,-0.0312 c 20.72282,-4.65459 10.99049,-2.22453 30.25,-7.40625 l -0.0312,-0.0625 c 1.14005,-0.30992 2.40753,-1.10179 3.09375,-2.25 0.72442,-1.21212 0.85293,-2.54373 0.59375,-3.71875 -0.25918,-1.17502 -0.92603,-2.33005 -2.09375,-3.125 -1.10287,-0.7508 -2.58703,-0.94552 -3.75,-0.75 l 0,-0.0625 c -19.52352,3.37257 -9.47703,1.83885 -30.0625,4.53125 -2.27114,0.22784 -4.54007,0.43917 -6.8125,0.65625 -0.41997,-0.72834 -0.93424,-1.42805 -1.53125,-2.03125 l 0.0312,-0.0312 c -0.0297,-0.0306 -0.0643,-0.063 -0.0937,-0.0937 -2.52074,-2.63245 -4.38012,-6.05082 -6,-9.9375 -2.31165,-6.00274 -3.1125,-12.77528 -3.71875,-19.90625 -7.7e-4,-0.01 7.7e-4,-0.0214 0,-0.0312 -0.43703,-5.63808 -0.19623,-11.90269 -1.46875,-18.5625 a 5.0005,5.0005 0 0 0 -0.0937,-0.40625 c -1.11314,-3.9685 -3.90642,-7.49924 -8.03125,-8.28125 -1.53655,-0.29131 -3.04958,-0.12659 -4.46875,0.34375 0.99397,-1.25665 1.85345,-2.5131 2.65625,-3.6875 0.012,-0.0176 0.0194,-0.045 0.0312,-0.0625 2.35736,-3.32173 5.07999,-6.58548 7.8125,-10.0625 a 5.0005,5.0005 0 0 0 0.0312,-0.0312 c 7.23564,-9.43903 13.85502,-19.21695 20.46875,-28.84375 a 5.0005,5.0005 0 0 0 0.0312,0 c 7.29509,-10.7355 14.70812,-21.38499 22.375,-31.8125 a 5.0005,5.0005 0 0 0 0.40625,-0.65625 c 0.44872,-0.86958 2.34472,-3.22425 4.34375,-5.625 1.99903,-2.40075 4.22982,-4.79089 5.34375,-8.4375 0.55463,-1.81568 0.52256,-3.03793 0.59375,-3.5 a 5.0005,5.0005 0 0 0 -0.75,-3.46875 c -0.29863,-0.46423 -0.79399,-2.61863 -3.3125,-4.8125 -2.73585,-2.38323 -5.82015,-2.54005 -8.15625,-2.5 -2.3361,0.0401 -4.37526,0.40488 -5.28125,0.46875 -3.95598,0.2789 -3.95392,0.18393 -8,0.125 -2.33371,-0.25649 -3.18356,-0.28373 -3.4375,-0.375 0.0731,-0.25859 0.17994,-0.4894 0.25,-0.75 a 5.0005,5.0005 0 0 0 0.0312,-0.1875 c 0.44056,-1.92319 1.10888,-4.34553 0.4375,-7.40625 -0.67138,-3.06072 -3.91209,-6.3326 -7.625,-7.0625 A 5.0005,5.0005 0 0 0 722.6562,728.9687 5.0005,5.0005 0 0 0 722.1875,729 c -3.37129,0.32119 -5.93618,1.49257 -8.03125,2.3125 -0.10258,0.0402 -0.24365,0.0867 -0.34375,0.125 l 0.0312,0.0625 c -1.99212,0.69452 -3.80641,2.09118 -4.71875,3.90625 -0.96512,1.92008 -1.01766,4.03696 -0.46875,5.875 0.49318,1.65143 1.57229,3.1412 3.125,4.21875 -1.0598,2.59536 -2.20298,5.21291 -3.40625,7.90625 -0.01,0.0217 -0.0216,0.0408 -0.0312,0.0625 -4.90454,10.45679 -10.02566,20.90067 -14.90625,31.53125 -0.006,0.0127 -0.0254,0.0186 -0.0312,0.0312 -4.96217,10.69846 -9.19089,21.64171 -13.0625,32.65625 a 5.0005,5.0005 0 0 0 -0.0312,0.0625 c -2.36288,6.95302 -4.74951,14.08706 -6.3125,21.65625 a 5.0005,5.0005 0 0 0 -0.0312,0.21875 c -0.45338,2.75393 -0.67273,5.94565 0.78125,9.28125 1.45398,3.3356 5.77428,6.22779 10.25,5.9375 1.93109,-0.12525 3.03766,-0.65222 3.5625,-1 -0.40456,0.95187 -0.66854,1.88527 -0.875,2.8125 -4.21175,0.17011 -8.715,-0.30106 -13.5,-0.84375 -8.37348,-0.9527 -16.73081,-2.18949 -25.125,-3.46875 0.12911,-0.10579 0.27831,-0.20639 0.40625,-0.3125 a 5.0005,5.0005 0 0 0 0.0937,-0.0937 c 5.75416,-5.00075 8.9009,-11.47825 10.84375,-18.0625 a 5.0005,5.0005 0 0 0 0.0937,-0.25 c 1.89095,-8.00896 1.71727,-15.82831 2.03125,-23 a 5.0005,5.0005 0 0 0 0.0312,-0.0937 c 0.1252,-6.07639 1.35906,-12.15734 3.15625,-18.28125 1.87826,-5.67642 4.148,-11.34894 6.375,-17.1875 0.004,-0.009 -0.004,-0.0219 0,-0.0312 2.12662,-5.50126 4.03594,-11.16387 5.46875,-17 1.32394,-5.49118 0.99937,-11.56321 -2.3125,-16.84375 -0.0159,-0.0279 -0.0464,-0.035 -0.0625,-0.0625 -0.031,-0.0489 -0.031,-0.10745 -0.0625,-0.15625 L 675.09375,741 c -1.83843,-3.00499 -4.91683,-3.86758 -6.40625,-4.25 -0.57671,-0.14807 -0.76719,-0.2077 -0.96875,-0.28125 -0.0318,-0.0701 -0.0275,-0.0453 -0.0625,-0.125 l -0.0937,0.0312 c -0.42521,-0.93303 -1.06706,-1.86408 -2,-2.40625 -0.61051,-0.35479 -1.2746,-0.57171 -1.90625,-0.65625 -0.63165,-0.0845 -1.25771,-0.0431 -1.84375,0.0937 -1.17209,0.27393 -2.28242,0.97887 -3.0625,2.15625 -0.6155,0.92899 -0.80342,2.10736 -0.75,3.15625 l -0.0937,0 c 0.004,0.06 -0.004,0.12716 0,0.1875 -3.05287,-1.06097 -6.02399,-2.28224 -8.875,-3.71875 -0.008,-0.004 -0.0237,0.004 -0.0312,0 -3.65696,-1.87506 -7.04388,-4.74338 -10.59375,-7.9375 -0.0217,-0.0202 -0.0408,-0.0423 -0.0625,-0.0625 -3.93717,-3.66264 -7.50413,-7.62009 -10.5625,-11.9375 -0.008,-0.0113 -0.0235,-0.02 -0.0312,-0.0312 -2.09663,-3.02639 -3.18714,-6.73326 -3.9375,-11.03125 -0.006,-0.0343 -0.0254,-0.0594 -0.0312,-0.0937 -0.44454,-4.28411 -1.16095,-9.0508 -3.90625,-13.59375 a 5.0005,5.0005 0 0 0 -0.21875,-0.34375 c -1.99529,-2.75404 -5.00344,-4.71178 -8.21875,-5.125 -3.21531,-0.41322 -6.289,0.59235 -8.875,2.25 a 5.0005,5.0005 0 0 0 -0.53125,0.40625 c -1.99383,1.70614 -4.04069,3.12971 -6.28125,4.28125 -0.008,0.004 -0.0236,-0.004 -0.0312,0 -3.78415,1.90058 -8.00328,2.98617 -12.53125,3.59375 -0.0112,10e-4 -0.0201,-10e-4 -0.0312,0 -3.34324,0.30987 -6.20334,-0.22792 -8.8125,-1.625 1.40711,-2.69262 3.70373,-5.33092 6.4375,-8.21875 0.0102,-0.0105 0.0212,-0.0208 0.0312,-0.0312 4.01543,-4.15639 8.6783,-7.79199 13.65625,-11.21875 4.22256,-2.7605 8.83808,-5.2945 13.5,-8.125 0.0536,-0.03 0.10288,-0.0635 0.15625,-0.0937 3.5625,-2.01997 6.66393,-4.56979 9.375,-7.46875 a 5.0005,5.0005 0 0 0 0.0937,-0.125 c 2.86462,-3.22877 4.47712,-7.15336 5.03125,-11.1875 a 5.0005,5.0005 0 0 0 0.0625,-0.34375 c 0.22444,-3.10645 -0.94247,-6.1305 -2.59375,-8.125 -1.64436,-1.98615 -3.54174,-3.16238 -5.21875,-4.125 -0.007,-0.004 -0.0239,0.004 -0.0312,0 -4.44765,-2.56486 -8.7339,-5.80025 -13.1875,-9.125 l 0,0.0312 c -8.39069,-6.32901 -16.86706,-12.59824 -25.5625,-18.625 -7.03613,-4.87622 -14.10042,-9.37998 -20.6875,-14.25 a 5.0005,5.0005 0 0 0 -0.0625,-0.0625 c -3.25198,-2.32098 -6.44947,-5.20194 -10,-8.09375 -0.0483,-0.0423 -0.10774,-0.0828 -0.15625,-0.125 -1.97446,-1.71829 -4.11164,-3.39214 -6.5625,-4.8125 a 5.0005,5.0005 0 0 0 -0.15625,-0.0625 c -4.87405,-2.62312 -10.89168,-1.46837 -14.71875,1.75 a 5.0005,5.0005 0 0 0 -0.65625,0.65625 c -2.64769,3.21467 -3.83079,6.36746 -5.15625,8.4375 a 5.0005,5.0005 0 0 0 -0.0312,0.0625 c -1.2399,1.9752 -2.9349,3.74906 -4.9375,5.46875 -0.31289,-0.009 -0.60722,-0.0176 -0.90625,0 -1.1961,0.0706 -2.26982,0.33726 -3.15625,0.59375 -1.16988,0.3385 -2.05239,0.65927 -2.75,0.90625 -6.30669,-3.70201 -12.73232,-6.83566 -18.84375,-10.09375 -5.30257,-3.51056 -10.68236,-5.70552 -15.0625,-8.25 0.82806,-2.18099 0.89557,-4.6279 0.0937,-6.65625 -0.8867,-2.24308 -2.59462,-3.88997 -4.5625,-4.8125 -0.98394,-0.46127 -2.06769,-0.75777 -3.1875,-0.84375 -0.27995,-0.0215 -0.5585,-0.005 -0.84375,0 z m 4.375,30.15625 c 3.28481,2.64584 6.8045,4.87741 10.21875,6.8125 a 5.0005,5.0005 0 0 0 0.0312,0.0312 c 6.46447,3.58106 12.94989,6.74339 19.125,10.15625 0.0839,0.0463 0.16625,0.10981 0.25,0.15625 0.42247,0.28098 0.95661,0.6678 1.5,1.0625 -5.19059,7.62655 -11.13818,14.87491 -17.28125,22.09375 -0.01,0.0113 -0.0217,0.02 -0.0312,0.0312 -3.96502,4.60195 -8.1494,9.00128 -12.53125,13.21875 l 0.0312,0.0312 c -4.11846,3.80788 -4.82456,9.44743 -4.0625,13.78125 a 5.0005,5.0005 0 0 0 0.0625,0.25 c 1.22047,5.24409 3.0532,10.12418 4.84375,14.78125 a 5.0005,5.0005 0 0 0 0.0312,0.0625 c 2.22926,5.59334 4.73717,10.96703 7.21875,16.25 0.004,0.009 -0.004,0.0225 0,0.0312 1.46626,3.17887 2.75154,6.40226 3.8125,9.6875 0.009,0.0313 0.0218,0.0625 0.0312,0.0937 0.66451,2.1943 1.36356,4.39491 3.15625,6.4375 1.81829,2.07176 4.46006,3.27809 7.28125,3.90625 a 5.0005,5.0005 0 0 0 1.5625,0.0937 c 6.15403,-0.57804 10.9969,-3.34807 15.0625,-5.09375 a 5.0005,5.0005 0 0 0 0.0312,-0.0312 c 3.84516,-1.68017 7.84411,-3.13309 11.8125,-4.625 -0.87017,5.4805 -1.71986,10.94572 -2.6875,16.34375 a 5.0005,5.0005 0 0 0 0,0.0937 c -0.86519,5.46122 -2.44944,11.19029 -3.46875,17.375 a 5.0005,5.0005 0 0 0 -0.0625,0.375 c -0.15921,1.84532 -0.12278,3.50335 0.34375,5.21875 0.46653,1.7154 1.56933,3.46643 2.9375,4.53125 2.59381,2.01871 4.77834,2.11698 6.75,2.53125 5.00343,1.9752 9.93239,5.00826 15.15625,8.09375 0.0123,0.007 0.019,0.024 0.0312,0.0312 9.09104,5.45169 18.03567,11.17327 26.78125,17.15625 a 5.0005,5.0005 0 0 0 0.375,0.21875 c 0.34663,0.19543 2.75129,2.11096 5.28125,3.8125 2.52996,1.70154 5.64144,4.15808 10.4375,2.8125 2.86982,-0.80517 4.16316,-2.21965 4.59375,-2.46875 a 5.0005,5.0005 0 0 0 2.0625,-2.3125 c 0.2486,-0.55947 0.86043,-1.55547 1.375,-3.15625 1.0762,-3.34797 0.90055,-6.24708 1.125,-7.875 0.4988,-3.6179 0.42886,-2.90759 1.125,-6.53125 0.02,-0.10393 0.01,-0.076 0.0312,-0.1875 2.42109,-10.49958 4.60254,-20.89206 7.375,-31.03125 l 0.0312,-0.0625 1.625,-5.625 -0.0937,-0.0312 c 0.29208,-1.04972 0.36098,-2.29274 -0.0937,-3.375 -0.54707,-1.30189 -1.52456,-2.2 -2.625,-2.6875 -1.10044,-0.4875 -2.41818,-0.62583 -3.75,-0.15625 -1.1147,0.39302 -2.01409,1.29032 -2.59375,2.21875 l -0.0937,-0.0625 -3.09375,5.09375 c -5.78662,9.58705 -12.16833,19.82796 -14.625,32.125 -0.005,0.0229 -0.0267,0.0396 -0.0312,0.0625 l 0.0312,0 c -0.17322,0.82735 -0.27745,1.67199 -0.4375,2.5 -8.33535,-5.63771 -16.77408,-11.13982 -25.40625,-16.3125 a 5.0005,5.0005 0 0 0 -0.0312,0 c -4.6385,-2.73783 -9.53862,-5.91117 -15.125,-8.3125 0.75229,-3.56485 1.50843,-7.0099 2.09375,-10.90625 l 0.0312,0 c 0.005,-0.0323 -0.005,-0.0615 0,-0.0937 1.19904,-7.09711 2.22334,-14.16748 3.28125,-21.1875 0.003,-0.0202 -0.003,-0.0423 0,-0.0625 0.12592,-0.72998 0.61406,-2.66766 1,-4.71875 0.39084,-2.0771 1.04449,-4.0816 0.0625,-7.21875 -0.66944,-2.13866 -1.59984,-3.15987 -1.78125,-3.5 a 5.0005,5.0005 0 0 0 -1.90625,-2 c -0.30675,-0.17487 -1.23342,-1.02569 -3.125,-1.71875 -3.13536,-1.14876 -5.97204,-0.51275 -8.0625,0.0937 -2.09046,0.60655 -3.78926,1.27142 -4.53125,1.4375 a 5.0005,5.0005 0 0 0 -0.53125,0.15625 c -6.38021,2.18615 -12.62386,4.65108 -18.78125,7.3125 -1.36231,0.58495 -2.79799,1.21346 -4.21875,1.8125 -0.9686,-2.61046 -1.8915,-5.22414 -3.125,-7.84375 -0.0139,-0.0307 -0.0174,-0.063 -0.0312,-0.0937 -2.34211,-5.18546 -4.74191,-10.19431 -6.71875,-15.1875 -0.008,-0.022 -0.0229,-0.0405 -0.0312,-0.0625 -1.41386,-3.67161 -2.68731,-7.2392 -3.625,-10.78125 4.07964,-4.10325 8.27389,-8.2706 12.1875,-12.90625 0.0147,-0.0174 0.0167,-0.0451 0.0312,-0.0625 7.04567,-8.15987 13.98418,-16.63214 20,-25.90625 a 5.0005,5.0005 0 0 0 0.0625,-0.0937 c 0.83454,-1.35387 2.73101,-4.1372 4.375,-7.1875 0.58442,-1.08434 1.19591,-2.17383 1.71875,-3.34375 A 5.0005,5.0005 0 0 0 522,612.59375 c 4.2229,-3.29094 8.28698,-7.10985 11.5,-11.9375 a 5.0005,5.0005 0 0 0 0.0625,-0.0937 c 0.16106,-0.25372 0.30633,-0.55571 0.46875,-0.8125 3.26141,2.87897 6.60661,5.78533 10.3125,8.4375 a 5.0005,5.0005 0 0 0 0.0312,0.0312 c 7.06257,4.95642 14.26171,9.46706 21.1875,14.15625 l -0.0312,0.0312 c 8.48282,5.87795 16.83585,11.92329 25.0625,18.15625 a 5.0005,5.0005 0 0 0 0.0937,0.0312 c 3.53978,2.59033 7.23744,5.26394 11.15625,7.78125 -0.944,0.7599 -1.99774,1.50058 -3.21875,2.28125 -0.0265,0.0169 -0.0359,0.0455 -0.0625,0.0625 -4.64465,2.82635 -9.43703,5.63997 -14.15625,8.8125 a 5.0005,5.0005 0 0 0 -0.0625,0.0312 c -5.82736,4.01794 -11.47909,8.49043 -16.5625,13.75 a 5.0005,5.0005 0 0 0 -0.0312,0.0312 c -4.12518,4.37756 -9.02695,9.4624 -11.1875,16.75 a 5.0005,5.0005 0 0 0 -0.15625,0.71875 c -0.51967,3.57045 -0.34037,7.08067 1.03125,10.28125 1.37162,3.20058 3.84408,5.78581 6.875,7.875 a 5.0005,5.0005 0 0 0 0.40625,0.25 c 6.30982,3.51216 13.35123,4.89605 20.53125,4.09375 a 5.0005,5.0005 0 0 0 0.125,0 c 6.26475,-0.8661 12.59882,-2.47929 18.5625,-5.5 a 5.0005,5.0005 0 0 0 0.125,-0.0625 c 0.68813,-0.37678 1.37314,-0.84272 2.0625,-1.25 0.0459,0.25429 0.0417,0.388 0.0937,0.65625 0.008,0.0395 0.0235,0.054 0.0312,0.0937 1.10781,6.17509 2.99797,12.52207 6.96875,18.21875 a 5.0005,5.0005 0 0 0 0.0312,0.0625 c 3.84909,5.39028 8.24388,10.34277 13.0625,14.84375 4.27473,3.94284 8.99829,7.91117 14.71875,10.8125 a 5.0005,5.0005 0 0 0 0.0937,0.0625 c 4.24776,2.03694 8.68287,3.85675 13.375,5.21875 a 5.0005,5.0005 0 0 0 0.0625,0 c 1.33102,0.36956 2.70476,0.7132 4.125,1 -1.05836,3.68004 -2.34009,7.33454 -3.75,11 a 5.0005,5.0005 0 0 0 -0.0312,0 c -2.25358,5.90945 -4.72316,11.95453 -6.75,18.34375 a 5.0005,5.0005 0 0 0 -0.0625,0.0937 c -2.15322,7.36212 -3.68336,15.0339 -3.8125,23.03125 -5.1e-4,0.0316 4.7e-4,0.0622 0,0.0937 -0.22339,6.81526 -0.1176,13.22851 -1.28125,19.0625 -1.13169,3.95607 -2.5915,6.94541 -5.1875,9.21875 -2.56677,2.24409 -5.18418,3.92907 -7.96875,4.78125 -0.0218,0.007 -0.0407,0.0248 -0.0625,0.0312 -3.14909,0.89516 -6.33485,1.36297 -9.5,1.3125 -0.0195,-5e-4 -0.043,5.3e-4 -0.0625,0 -2.55359,-0.0692 -5.27221,-0.3523 -8.15625,-0.59375 a 5.0005,5.0005 0 0 0 -5.21875,3.625 c -0.61538,2.17929 -1.73485,4.83144 -2.28125,8.1875 -0.35447,2.17701 0.62421,3.43156 1.09375,4 0.46954,0.56844 0.76642,0.77028 1,0.9375 0.46715,0.33444 0.73488,0.4473 0.96875,0.5625 0.46774,0.2304 0.84593,0.39448 1.28125,0.5625 0.87064,0.33603 1.86594,0.68503 2.90625,1.03125 1.04031,0.34622 2.10762,0.6785 2.9375,0.9375 0.78578,0.24524 1.00062,0.32452 1.6875,0.5 0.0317,0.009 0.0621,0.0226 0.0937,0.0312 8.48299,2.31161 17.10106,4.09928 25.78125,5.40625 0.0101,0.002 0.0212,-0.002 0.0312,0 9.92088,1.53605 19.88858,2.9064 29.875,4.0625 a 5.0005,5.0005 0 0 0 0.0625,0 c 5.83889,0.60083 12.14576,1.46294 18.875,0.71875 a 5.0005,5.0005 0 0 0 0.21875,-0.0312 c 0.0791,-0.0119 0.20001,-0.0504 0.28125,-0.0625 0.0423,0.61524 0.0312,1.15291 0.0937,1.78125 0.003,0.0404 -0.003,0.0846 0,0.125 0.62791,8.17974 1.62593,16.74011 4.9375,25.0625 a 5.0005,5.0005 0 0 0 0.0625,0.15625 c 1.02914,2.35569 2.18947,4.74018 3.5625,7.0625 -34.24997,2.79363 -68.6303,4.43016 -103,5.125 -0.0104,2.1e-4 -0.0208,-2.1e-4 -0.0312,0 -52.0841,0.75718 -104.20663,0.56613 -156.40625,1.15625 a 5.0005,5.0005 0 0 0 -0.0312,0 c -49.24133,0.72528 -98.43616,2.04102 -147.59375,2.75 -0.0208,1.3e-4 -0.0417,-1.3e-4 -0.0625,0 C 253.37412,917.77518 213.60689,917.38445 174,914.75 a 5.0005,5.0005 0 0 0 -0.0312,0 c -30.64728,-1.88449 -61.34423,-4.10326 -92.1875,-5.25 a 5.0005,5.0005 0 0 0 -0.03125,0 c -23.020552,-0.73845 -46.021818,-1.14431 -69,-1.53125 -0.01043,-2.8e-4 -0.02082,2.8e-4 -0.03125,0 -3.7210888,-0.0989 -7.4464514,-0.1979 -11.15625,-0.3125 13.301795,-5.71297 25.950644,-12.53494 38.5,-19 a 5.0005,5.0005 0 0 0 0.09375,-0.0625 C 59.804144,878.02653 79.513666,867.2635 98.375,854.875 a 5.0005,5.0005 0 0 0 0.0625,-0.0625 c 7.68712,-5.23884 15.48203,-10.67252 22.71875,-16.96875 3.38231,8.80837 10.90929,14.88726 19.84375,17.40625 a 5.0005,5.0005 0 0 0 0.375,0.0937 c 10.84281,2.18266 21.74504,1.96544 32.4375,0.0937 10.95227,-1.96265 21.77557,-4.81888 32.25,-8.96875 0.0127,-0.005 0.0187,-0.0263 0.0312,-0.0312 11.84248,-4.58514 23.49217,-9.61832 34.96875,-14.9375 0.008,-0.004 0.0229,0.004 0.0312,0 11.60531,-5.36716 23.23747,-10.84915 34.71875,-16.6875 a 5.0005,5.0005 0 0 0 0.0625,0 c 10.73203,-5.60772 21.6496,-11.63866 31.375,-19.84375 a 5.0005,5.0005 0 0 0 0.0937,-0.0937 c 8.55336,-7.56929 16.39996,-16.00327 22.71875,-25.875 0.005,-0.007 -0.005,-0.024 0,-0.0312 5.55267,-8.58561 10.732,-17.47803 15.25,-26.75 a 5.0005,5.0005 0 0 0 0,-0.0312 c 3.89457,-8.14251 7.60135,-16.59608 10.09375,-25.65625 a 5.0005,5.0005 0 0 0 0.0312,-0.0625 c 2.00315,-7.67977 3.77036,-15.7526 3.78125,-24.28125 a 5.0005,5.0005 0 0 0 0,-0.15625 c -0.0226,-0.77867 -0.0504,-1.57998 -0.0937,-2.375 9.24784,7.65472 19.66638,10.82601 31.59375,10.125 a 5.0005,5.0005 0 0 0 0.625,-0.0937 c 1.65238,-0.3097 3.78531,-0.48347 6.21875,-1.15625 12.28271,-3.3958 21.5013,-11.87531 29.125,-20.21875 a 5.0005,5.0005 0 0 0 0.15625,-0.15625 c 9.59402,-11.44588 18.08704,-23.81363 25.0314,-37.1564 5.29883,-10.27638 10.3772,-20.98268 13.59375,-32.59375 a 5.0005,5.0005 0 0 0 0,-0.0312 c 0.99948,-3.71562 1.87831,-7.45537 2.65625,-11.25 z M 727,754.375 c 0.74328,0.41557 1.3518,0.89032 4,2.25 a 5.0005,5.0005 0 0 0 0.46875,0.21875 c 4.5122,1.74051 4.69031,1.7142 5.59375,2 -0.95142,1.24432 -1.86945,2.39421 -2.8125,3.71875 -0.0227,0.032 -0.0398,0.0617 -0.0625,0.0937 -7.79226,10.6027 -15.34369,21.39571 -22.71875,32.25 -2.76986,4.07976 -5.54966,8.12821 -8.34375,12.15625 1.95959,-4.9624 4.02869,-9.88375 6.25,-14.71875 4.83636,-10.53775 9.96953,-21.00598 14.90625,-31.65625 a 5.0005,5.0005 0 0 0 0.0312,-0.0937 c 0.90059,-2.01788 1.80189,-4.10637 2.6875,-6.21875 z"
           transform="translate(-18,-107.63782)"
           id="path6268"
           inkscape:connector-curvature="0" />
        <path
           style="color:#000000;fill:#000000;fill-opacity:1;fill-rule:nonzero;stroke:none;stroke-width:2;marker:none;visibility:visible;display:inline;overflow:visible;enable-background:accumulate"
           id="path8310"
           d="m 535.09272,1135.9319 c -4.69469,1.3185 -8.80322,3.6946 -12.62356,6.6394 -0.0646,-0.9061 -1.18359,1.5172 -1.40127,0.9886 -2.27942,-5.5348 -2.5726,-4.838 0.9155,-5.9697 0.80228,-0.2603 1.60376,-0.5231 2.40564,-0.7846 6.002,-1.9505 12.08284,-3.618 18.25263,-4.941 1.13584,-0.2082 7.22598,-1.5406 7.96435,0.057 1.91122,4.1342 0.83411,4.1012 -1.4984,6.0824 -5.89708,3.1575 -11.87485,6.1574 -17.70791,9.4372 -3.14308,1.8571 -6.28978,3.7138 -9.36048,5.6897 -1.36296,0.8771 -3.09043,1.837 -4.21153,3.0582 -0.0913,-1.5056 -0.18255,-3.0111 -0.27383,-4.5167 -0.23038,-0.2202 -0.92068,-0.4396 -0.69115,-0.6608 0.55852,-0.538 1.46269,-0.5163 2.19065,-0.7838 1.05029,-0.386 2.09655,-0.7828 3.14397,-1.1765 5.37258,-2.0192 2.0745,-0.8185 7.75488,-2.8348 7.13088,-2.4476 14.40598,-4.477 21.77415,-6.0712 2.60155,-0.4193 5.81932,-1.3997 6.19918,3.4119 0.19286,2.4428 -6.17033,4.4112 -7.63295,5.0323 -9.26377,3.8558 -18.27892,8.2717 -27.33051,12.5933 -7.16754,3.7118 -14.7151,6.8267 -21.58783,11.092 6.96582,-2.9508 -1.37691,-3.9249 -0.57169,-5.6311 0.4464,-0.9459 1.98422,-0.6628 2.97121,-1.0091 5.07269,-1.7797 10.08801,-3.7198 15.11983,-5.6106 12.59758,-4.7754 25.27462,-9.3376 37.99785,-13.7663 1.47924,-0.4983 2.95263,-1.0144 4.43771,-1.495 1.1266,-0.3646 2.26067,-0.7061 3.39662,-1.0405 3.00106,-0.8833 5.92801,-2.0991 6.63486,3.4134 0.13427,1.0471 -1.42541,1.5576 -2.13812,2.3364 -7.85904,5.113 -16.50331,8.8883 -25.04351,12.6961 -13.17952,5.6926 -26.60938,10.7748 -39.85142,16.3177 -1.57163,0.7011 -3.14852,1.3905 -4.71489,2.1033 -1.18811,0.5407 -2.37424,1.0862 -3.54824,1.6568 -0.73908,0.3593 -1.47425,0.7284 -2.1899,1.1323 -0.18617,0.1051 -0.44731,0.5956 -0.50854,0.3907 -1.69062,-5.6553 -2.65185,-4.8899 0.0138,-5.9261 10.82978,-3.313 21.57094,-6.9021 32.40607,-10.2032 13.02802,-3.7074 26.03185,-7.5046 39.07567,-11.156 3.27127,-0.7244 6.46589,-2.0228 9.81543,-2.4135 0.53238,-0.062 1.22628,-0.3965 1.60784,-0.02 4.18118,4.1249 3.08228,3.6985 0.32343,6.7391 -9.44806,5.4613 -19.55448,9.6982 -29.45889,14.2506 -13.61566,6.1826 -26.81464,13.199 -39.7979,20.6027 -3.30726,1.9525 -6.6596,3.8371 -9.86521,5.9565 -0.32789,0.2168 -0.85173,1.059 -0.96219,0.6818 -1.90167,-6.4946 1.46609,-4.1351 -1.35647,-5.8054 8.06959,-3.6 16.23779,-6.957 24.49117,-10.1115 11.67418,-4.3983 23.56474,-8.1845 35.54294,-11.6574 6.96711,-1.8442 13.77551,-4.4749 20.92507,-5.5591 4.19256,0.041 5.44902,2.2812 3.00504,6.0994 -1.01619,1.5876 -8.06622,4.808 -9.59112,5.5822 -14.27906,6.6565 -28.76935,12.8485 -43.17464,19.2249 -6.64905,2.9455 -13.21137,6.0803 -19.82631,9.1004 -2.89249,1.3205 -5.75521,2.6734 -8.78668,3.6389 -1.1352,-1.6842 -3.2272,-3.0293 -3.4056,-5.0524 -0.10151,-1.1511 1.79779,-1.4617 2.7771,-2.0752 1.41573,-0.8869 6.57342,-3.2971 7.70865,-3.8148 4.93862,-2.2525 6.79208,-2.9654 11.95399,-5.1075 14.09475,-5.7378 28.52526,-10.5878 43.00569,-15.2448 4.46219,-1.3107 8.87248,-2.8655 13.42634,-3.8496 0.36709,-0.079 3.69841,-0.7818 4.36769,-0.3415 1.13801,0.7489 1.85212,1.9983 2.77818,2.9974 -0.53038,1.1618 -0.84805,2.4467 -1.59114,3.4854 -0.42905,0.5997 -4.38005,3.301 -4.76855,3.5662 -3.62984,2.4788 -7.34496,4.8236 -11.06794,7.1584 -7.31664,4.5089 -14.73407,8.8489 -22.13496,13.2169 -0.46153,0.2927 -0.92306,0.5855 -1.38459,0.8782 0.0946,-0.053 0.31621,-0.056 0.28367,-0.1595 -0.54963,-1.7479 -1.74471,-3.3187 -1.9499,-5.1396 -0.052,-0.4614 0.88283,-0.2883 1.32086,-0.4424 1.85549,-0.6525 3.63372,-1.3216 5.48186,-2.0066 5.10874,-1.8536 10.27932,-3.6824 15.66696,-4.5189 0.61062,0.083 1.38969,-0.18 1.83187,0.2493 1.01588,0.9861 1.97149,2.2448 2.18006,3.6451 0.27639,1.8557 -5.03199,6.0908 -6.26014,7.1711 -3.36153,3.1062 -7.289,5.6286 -10.44064,8.9601 1.39175,-1.2717 0.4868,-0.252 -1.15568,-4.3569 -0.0471,-0.1177 -0.3452,-0.2224 -0.24084,-0.2944 0.57218,-0.3948 4.29053,-1.5508 5.10932,-1.8603 1.92364,-0.6889 7.53477,-3.1341 9.13747,-0.6186 0.69125,1.085 0.49153,2.5256 0.73729,3.7883 -0.40521,0.6579 -0.74727,1.3592 -1.21562,1.9737 -0.55086,0.7228 -2.3697,2.4032 -3.0221,3.011 -1.48949,1.3878 -2.96788,2.7686 -4.40188,4.2143 -0.38338,0.4057 -0.774,0.8047 -1.15015,1.2171 -0.29263,0.3208 -0.59056,0.6383 -0.85577,0.9822 -0.10879,0.141 -0.33256,0.6294 -0.26133,0.4661 0.11711,-0.2685 0.5122,-0.5124 0.39942,-0.7827 -1.25971,-3.0192 -1.03314,-2.8209 -2.53833,-3.5181 2.81523,-1.4699 5.62082,-2.954 8.49645,-4.3049 3.62693,-1.2114 5.09874,0.029 4.91215,4.4304 -0.0422,0.9947 -3.78097,4.4515 -4.48946,5.1373 -3.7059,3.5555 -7.58269,6.9251 -11.36156,10.4017 -0.26331,0.2878 -0.40022,0.8467 -0.78994,0.8634 -0.3464,0.015 0.73183,-0.5376 0.5924,-0.855 -0.62655,-1.4265 -2.18947,-2.3593 -2.65696,-3.8455 -0.14035,-0.4462 0.83313,-0.4259 1.24194,-0.6531 2.66834,-1.4835 2.60755,-1.4984 5.38991,-3.2338 5.31075,-3.0709 10.25601,-6.9263 15.94812,-9.2907 1.01635,0.1391 2.52027,-0.4616 3.04906,0.4174 2.28845,3.8042 0.53718,5.3214 -1.53314,7.5129 -0.83494,0.8837 -1.71512,1.724 -2.59468,2.5634 -1.97498,1.8848 -4.68899,4.3095 -6.69131,6.1184 -6.53255,5.8555 -13.12281,11.6666 -19.13655,18.0623 -0.35084,0.4503 -0.55239,1.0757 -1.05252,1.3508 -0.37391,0.2058 0.79937,-0.7263 0.62654,-1.1164 -0.58917,-1.3302 -2.40763,-2.0302 -2.65527,-3.4637 -0.12193,-0.7058 1.2551,-0.6909 1.87582,-1.0484 3.45017,-1.987 3.55855,-2.0936 7.17426,-4.3204 7.98354,-5.0819 16.31406,-9.5958 25.00729,-13.3349 3.31354,-1.2625 8.46615,-3.4717 9.67356,2.1463 0.39084,1.8186 -2.04781,4.2337 -3.01124,5.3873 -5.44955,5.2495 -11.10035,10.2803 -16.54362,15.5379 -0.75455,0.7511 -1.51724,1.4941 -2.26365,2.2533 -3.13177,3.1854 -0.59268,0.5708 -2.61453,2.9018 -0.16011,0.1846 0.56239,-0.3705 0.44329,-0.5839 -2.63872,-4.7276 -4.51052,-2.9416 -1.98485,-4.6823 5.7492,-4.154 11.53757,-8.225 17.69908,-11.7474 3.65749,-1.8853 10.39893,-5.3252 11.42662,1.5763 0.14585,0.9795 -0.56808,1.8973 -0.85212,2.8459 -3.36764,5.5424 -7.74738,10.4029 -11.97333,15.2998 -2.93595,3.3522 -1.7368,4.5771 -4.98366,-1.6598 -0.11667,-0.2241 0.40904,-0.2976 0.62461,-0.4294 0.60234,-0.3684 1.21857,-0.7135 1.82785,-1.0702 3.40405,-1.7996 6.77697,-4.2648 10.67682,-4.8809 0.57822,-0.091 1.16903,-0.064 1.75354,-0.096 0.74154,0.2732 1.66484,0.2618 2.22463,0.8196 3.43071,3.4187 0.0461,7.5104 -1.95412,10.5321 -0.97629,1.3837 -1.98036,2.761 -2.88227,4.1957 -0.10789,0.1716 -0.28982,0.7434 -0.27761,0.541 0.19578,-3.2451 1.73135,-0.3741 -2.55822,-4.19 2.42989,-2.0743 5.11671,-3.9964 7.91889,-5.5692 3.68394,-1.2883 5.47515,0.01 5.70234,4.0891 0.10451,1.878 -2.44697,5.0662 -3.50618,6.3845 -1.22461,2.0011 -3.57573,3.6226 -4.98104,5.4239 -0.26286,0.337 -0.37479,0.7682 -0.56218,1.1522 -0.0558,0.1144 -0.21759,0.035 -0.16177,-0.079 l 0,0 c 1.24516,-2.5518 1.01346,-5.5625 1.96614,-8.2433 0.4075,-2.4169 0.28351,-2.12 0.90378,-4.2976 0.0867,-0.3042 0.0155,-1.0428 0.2983,-0.901 0.61168,0.3069 0.61507,1.3211 1.21067,1.6581 0.58721,0.3323 2.9829,0.5315 2.015,0.1921 -3.47806,1.7344 -6.03819,4.9086 -9.73147,6.2705 -1.41242,-0.7814 -3.19306,-1.1133 -4.23726,-2.3442 -1.29443,-1.5259 2.93117,-6.6229 3.68165,-7.8019 0.26766,-0.3858 2.05543,-3.415 2.33594,-3.6153 0.0621,-0.044 1.60518,2.7296 2.64418,1.9215 -2.30303,-0.5319 -7.3212,3.2292 -9.35184,4.2024 -0.17376,0.101 -3.95641,2.3793 -4.26814,2.2407 -6.91001,-3.0728 -3.91192,-5.1096 -1.08268,-8.5484 3.80178,-4.4048 7.73449,-8.737 11.01943,-13.5507 1.26085,-0.5622 -0.45902,0.058 2.10511,1.515 0.31426,0.1786 0.71958,-0.069 1.07924,-0.1051 0.27847,-0.028 -0.56655,0 -0.83567,0.081 -0.60436,0.1723 -1.18915,0.4109 -1.76563,0.6612 -0.80988,0.3515 -1.59305,0.7617 -2.38957,1.1425 -6.16268,3.5094 -11.89604,7.6456 -17.68041,11.7367 -3.3584,1.7746 -3.42318,2.7624 -7.06328,-2.2468 -0.58383,-0.8035 3.45378,-4.7801 3.78528,-5.1171 0.76828,-0.7811 1.55326,-1.5455 2.32988,-2.3183 5.30944,-5.1269 10.80297,-10.0559 16.11093,-15.1831 0.3963,-0.4321 0.65076,-1.0636 1.18889,-1.2964 0.22012,-0.095 0.15887,0.4727 0.33275,0.6379 0.76229,0.7243 1.565,1.4167 2.44132,1.9978 0.0991,0.066 0.43171,-0.1811 0.31319,-0.171 -0.46643,0.04 -0.93008,0.1315 -1.37974,0.2617 -0.80884,0.2341 -1.59096,0.5523 -2.38644,0.8284 -8.42438,3.6123 -16.48928,7.9589 -24.23901,12.8572 -1.23556,0.7605 -6.14854,3.814 -7.58803,4.5931 -0.99602,0.539 -1.94489,1.65 -3.06302,1.4701 -6.83095,-1.0992 -5.79385,-3.6162 -3.03261,-6.9245 6.14028,-6.5183 12.80147,-12.5045 19.51102,-18.4278 2.58159,-2.2967 4.04414,-3.5571 6.5047,-5.8948 0.79418,-0.7546 1.57196,-1.5263 2.34496,-2.3026 0.45566,-0.4575 0.78864,-1.7335 1.34061,-1.3984 6.33574,3.8468 -2.16877,3.3083 3.97019,3.2097 -5.41508,2.0758 -9.97158,6.0288 -15.02747,8.7836 -1.8506,1.1506 -4.05946,2.5874 -6.02604,3.5788 -0.83906,0.423 -1.68978,1.429 -2.58145,1.1325 -5.89185,-1.9586 -5.06142,-3.7628 -2.49189,-6.6013 3.74453,-3.4448 7.56617,-6.8041 11.28292,-10.2794 0.50855,-0.4876 1.02681,-0.9653 1.52565,-1.4629 2.86168,-2.8542 0.11525,-1.0564 3.0337,1.5346 0.436,0.387 3.027,0.036 1.78972,0.1939 -3.09982,1.4487 -6.04852,3.1985 -9.16566,4.6082 -3.10118,0.5721 -3.30241,1.305 -5.40725,-3.0256 -0.59359,-1.2213 2.87103,-4.6497 3.5913,-5.4072 1.49522,-1.5036 3.01951,-2.9629 4.58624,-4.3922 0.76783,-0.7005 1.46478,-1.4821 2.27962,-2.1273 0.0714,-0.056 0.17955,-0.03 0.26933,-0.045 1.29587,2.8538 0.27607,2.3008 2.7241,2.8774 0.0659,0.015 -0.11839,-0.092 -0.18541,-0.083 -1.53221,0.2162 -2.95937,0.9646 -4.42083,1.4131 -1.24138,0.4688 -7.66302,3.124 -8.64768,2.3293 -1.28809,-1.0397 -2.01565,-2.7185 -2.46246,-4.3124 -0.15126,-0.5396 0.56425,-0.9684 0.84637,-1.4526 3.3355,-3.4133 7.27298,-6.1706 10.83584,-9.3348 0.11061,-0.095 4.20626,-3.7945 4.22025,-3.7962 0.26349,-0.031 -0.12756,0.5758 0.0208,0.7957 1.89491,2.8097 1.21255,2.7558 2.83033,2.4886 -4.97895,0.5792 -9.66454,2.6046 -14.36421,4.2234 -0.53234,0.2038 -7.90912,3.0215 -8.10164,2.8859 -5.71647,-4.0258 -4.11516,-4.9034 -0.93372,-7.0098 7.36008,-4.3435 14.78346,-8.5805 22.08559,-13.0225 3.64869,-2.2504 7.28732,-4.5063 10.83231,-6.9185 0.80757,-0.5495 1.60629,-1.112 2.40243,-1.678 0.45478,-0.3233 0.82952,-1.1903 1.35011,-0.9895 0.48836,0.1884 0.093,1.0427 0.13952,1.5641 0.86447,0.6474 1.75835,1.2573 2.59341,1.9423 0.10433,0.086 -0.24896,-0.1402 -0.38348,-0.1297 -0.67078,0.053 -1.33574,0.1752 -1.99357,0.3165 -4.42534,0.9505 -8.70728,2.4718 -13.04349,3.7403 -14.3137,4.603 -28.57835,9.3957 -42.47458,15.1604 -5.33264,2.2759 -10.68289,4.5146 -15.86688,7.1191 -0.98152,0.4931 -1.90182,1.1098 -2.90909,1.5479 -0.19645,0.085 -0.48787,0.145 -0.64266,0 -1.39314,-1.3328 -2.57443,-2.8707 -3.86164,-4.306 2.76267,-0.8185 5.40889,-2.1641 8.01975,-3.3458 6.65296,-3.0113 13.28808,-6.0627 19.9839,-8.9785 14.34741,-6.2827 28.81842,-12.2865 43.06895,-18.7872 3.81941,-1.8592 3.42844,-1.5867 6.65197,-3.4079 0.42035,-0.2375 0.89508,-1.0755 1.24399,-0.7418 0.51602,0.4935 -0.19894,1.546 0.20937,2.1318 0.45154,0.6478 3.22184,1.7298 1.90402,1.2063 -6.89089,0.966 -13.40445,3.7797 -20.13634,5.4224 -11.8019,3.4991 -23.55073,7.2032 -35.04101,11.6357 -8.20913,3.1943 -16.30624,6.6435 -24.33169,10.2754 -4.52321,0.6279 -4.99842,1.9616 -4.43588,-4.849 0.0408,-0.4939 0.80228,-0.5828 1.21809,-0.8524 1.28792,-0.835 4.65033,-2.8562 5.71182,-3.4857 1.46337,-0.8679 2.93596,-1.7201 4.40394,-2.5801 13.14061,-7.4919 26.55003,-14.4944 40.34078,-20.7229 9.5226,-4.323 19.2115,-8.3914 28.33028,-13.5304 0.68609,2.0734 -0.14848,-0.1736 3.09441,3.8234 0.0753,0.093 -0.23124,-0.092 -0.34983,-0.078 -0.65632,0.08 -1.3057,0.2146 -1.95081,0.3597 -2.17577,0.4894 -5.31123,1.3772 -7.36023,1.9363 -13.00044,3.6384 -25.95831,7.4342 -38.9263,11.1855 -10.92966,3.3293 -21.7316,7.0382 -32.64482,10.4158 -4.06164,0.8289 -4.03838,1.8018 -5.00415,-4.9979 -0.0698,-0.4917 0.8048,-0.5862 1.23879,-0.8276 1.16939,-0.6506 5.25166,-2.5386 6.04626,-2.8963 1.60541,-0.7227 3.2256,-1.4122 4.8384,-2.1182 13.20171,-5.5246 26.63416,-10.4769 39.78153,-16.1343 8.11719,-3.6176 16.31804,-7.2092 23.84147,-11.9781 0.19862,2.2771 -0.14327,-0.1074 3.26593,4.0431 0.0899,0.1094 -0.28604,-0.039 -0.42467,-0.01 -0.67806,0.1411 -1.34672,0.3258 -2.01244,0.5167 -2.94731,0.8456 -4.58015,1.4416 -7.62129,2.4659 -12.67292,4.411 -25.30762,8.9305 -37.84655,13.7113 -3.07377,1.1749 -7.82006,3.0014 -10.97357,4.1617 -1.44137,0.5303 -2.88715,1.0488 -4.33728,1.5546 -2.00171,0.6983 -6.32013,2.671 -8.25081,0.2551 -0.90784,-1.1361 0.56429,-2.8532 0.84644,-4.2798 7.07974,-4.3287 14.76809,-7.6164 22.141,-11.3931 9.13135,-4.3597 18.22677,-8.8127 27.57225,-12.7022 0.89641,-0.3787 1.79797,-0.7455 2.68923,-1.1362 0.5775,-0.2531 1.13076,-1.0286 1.71646,-0.795 0.43099,0.1718 -0.54228,0.9604 -0.30372,1.3584 0.74689,1.246 2.08832,2.029 3.00824,3.1533 0.0959,0.1173 -0.30231,-0.021 -0.45346,-0.031 -0.55067,0.098 -1.10134,0.1959 -1.65201,0.2938 -7.12029,1.5338 -14.14724,3.5045 -21.03864,5.8623 -5.61427,1.9911 -2.26015,0.7719 -7.66003,2.8003 -0.16787,0.063 -5.50457,2.0882 -6.00635,2.1673 -1.18644,0.187 -2.7783,0.9249 -3.60289,0.052 -1.14662,-1.2144 -0.6578,-3.2749 -0.9867,-4.9124 4.31947,-4.025 9.95644,-6.4301 14.86219,-9.6216 5.69864,-3.1359 11.51633,-6.0331 17.34586,-8.916 1.71958,-0.067 -0.48353,-0.1261 1.67824,3.1926 0.1784,0.2739 0.66529,0.03 0.96881,0.1511 0.24212,0.097 -0.51816,-0.088 -0.77856,-0.075 -0.5628,0.028 -1.12175,0.1138 -1.67882,0.1988 -0.76539,0.1168 -1.52463,0.2708 -2.28694,0.4062 -5.98157,1.279 -11.87546,2.9054 -17.6843,4.8243 -0.29531,0.096 -5.93212,1.9445 -6.00629,1.8516 -3.80376,-4.7671 -3.11118,-4.3251 -0.939,-5.7877 4.42958,-3.2257 9.08713,-5.9768 14.45458,-7.3921 3.64641,-1.0371 5.1131,4.1197 1.46668,5.1568 z"
           inkscape:connector-curvature="0"
           transform="translate(-18,-627.63782)" />
      </g>
      <g
         style="fill:#ffffff;fill-opacity:1;stroke:#ffffff;stroke-width:80;stroke-linejoin:bevel;stroke-miterlimit:4;stroke-dasharray:none"
         id="g6302">
        <path
           inkscape:connector-curvature="0"
           id="path6308"
           style="font-size:212.76596069px;font-style:normal;font-variant:normal;font-weight:600;font-stretch:normal;line-height:125%;letter-spacing:0px;word-spacing:0px;fill:#ffffff;fill-opacity:1;stroke:#ffffff;stroke-width:80;stroke-linejoin:bevel;stroke-miterlimit:4;stroke-dasharray:none;font-family:URW Gothic L;-inkscape-font-specification:URW Gothic L Semi-Bold"
           d="m 267.3105,1246.5962 23.82979,0 60.85107,-157.2341 -30.6383,0 -42.34043,119.5745 -42.34042,-119.5745 -30.6383,0 61.27659,157.2341" />
        <path
           inkscape:connector-curvature="0"
           id="path6310"
           style="font-size:212.76596069px;font-style:normal;font-variant:normal;font-weight:600;font-stretch:normal;line-height:125%;letter-spacing:0px;word-spacing:0px;fill:#ffffff;fill-opacity:1;stroke:#ffffff;stroke-width:80;stroke-linejoin:bevel;stroke-miterlimit:4;stroke-dasharray:none;font-family:URW Gothic L;-inkscape-font-specification:URW Gothic L Semi-Bold"
           d="m 312.5911,1246.5962 32.12766,0 17.44681,-40.6383 55.95745,0 16.80851,40.6383 32.12766,0 -65.95745,-157.2341 -22.97872,0 -65.53192,157.2341 m 60.21277,-68.5106 16.80851,-47.6596 16.80851,47.6596 -33.61702,0" />
      </g>
      <g
         id="g6270"
         style="fill:#000000;fill-opacity:1">
        <path
           d="m -42.000001,1246.5962 29.148937,0 0,-114.2553 65.744682,114.2553 32.553192,0 0,-157.2341 -29.148937,0 0,114.4681 -65.106384,-114.4681 -33.19149,0 0,157.2341"
           style="font-size:212.76596069px;font-style:normal;font-variant:normal;font-weight:600;font-stretch:normal;line-height:125%;letter-spacing:0px;word-spacing:0px;fill:#000000;fill-opacity:1;stroke:none;font-family:URW Gothic L;-inkscape-font-specification:URW Gothic L Semi-Bold"
           id="path6272"
           inkscape:connector-curvature="0" />
        <path
           d="m 159.75199,1125.9579 c -34.25528,0 -62.34042,27.8724 -62.34042,61.7021 0,34.0425 28.08514,61.7021 62.55319,61.7021 34.25528,0 62.76596,-27.6596 62.76596,-60.851 0,-35.1064 -27.44685,-62.5532 -62.97873,-62.5532 m 0.21277,25.9574 c 18.93615,0 34.25532,16.1703 34.25532,35.7447 0,19.7872 -15.31917,35.7447 -34.04256,35.7447 -19.14891,0 -34.25532,-15.9575 -34.25532,-36.1702 0,-19.3617 15.53194,-35.3192 34.04256,-35.3192"
           style="font-size:212.76596069px;font-style:normal;font-variant:normal;font-weight:600;font-stretch:normal;line-height:125%;letter-spacing:0px;word-spacing:0px;fill:#000000;fill-opacity:1;stroke:none;font-family:URW Gothic L;-inkscape-font-specification:URW Gothic L Semi-Bold"
           id="path6274"
           inkscape:connector-curvature="0" />
        <path
           d="m 267.3105,1246.5962 23.82979,0 60.85107,-157.2341 -30.6383,0 -42.34043,119.5745 -42.34042,-119.5745 -30.6383,0 61.27659,157.2341"
           style="font-size:212.76596069px;font-style:normal;font-variant:normal;font-weight:600;font-stretch:normal;line-height:125%;letter-spacing:0px;word-spacing:0px;fill:#000000;fill-opacity:1;stroke:none;font-family:URW Gothic L;-inkscape-font-specification:URW Gothic L Semi-Bold"
           id="path6276"
           inkscape:connector-curvature="0" />
        <path
           d="m 312.5911,1246.5962 32.12766,0 17.44681,-40.6383 55.95745,0 16.80851,40.6383 32.12766,0 -65.95745,-157.2341 -22.97872,0 -65.53192,157.2341 m 60.21277,-68.5106 16.80851,-47.6596 16.80851,47.6596 -33.61702,0"
           style="font-size:212.76596069px;font-style:normal;font-variant:normal;font-weight:600;font-stretch:normal;line-height:125%;letter-spacing:0px;word-spacing:0px;fill:#000000;fill-opacity:1;stroke:none;font-family:URW Gothic L;-inkscape-font-specification:URW Gothic L Semi-Bold"
           id="path6278"
           inkscape:connector-curvature="0" />
      </g>
      <g
         style="font-size:87.66661072px;font-style:normal;font-variant:normal;font-weight:600;font-stretch:normal;line-height:125%;letter-spacing:0px;word-spacing:0px;fill:#000000;fill-opacity:1;stroke:none;font-family:URW Gothic L;-inkscape-font-specification:URW Gothic L Semi-Bold"
         id="g6280">
        <path
           d="m -5.0923558,1068.2671 c -2.8929953,4.471 -6.2243342,6.3997 -11.0459932,6.3997 -8.06532,0 -14.114324,-6.3121 -14.114324,-14.8157 0,-8.5037 5.786004,-14.6403 13.851324,-14.6403 5.259992,0 8.9419971,2.1916 11.3089932,6.6626 l 13.1499916,0 c -1.665664,-4.9093 -3.2436679,-7.4516 -6.5749958,-10.52 -4.7339923,-4.3833 -11.1336663,-6.838 -17.883989,-6.838 -14.377309,0 -25.59865,11.1337 -25.59865,25.4234 0,14.1143 11.572007,25.4233 25.949317,25.4233 11.3089813,0 20.0756577,-6.2244 24.1083178,-17.095 l -13.1499916,0"
           id="path6282"
           inkscape:connector-curvature="0"
           style="fill:#000000" />
        <path
           d="m 39.847741,1034.5154 c -14.11431,0 -25.686317,11.4844 -25.686317,25.4234 0,14.0266 11.572007,25.4233 25.773983,25.4233 14.114311,0 25.861651,-11.3967 25.861651,-25.0727 0,-14.4649 -11.309008,-25.774 -25.949317,-25.774 m 0.08767,10.6954 c 7.802321,0 14.114325,6.6626 14.114325,14.728 0,8.1529 -6.312004,14.728 -14.026658,14.728 -7.889987,0 -14.114324,-6.5751 -14.114324,-14.9034 0,-7.9776 6.39967,-14.5526 14.026657,-14.5526"
           id="path6284"
           inkscape:connector-curvature="0"
           style="fill:#000000" />
        <path
           d="m 121.43248,1019.4368 -11.65966,0 0,20.514 c -3.41899,-3.7697 -9.02967,-6.049 -15.166322,-6.049 -13.588311,0 -24.283651,11.3967 -24.283651,25.9493 0,14.3773 10.607673,25.511 24.371317,25.511 6.574986,0 11.396666,-2.1917 16.042986,-7.4517 l 0,6.312 10.69533,0 0,-64.7856 m -25.160317,25.1603 c 8.152987,0 14.377327,6.575 14.377327,15.0787 0,8.4159 -6.22434,14.991 -14.114327,14.991 -8.152987,0 -14.464991,-6.7504 -14.464991,-15.3417 0,-8.2407 6.224338,-14.728 14.201991,-14.728"
           id="path6286"
           inkscape:connector-curvature="0"
           style="fill:#000000" />
        <path
           d="m 178.42947,1065.1111 c 0.35067,-1.6657 0.43833,-2.7177 0.43833,-4.471 0,-15.0786 -10.60767,-26.1247 -25.07265,-26.1247 -14.28964,0 -25.59865,11.3091 -25.59865,25.5987 0,14.202 11.48434,25.248 26.29999,25.248 7.97765,0 14.20199,-2.893 19.28665,-8.7667 1.841,-2.2793 3.06833,-4.2956 3.85733,-6.7503 l -12.71166,0 c -2.98066,3.5066 -5.87366,4.8217 -10.69532,4.8217 -6.92566,0 -12.01033,-3.6821 -13.41299,-9.5557 l 37.60897,0 m -37.95964,-10.257 c 1.841,-6.2243 6.575,-9.6433 13.50066,-9.6433 7.18865,0 11.92266,3.419 13.41299,9.6433 l -26.91365,0"
           style="letter-spacing:10.78261662px;fill:#000000;fill-opacity:1"
           id="path6288"
           inkscape:connector-curvature="0" />
        <g
           id="g6290"
           transform="matrix(1.1183943,0,0,1.1183943,-26.317409,-128.01052)"
           style="fill:#000000;stroke:#d0d5d8;stroke-width:2.68241715;stroke-miterlimit:4;stroke-opacity:1;stroke-dasharray:none">
          <path
             style="font-size:medium;font-style:normal;font-variant:normal;font-weight:normal;font-stretch:normal;text-indent:0;text-align:start;text-decoration:none;line-height:125%;letter-spacing:10.78261662px;word-spacing:0;text-transform:none;direction:ltr;block-progression:tb;writing-mode:lr-tb;text-anchor:start;baseline-shift:baseline;color:#000000;fill:#000000;fill-opacity:1;fill-rule:nonzero;stroke:none;stroke-width:2.68241715;marker:none;visibility:visible;display:inline;overflow:visible;enable-background:accumulate;font-family:URW Gothic L;-inkscape-font-specification:URW Gothic L Semi-Bold"
             d="m 199.78125,1041.875 0,12.75 12.75,0 0,-12.75 z m 0,28.3125 0,12.375 12.75,0 0,-12.375 z"
             id="path6292"
             inkscape:connector-curvature="0"
             sodipodi:nodetypes="cccccccccc" />
          <path
             style="font-size:medium;font-style:normal;font-variant:normal;font-weight:normal;font-stretch:normal;text-indent:0;text-align:start;text-decoration:none;line-height:125%;letter-spacing:10.78261662px;word-spacing:0;text-transform:none;direction:ltr;block-progression:tb;writing-mode:lr-tb;text-anchor:start;baseline-shift:baseline;color:#000000;fill:#000000;fill-opacity:1;fill-rule:nonzero;stroke:none;stroke-width:2.68241715;marker:none;visibility:visible;display:inline;overflow:visible;enable-background:accumulate;font-family:URW Gothic L;-inkscape-font-specification:URW Gothic L Semi-Bold"
             d="m 232.03125,1041.875 0,12.75 12.75,0 0,-12.75 z m 0,28.3125 0,12.375 12.75,0 0,-12.375 z"
             id="path6294"
             inkscape:connector-curvature="0"
             sodipodi:nodetypes="cccccccccc" />
        </g>
        <path
           d="m 268.13048,1084.2224 11.65966,0 0,-37.9596 6.57499,0 0,-9.731 -6.57499,0 c 0.0877,-4.3834 1.578,-5.8737 6.13666,-5.8737 l 1.13967,0 0,-11.046 c -1.40267,-0.1753 -2.104,-0.1753 -2.893,-0.1753 -4.99699,0 -9.205,1.841 -12.18566,5.4353 -2.367,2.8053 -3.24367,5.6107 -3.85733,11.6597 l -4.208,0 0,9.731 4.208,0 0,37.9596"
           id="path6296"
           inkscape:connector-curvature="0"
           style="fill:#000000" />
        <path
           d="m 315.84712,1034.5154 c -14.11432,0 -25.68632,11.4844 -25.68632,25.4234 0,14.0266 11.57201,25.4233 25.77398,25.4233 14.11431,0 25.86165,-11.3967 25.86165,-25.0727 0,-14.4649 -11.30901,-25.774 -25.94931,-25.774 m 0.0877,10.6954 c 7.80232,0 14.11433,6.6626 14.11433,14.728 0,8.1529 -6.31201,14.728 -14.02666,14.728 -7.88999,0 -14.11433,-6.5751 -14.11433,-14.9034 0,-7.9776 6.39967,-14.5526 14.02666,-14.5526"
           id="path6298"
           inkscape:connector-curvature="0"
           style="fill:#000000" />
        <path
           d="m 348.42623,1084.2224 11.65966,0 0,-27.0013 c 0,-7.5393 3.41901,-11.309 10.43233,-11.4843 l 0,-11.2214 -0.87667,0 c -4.99699,0 -7.45166,1.4027 -10.51999,5.8737 l 0,-4.734 -10.69533,0 0,48.5673"
           id="path6300"
           inkscape:connector-curvature="0"
           style="fill:#000000" />
      </g>
    </g>
  </g>
</svg>
