<?xml version="1.0" encoding="UTF-8" standalone="no"?>
<!-- Created with Inkscape (http://www.inkscape.org/) -->

<svg
   xmlns:dc="http://purl.org/dc/elements/1.1/"
   xmlns:cc="http://creativecommons.org/ns#"
   xmlns:rdf="http://www.w3.org/1999/02/22-rdf-syntax-ns#"
   xmlns:svg="http://www.w3.org/2000/svg"
   xmlns="http://www.w3.org/2000/svg"
   xmlns:xlink="http://www.w3.org/1999/xlink"
   xmlns:sodipodi="http://sodipodi.sourceforge.net/DTD/sodipodi-0.dtd"
   xmlns:inkscape="http://www.inkscape.org/namespaces/inkscape"
   width="588"
   height="641"
   id="svg2"
   version="1.1"
   inkscape:version="0.48.4 r9939"
   sodipodi:docname="code for america logo workspace.svg">
  <defs
     id="defs4" />
  <sodipodi:namedview
     id="base"
     pagecolor="#ffffff"
     bordercolor="#666666"
     borderopacity="1.0"
     inkscape:pageopacity="0.0"
     inkscape:pageshadow="2"
     inkscape:zoom="0.5"
     inkscape:cx="332.03125"
     inkscape:cy="281.90625"
     inkscape:document-units="px"
     inkscape:current-layer="layer1"
     showgrid="true"
     fit-margin-top="50"
     fit-margin-left="50"
     fit-margin-right="50"
     fit-margin-bottom="50"
     borderlayer="false"
     inkscape:window-width="1280"
     inkscape:window-height="778"
     inkscape:window-x="-8"
     inkscape:window-y="-8"
     inkscape:window-maximized="1"
     inkscape:snap-bbox="true">
    <inkscape:grid
       type="xygrid"
       id="grid3842" />
  </sodipodi:namedview>
  <metadata
     id="metadata7">
    <rdf:RDF>
      <cc:Work
         rdf:about="">
        <dc:format>image/svg+xml</dc:format>
        <dc:type
           rdf:resource="http://purl.org/dc/dcmitype/StillImage" />
      </cc:Work>
    </rdf:RDF>
  </metadata>
  <g
     inkscape:label="Layer 1"
     inkscape:groupmode="layer"
     id="layer1"
     transform="translate(50,-461.36218)">
    <rect
       y="92.362183"
       x="-369.56522"
       height="1344"
       width="1227.1305"
       id="rect4149"
       style="color:#000000;fill:#2b3e50;fill-opacity:1;fill-rule:nonzero;stroke:none;stroke-width:50;marker:none;visibility:visible;display:inline;overflow:visible;enable-background:accumulate" />
    <rect
       style="color:#000000;fill:#647385;fill-opacity:1;fill-rule:nonzero;stroke:none;stroke-width:50;marker:none;visibility:visible;display:inline;overflow:visible;enable-background:accumulate"
       id="rect4147"
       width="791.22583"
       height="1168"
       x="-151.6129"
       y="220.36218" />
    <path
       inkscape:connector-curvature="0"
       id="path2998"
       d="m 1291,1044.3217 c -24.9891,-18.1756 -53.8985,-45.43929 -71.0013,-66.95952 -33.4448,-42.08313 -53.4273,-88.78196 -58.5189,-136.75817 -1.6123,-15.19183 -1.9626,-35.24183 -0.6158,-35.24183 0.4752,0 8.3958,-4.51735 17.6015,-10.03854 18.8599,-11.31147 27.2225,-15.68312 36.2684,-18.95968 3.4286,-1.2419 6.63,-2.76285 7.1142,-3.37989 0.4842,-0.61704 2.3082,-6.01291 4.0534,-11.99083 14.9265,-51.12846 41.4952,-97.91186 77.4066,-136.30123 3.2566,-3.4814 6.5446,-6.32983 7.3066,-6.32983 1.1344,0 1.3877,3.66786 1.3984,20.25 0.01,15.81017 0.4212,22.22715 1.8744,29.26774 7.0996,34.39806 33.4678,61.67975 68.697,71.077 5.3095,1.4163 10.3989,1.83501 21.9155,1.80301 17.8074,-0.0495 25.8118,-1.82407 40.2214,-8.91716 25.3917,-12.49902 43.5662,-35.56131 49.8428,-63.24727 0.9697,-4.27709 1.7434,-14.68438 2.121,-28.52972 0.4497,-16.48989 0.8935,-21.72424 1.8231,-21.5 1.6975,0.40949 15.2201,15.27089 24.7208,27.16832 25.6356,32.10256 46.9419,72.92907 58.2559,111.62808 4.9214,16.83356 4.7198,16.44518 9.2368,17.79849 6.1455,1.84123 24.8724,11.32064 36.3547,18.40243 5.7329,3.53581 12.786,7.7086 15.6735,9.27285 l 5.25,2.84409 0,13.78985 c 0,81.0742 -46.3245,162.27156 -126.5,221.72851 -9.6653,7.1677 -14.4445,9.8285 -13.3162,7.4138 0.1927,-0.4125 3.1096,-6.375 6.482,-13.25 10.4295,-21.262 17.3597,-41.48333 18.9528,-55.30173 0.6609,-5.73236 0.7469,-5.86046 7.1975,-10.71715 8.2693,-6.22609 14.3622,-13.56788 18.6569,-22.48114 4.6789,-9.71064 5.8859,-17.04808 5.3066,-32.26126 -0.6833,-17.94404 -3.0784,-22.97005 -12.9753,-27.22758 -6.6456,-2.85887 -7.8043,-2.27132 -7.8043,3.95746 0,2.76726 -0.3886,5.03138 -0.8636,5.03138 -2.1742,0 -6.0258,5.41345 -6.6229,9.30832 -1.7043,11.11831 -11.4663,35.49633 -17.2862,43.16778 -6.9504,9.16168 -17.1656,15.23644 -29.5802,17.59082 -7.2301,1.37117 -23.1706,1.10531 -30.8102,-0.51387 -21.5204,-4.56118 -32.4411,-17.36506 -38.9329,-45.64657 -1.6777,-7.30883 -3.6787,-14.50398 -4.4468,-15.98922 -3.4315,-6.63575 -18.5492,-6.50764 -22.0109,0.18653 -0.8211,1.58783 -2.817,8.71934 -4.4353,15.8478 -8.045,35.43681 -24.0516,48.11752 -59.011,46.74971 -21.6781,-0.84818 -34.4215,-7.6198 -43.5035,-23.11699 -3.9041,-6.66195 -11.0516,-25.22359 -13.0107,-33.78821 -2.0874,-9.12518 -3.0943,-11.24863 -6.0959,-12.85501 -2.0073,-1.07429 -2.3899,-2.04298 -2.3899,-6.05105 0,-2.6246 -0.4601,-5.05637 -1.0225,-5.40393 -0.5623,-0.34755 -3.2342,0.10271 -5.9375,1.00059 -5.8811,1.9534 -11.4908,7.68969 -12.9152,13.20663 -1.7273,6.68994 -2.2938,20.531 -1.2173,29.73964 1.7754,15.18781 9.9241,29.07336 22.402,38.17355 7.5587,5.51259 8.6901,6.92294 8.6918,10.83461 0,10.25014 9.3696,37.53039 20.4959,59.70289 3.5481,7.0708 6.1253,12.8266 5.727,12.7906 -0.3983,-0.036 -4.9992,-3.1748 -10.2242,-6.9751 z m 52.4826,-85.47331 c 3.8404,-0.81349 9.4654,-2.6919 12.5,-4.17426 16.0082,-7.8198 26.41,-28.71571 23.3083,-46.82348 -3.1302,-18.27386 -15.6797,-24.95911 -46.7909,-24.92593 -17.0828,0.0182 -24.1805,1.4405 -33.9862,6.81043 -11.8246,6.47549 -14.7618,15.24889 -10.6215,31.72631 7.4623,29.69821 27.6839,43.29813 55.5903,37.38693 z m 142.6309,0.50851 c 17.6713,-3.29799 29.5268,-16.13638 34.9942,-37.89544 4.1403,-16.47742 1.2031,-25.25082 -10.6215,-31.72631 -9.8057,-5.36993 -16.9034,-6.79221 -33.9862,-6.81043 -31.1111,-0.0332 -43.6607,6.65207 -46.7908,24.92593 -3.1054,18.12908 7.2996,39.00339 23.3496,46.84371 10.0453,4.90706 22.4039,6.6503 33.0547,4.66254 z m -55.5716,-76.23208 c 3.873,-1.96798 9.9249,-4.52462 13.4487,-5.68142 14.3425,-4.7084 47.7386,-5.18514 76.4389,-1.09118 8.2112,1.17129 15.1862,2.15598 15.5,2.18821 2.8867,0.29647 3.0705,-0.52008 3.0705,-13.64307 0,-11.80498 -0.2157,-13.57871 -1.75,-14.38878 -4.0139,-2.11926 -48.1389,-8.55011 -77.75,-11.33141 -21.5895,-2.02785 -93.1143,-1.71473 -116,0.50782 -28.2125,2.73988 -71.5167,9.3663 -73.389,11.23003 -0.336,0.33452 -0.7603,5.93281 -0.9428,12.44066 -0.355,12.6621 0.5652,16.54327 3.6875,15.55231 0.9536,-0.30266 8.0137,-1.4598 15.6891,-2.57141 27.832,-4.03087 62.2068,-3.57377 76.1788,1.013 3.3666,1.10521 9.6554,3.71857 13.9749,5.80747 l 7.8538,3.79801 18.4739,-0.12604 18.4738,-0.12604 7.0419,-3.57816 z m -220.762,-64.35289 c 54.385,-16.95917 110.7341,-26.35862 169.8559,-28.33321 77.9025,-2.60185 151.6392,6.99808 219.6429,28.59575 17.333,5.50489 20.0041,5.39035 20.5281,-0.88025 0.406,-4.85922 -0.7382,-5.52745 -19.3068,-11.27574 -115.1217,-35.63831 -246.1777,-38.52716 -364,-8.02362 -23.0857,5.97676 -44.8053,13.08216 -46.8308,15.32038 -0.9181,1.01443 -1.6692,2.67355 -1.6692,3.68694 0,2.46537 2.8608,5.5 5.1849,5.5 1.0312,0 8.4989,-2.06561 16.595,-4.59025 z M 1392,728.73181 c -32.1076,-6.19672 -54.9432,-26.13975 -65.1181,-56.86963 -2.2522,-6.80218 -2.3274,-8.20335 -2.6578,-49.58191 l -0.34,-42.5819 40.1423,-34.24677 c 36.0754,-30.77718 40.311,-34.10186 41.8079,-32.81644 0.9161,0.78667 18.3157,15.61311 38.6657,32.94762 20.35,17.33452 37.8233,32.43879 38.8296,33.56506 1.7237,1.92922 1.8058,4.38222 1.4177,42.38104 -0.4551,44.56114 -0.6261,45.97388 -7.3454,60.67358 -9.4568,20.68887 -26.4339,35.86076 -48.4019,43.25526 -8.3428,2.80821 -11.0227,3.23177 -22,3.47716 -6.875,0.15369 -13.625,0.0623 -15,-0.20307 z"
       style="fill:#c83737;fill-opacity:1" />
    <g
       id="g6211"
       transform="translate(-50,-730)">
      <rect
         y="832.36218"
         x="1000"
         height="120"
         width="280"
         id="rect6081"
         style="color:#000000;fill:#2b3e50;fill-opacity:1;fill-rule:nonzero;stroke:none;stroke-width:3;marker:none;visibility:visible;display:inline;overflow:visible;enable-background:accumulate" />
      <rect
         style="color:#000000;fill:#4e5d6c;fill-opacity:1;fill-rule:nonzero;stroke:none;stroke-width:3;marker:none;visibility:visible;display:inline;overflow:visible;enable-background:accumulate"
         id="rect6107"
         width="280"
         height="120"
         x="1000"
         y="952.36218" />
      <rect
         y="1072.3622"
         x="1000"
         height="120"
         width="280"
         id="rect6117"
         style="color:#000000;fill:#647385;fill-opacity:1;fill-rule:nonzero;stroke:none;stroke-width:3;marker:none;visibility:visible;display:inline;overflow:visible;enable-background:accumulate" />
      <rect
         style="color:#000000;fill:#d0d5d8;fill-opacity:1;fill-rule:nonzero;stroke:none;stroke-width:3;marker:none;visibility:visible;display:inline;overflow:visible;enable-background:accumulate"
         id="rect6127"
         width="280"
         height="120"
         x="1000"
         y="1192.3622" />
      <rect
         y="1312.3622"
         x="1000"
         height="120"
         width="280"
         id="rect6137"
         style="color:#000000;fill:#c83737;fill-opacity:1;fill-rule:nonzero;stroke:none;stroke-width:3;marker:none;visibility:visible;display:inline;overflow:visible;enable-background:accumulate" />
      <g
         style="fill:#ffffff;stroke:#ffffff;stroke-width:2;stroke-linejoin:round;stroke-miterlimit:4;stroke-dasharray:none"
         id="g6169">
        <text
           sodipodi:linespacing="125%"
           id="text6171"
           y="868.17078"
           x="1025.6094"
           style="font-size:24px;font-style:normal;font-variant:normal;font-weight:bold;font-stretch:normal;line-height:125%;letter-spacing:0px;word-spacing:0px;fill:#ffffff;fill-opacity:1;stroke:#ffffff;stroke-width:2;stroke-linejoin:round;stroke-miterlimit:4;stroke-dasharray:none;font-family:Liberation Mono;-inkscape-font-specification:Liberation Mono Bold"
           xml:space="preserve"><tspan
             y="868.17078"
             x="1025.6094"
             id="tspan6173"
             sodipodi:role="line">R  43</tspan><tspan
             id="tspan6175"
             y="898.17078"
             x="1025.6094"
             sodipodi:role="line">G  62</tspan><tspan
             id="tspan6177"
             y="928.17078"
             x="1025.6094"
             sodipodi:role="line">B  80</tspan></text>
        <text
           xml:space="preserve"
           style="font-size:24px;font-style:normal;font-variant:normal;font-weight:bold;font-stretch:normal;line-height:125%;letter-spacing:0px;word-spacing:0px;fill:#ffffff;fill-opacity:1;stroke:#ffffff;stroke-width:2;stroke-linejoin:round;stroke-miterlimit:4;stroke-dasharray:none;font-family:Liberation Mono;-inkscape-font-specification:Liberation Mono Bold"
           x="1025.6094"
           y="988.17078"
           id="text6179"
           sodipodi:linespacing="125%"><tspan
             sodipodi:role="line"
             id="tspan6181"
             x="1025.6094"
             y="988.17078">R  73</tspan><tspan
             sodipodi:role="line"
             x="1025.6094"
             y="1018.1708"
             id="tspan6183">G  98</tspan><tspan
             sodipodi:role="line"
             x="1025.6094"
             y="1048.1708"
             id="tspan6185">B 103</tspan></text>
        <text
           sodipodi:linespacing="125%"
           id="text6187"
           y="1108.1708"
           x="1025.6094"
           style="font-size:24px;font-style:normal;font-variant:normal;font-weight:bold;font-stretch:normal;line-height:125%;letter-spacing:0px;word-spacing:0px;fill:#ffffff;fill-opacity:1;stroke:#ffffff;stroke-width:2;stroke-linejoin:round;stroke-miterlimit:4;stroke-dasharray:none;font-family:Liberation Mono;-inkscape-font-specification:Liberation Mono Bold"
           xml:space="preserve"><tspan
             y="1108.1708"
             x="1025.6094"
             id="tspan6189"
             sodipodi:role="line">R 100</tspan><tspan
             id="tspan6191"
             y="1138.1708"
             x="1025.6094"
             sodipodi:role="line">G 115</tspan><tspan
             id="tspan6193"
             y="1168.1708"
             x="1025.6094"
             sodipodi:role="line">B 133</tspan></text>
        <text
           xml:space="preserve"
           style="font-size:24px;font-style:normal;font-variant:normal;font-weight:bold;font-stretch:normal;line-height:125%;letter-spacing:0px;word-spacing:0px;fill:#ffffff;fill-opacity:1;stroke:#ffffff;stroke-width:2;stroke-linejoin:round;stroke-miterlimit:4;stroke-dasharray:none;font-family:Liberation Mono;-inkscape-font-specification:Liberation Mono Bold"
           x="1025.6094"
           y="1228.1708"
           id="text6195"
           sodipodi:linespacing="125%"><tspan
             sodipodi:role="line"
             id="tspan6197"
             x="1025.6094"
             y="1228.1708">R 208</tspan><tspan
             sodipodi:role="line"
             x="1025.6094"
             y="1258.1708"
             id="tspan6199">G 213</tspan><tspan
             sodipodi:role="line"
             x="1025.6094"
             y="1288.1708"
             id="tspan6201">B 216</tspan></text>
        <text
           sodipodi:linespacing="125%"
           id="text6203"
           y="1348.1708"
           x="1025.6094"
           style="font-size:24px;font-style:normal;font-variant:normal;font-weight:bold;font-stretch:normal;line-height:125%;letter-spacing:0px;word-spacing:0px;fill:#ffffff;fill-opacity:1;stroke:#ffffff;stroke-width:2;stroke-linejoin:round;stroke-miterlimit:4;stroke-dasharray:none;font-family:Liberation Mono;-inkscape-font-specification:Liberation Mono Bold"
           xml:space="preserve"><tspan
             y="1348.1708"
             x="1025.6094"
             id="tspan6205"
             sodipodi:role="line">R 200</tspan><tspan
             id="tspan6207"
             y="1378.1708"
             x="1025.6094"
             sodipodi:role="line">G  55</tspan><tspan
             id="tspan6209"
             y="1408.1708"
             x="1025.6094"
             sodipodi:role="line">B  55</tspan></text>
      </g>
      <g
         id="g6147">
        <text
           xml:space="preserve"
           style="font-size:24px;font-style:normal;font-variant:normal;font-weight:bold;font-stretch:normal;line-height:125%;letter-spacing:0px;word-spacing:0px;fill:#000000;fill-opacity:1;stroke:none;font-family:Liberation Mono;-inkscape-font-specification:Liberation Mono Bold"
           x="1025.6094"
           y="868.17078"
           id="text6083"
           sodipodi:linespacing="125%"><tspan
             sodipodi:role="line"
             id="tspan6085"
             x="1025.6094"
             y="868.17078">R  43</tspan><tspan
             sodipodi:role="line"
             x="1025.6094"
             y="898.17078"
             id="tspan6087">G  62</tspan><tspan
             sodipodi:role="line"
             x="1025.6094"
             y="928.17078"
             id="tspan6089">B  80</tspan></text>
        <text
           sodipodi:linespacing="125%"
           id="text6109"
           y="988.17078"
           x="1025.6094"
           style="font-size:24px;font-style:normal;font-variant:normal;font-weight:bold;font-stretch:normal;line-height:125%;letter-spacing:0px;word-spacing:0px;fill:#000000;fill-opacity:1;stroke:none;font-family:Liberation Mono;-inkscape-font-specification:Liberation Mono Bold"
           xml:space="preserve"><tspan
             y="988.17078"
             x="1025.6094"
             id="tspan6111"
             sodipodi:role="line">R  73</tspan><tspan
             id="tspan6113"
             y="1018.1708"
             x="1025.6094"
             sodipodi:role="line">G  98</tspan><tspan
             id="tspan6115"
             y="1048.1708"
             x="1025.6094"
             sodipodi:role="line">B 103</tspan></text>
        <text
           xml:space="preserve"
           style="font-size:24px;font-style:normal;font-variant:normal;font-weight:bold;font-stretch:normal;line-height:125%;letter-spacing:0px;word-spacing:0px;fill:#000000;fill-opacity:1;stroke:none;font-family:Liberation Mono;-inkscape-font-specification:Liberation Mono Bold"
           x="1025.6094"
           y="1108.1708"
           id="text6119"
           sodipodi:linespacing="125%"><tspan
             sodipodi:role="line"
             id="tspan6121"
             x="1025.6094"
             y="1108.1708">R 100</tspan><tspan
             sodipodi:role="line"
             x="1025.6094"
             y="1138.1708"
             id="tspan6123">G 115</tspan><tspan
             sodipodi:role="line"
             x="1025.6094"
             y="1168.1708"
             id="tspan6125">B 133</tspan></text>
        <text
           sodipodi:linespacing="125%"
           id="text6129"
           y="1228.1708"
           x="1025.6094"
           style="font-size:24px;font-style:normal;font-variant:normal;font-weight:bold;font-stretch:normal;line-height:125%;letter-spacing:0px;word-spacing:0px;fill:#000000;fill-opacity:1;stroke:none;font-family:Liberation Mono;-inkscape-font-specification:Liberation Mono Bold"
           xml:space="preserve"><tspan
             y="1228.1708"
             x="1025.6094"
             id="tspan6131"
             sodipodi:role="line">R 208</tspan><tspan
             id="tspan6133"
             y="1258.1708"
             x="1025.6094"
             sodipodi:role="line">G 213</tspan><tspan
             id="tspan6135"
             y="1288.1708"
             x="1025.6094"
             sodipodi:role="line">B 216</tspan></text>
        <text
           xml:space="preserve"
           style="font-size:24px;font-style:normal;font-variant:normal;font-weight:bold;font-stretch:normal;line-height:125%;letter-spacing:0px;word-spacing:0px;fill:#000000;fill-opacity:1;stroke:none;font-family:Liberation Mono;-inkscape-font-specification:Liberation Mono Bold"
           x="1025.6094"
           y="1348.1708"
           id="text6139"
           sodipodi:linespacing="125%"><tspan
             sodipodi:role="line"
             id="tspan6141"
             x="1025.6094"
             y="1348.1708">R 200</tspan><tspan
             sodipodi:role="line"
             x="1025.6094"
             y="1378.1708"
             id="tspan6143">G  55</tspan><tspan
             sodipodi:role="line"
             x="1025.6094"
             y="1408.1708"
             id="tspan6145">B  55</tspan></text>
      </g>
    </g>
    <rect
       style="color:#000000;fill:#ffffff;fill-opacity:1;fill-rule:nonzero;stroke:#2b3e50;stroke-width:20;stroke-linecap:butt;stroke-linejoin:round;stroke-miterlimit:4;stroke-opacity:1;stroke-dasharray:none;stroke-dashoffset:0;marker:none;visibility:visible;display:inline;overflow:visible;enable-background:accumulate"
       id="rect4151"
       width="200"
       height="200"
       x="-682"
       y="-885.63782" />
    <rect
       y="-829.63782"
       x="-538"
       height="200"
       width="200"
       id="rect4153"
       style="color:#000000;fill:#ffffff;fill-opacity:1;fill-rule:nonzero;stroke:#2b3e50;stroke-width:20;stroke-linecap:butt;stroke-linejoin:round;stroke-miterlimit:4;stroke-opacity:1;stroke-dasharray:none;stroke-dashoffset:0;marker:none;visibility:visible;display:inline;overflow:visible;enable-background:accumulate" />
    <rect
       style="color:#000000;fill:#ffffff;fill-opacity:1;fill-rule:nonzero;stroke:#2b3e50;stroke-width:20;stroke-linecap:butt;stroke-linejoin:round;stroke-miterlimit:4;stroke-opacity:1;stroke-dasharray:none;stroke-dashoffset:0;marker:none;visibility:visible;display:inline;overflow:visible;enable-background:accumulate"
       id="rect4155"
       width="200"
       height="200"
       x="-402"
       y="-757.63782" />
    <rect
       y="-741.63782"
       x="-730"
       height="200"
       width="200"
       id="rect4157"
       style="color:#000000;fill:#ffffff;fill-opacity:1;fill-rule:nonzero;stroke:#2b3e50;stroke-width:20;stroke-linecap:butt;stroke-linejoin:round;stroke-miterlimit:4;stroke-opacity:1;stroke-dasharray:none;stroke-dashoffset:0;marker:none;visibility:visible;display:inline;overflow:visible;enable-background:accumulate" />
    <rect
       style="color:#000000;fill:#ffffff;fill-opacity:1;fill-rule:nonzero;stroke:#2b3e50;stroke-width:20;stroke-linecap:butt;stroke-linejoin:round;stroke-miterlimit:4;stroke-opacity:1;stroke-dasharray:none;stroke-dashoffset:0;marker:none;visibility:visible;display:inline;overflow:visible;enable-background:accumulate"
       id="rect4159"
       width="200"
       height="200"
       x="-586"
       y="-685.63782" />
    <rect
       y="-613.63782"
       x="-450"
       height="200"
       width="200"
       id="rect4161"
       style="color:#000000;fill:#ffffff;fill-opacity:1;fill-rule:nonzero;stroke:#2b3e50;stroke-width:20;stroke-linecap:butt;stroke-linejoin:round;stroke-miterlimit:4;stroke-opacity:1;stroke-dasharray:none;stroke-dashoffset:0;marker:none;visibility:visible;display:inline;overflow:visible;enable-background:accumulate" />
    <rect
       style="color:#000000;fill:#ffffff;fill-opacity:1;fill-rule:nonzero;stroke:#2b3e50;stroke-width:20;stroke-linecap:butt;stroke-linejoin:round;stroke-miterlimit:4;stroke-opacity:1;stroke-dasharray:none;stroke-dashoffset:0;marker:none;visibility:visible;display:inline;overflow:visible;enable-background:accumulate"
       id="rect4169"
       width="200"
       height="200"
       x="-698"
       y="-565.63782" />
    <path
       style="fill:#4e5d6c;stroke:#2b3e50;stroke-width:20;stroke-miterlimit:4;stroke-dasharray:none;stroke-linejoin:round;fill-opacity:1;stroke-opacity:1"
       d="M 131,1044.3217 C 106.01094,1026.1461 77.10154,998.88241 59.998716,977.36218 26.553897,935.27905 6.5714356,888.58022 1.4798073,840.60401 -0.13247392,825.41218 -0.48283818,805.36218 0.86397304,805.36218 c 0.47518516,0 8.39586186,-4.51735 17.60150396,-10.03854 18.859901,-11.31147 27.222535,-15.68312 36.268402,-18.95968 3.428634,-1.2419 6.630029,-2.76285 7.114211,-3.37989 0.484182,-0.61704 2.308223,-6.01291 4.053424,-11.99083 14.926515,-51.12846 41.495176,-97.91186 77.406546,-136.30123 3.25669,-3.4814 6.54466,-6.32983 7.3066,-6.32983 1.13441,0 1.38772,3.66786 1.39848,20.25 0.0103,15.81017 0.42121,22.22715 1.87437,29.26774 7.09964,34.39806 33.4678,61.67975 68.69695,71.077 5.30955,1.4163 10.39899,1.83501 21.91554,1.80301 17.8074,-0.0495 25.81179,-1.82407 40.22137,-8.91716 25.39169,-12.49902 43.56624,-35.56131 49.84288,-63.24727 0.96965,-4.27709 1.74334,-14.68438 2.12093,-28.52972 0.44972,-16.48989 0.89357,-21.72424 1.82313,-21.5 1.69751,0.40949 15.22009,15.27089 24.72081,27.16832 25.63559,32.10256 46.9419,72.92907 58.25583,111.62808 4.92142,16.83356 4.71986,16.44518 9.23682,17.79849 6.14548,1.84123 24.87242,11.32064 36.35474,18.40243 5.73292,3.53581 12.78599,7.7086 15.67349,9.27285 l 5.25,2.84409 0,13.78985 c 0,81.0742 -46.32451,162.27156 -126.5,221.72851 -9.66534,7.1677 -14.44452,9.8285 -13.31622,7.4138 0.19274,-0.4125 3.10965,-6.375 6.48201,-13.25 10.42955,-21.262 17.35974,-41.48333 18.95285,-55.30173 0.66088,-5.73236 0.74691,-5.86046 7.19743,-10.71715 8.26932,-6.22609 14.36222,-13.56788 18.65694,-22.48114 4.67893,-9.71064 5.88585,-17.04808 5.30658,-32.26126 -0.68325,-17.94404 -3.07839,-22.97005 -12.97527,-27.22758 C 385.15868,884.51447 384,885.10202 384,891.3308 c 0,2.76726 -0.38864,5.03138 -0.86364,5.03138 -2.17412,0 -6.02577,5.41345 -6.62283,9.30832 -1.70436,11.11831 -11.46637,35.49633 -17.28625,43.16778 -6.95042,9.16168 -17.16553,15.23644 -29.58014,17.59082 -7.23018,1.37117 -23.17068,1.10531 -30.81022,-0.51387 -21.52038,-4.56118 -32.44107,-17.36506 -38.9329,-45.64657 -1.6777,-7.30883 -3.67876,-14.50398 -4.4468,-15.98922 -3.43149,-6.63575 -18.5492,-6.50764 -22.01089,0.18653 -0.8211,1.58783 -2.817,8.71934 -4.43534,15.8478 -8.04504,35.43681 -24.05158,48.11752 -59.01099,46.74971 -21.6781,-0.84818 -34.4215,-7.6198 -43.50346,-23.11699 -3.90416,-6.66195 -11.05167,-25.22359 -13.01078,-33.78821 -2.08734,-9.12518 -3.09428,-11.24863 -6.09583,-12.85501 C 105.38259,896.22898 105,895.26029 105,891.25222 c 0,-2.6246 -0.46011,-5.05637 -1.02247,-5.40393 -0.56236,-0.34755 -3.23423,0.10271 -5.937484,1.00059 -5.881131,1.9534 -11.490869,7.68969 -12.915267,13.20663 -1.727252,6.68994 -2.293795,20.531 -1.217306,29.73964 1.775452,15.18781 9.924157,29.07336 22.402057,38.17355 7.55869,5.51259 8.69011,6.92294 8.69176,10.83461 0.004,10.25014 9.36959,37.53039 20.4959,59.70289 3.54815,7.0708 6.12531,12.8266 5.727,12.7906 -0.3983,-0.036 -4.99919,-3.1748 -10.22419,-6.9751 z m 52.48256,-85.47331 c 3.8404,-0.81349 9.4654,-2.6919 12.5,-4.17426 16.00823,-7.8198 26.41002,-28.71571 23.30829,-46.82348 -3.13018,-18.27386 -15.6797,-24.95911 -46.79085,-24.92593 -17.08282,0.0182 -24.18046,1.4405 -33.98623,6.81043 -11.82459,6.47549 -14.76179,15.24889 -10.62149,31.72631 7.4623,29.69821 27.68391,43.29813 55.59028,37.38693 z m 142.63095,0.50851 c 17.67129,-3.29799 29.52679,-16.13638 34.99421,-37.89544 4.1403,-16.47742 1.2031,-25.25082 -10.62149,-31.72631 -9.80577,-5.36993 -16.90341,-6.79221 -33.98623,-6.81043 -31.11115,-0.0332 -43.66067,6.65207 -46.79085,24.92593 -3.10538,18.12908 7.2996,39.00339 23.34965,46.84371 10.04533,4.90706 22.40389,6.6503 33.05471,4.66254 z m -55.57165,-76.23208 c 3.87303,-1.96798 9.92496,-4.52462 13.44875,-5.68142 14.3425,-4.7084 47.73862,-5.18514 76.43888,-1.09118 8.21121,1.17129 15.18621,2.15598 15.5,2.18821 2.88674,0.29647 3.07051,-0.52008 3.07051,-13.64307 0,-11.80498 -0.21573,-13.57871 -1.75,-14.38878 -4.01389,-2.11926 -48.13893,-8.55011 -77.75,-11.33141 -21.58947,-2.02785 -93.11433,-1.71473 -116,0.50782 -28.21253,2.73988 -71.51665,9.3663 -73.38898,11.23003 -0.33606,0.33452 -0.76031,5.93281 -0.94278,12.44066 -0.35502,12.6621 0.56519,16.54327 3.68742,15.55231 0.95361,-0.30266 8.01371,-1.4598 15.68909,-2.57141 27.8321,-4.03087 62.20688,-3.57377 76.17887,1.013 3.36661,1.10521 9.65533,3.71857 13.97492,5.80747 l 7.8538,3.79801 18.47383,-0.12604 18.47383,-0.12604 7.04186,-3.57816 z M 49.779888,818.77193 c 54.385022,-16.95917 110.734162,-26.35862 169.855892,-28.33321 77.90248,-2.60185 151.63918,6.99808 219.64288,28.59575 17.33304,5.50489 20.00418,5.39035 20.52811,-0.88025 C 460.21278,813.295 459.06862,812.62677 440.5,806.87848 325.37826,771.24017 194.3223,768.35132 76.5,798.85486 53.414289,804.83162 31.694737,811.93702 29.669177,814.17524 28.751129,815.18967 28,816.84879 28,817.86218 c 0,2.46537 2.86076,5.5 5.184876,5.5 1.031195,0 8.498951,-2.06561 16.595012,-4.59025 z M 232,728.73181 c -32.10763,-6.19672 -54.94323,-26.13975 -65.1181,-56.86963 -2.25224,-6.80218 -2.32735,-8.20335 -2.65776,-49.58191 l -0.34001,-42.5819 40.14226,-34.24677 c 36.0754,-30.77718 40.31101,-34.10186 41.80794,-32.81644 0.91612,0.78667 18.31567,15.61311 38.66567,32.94762 20.35,17.33452 37.82332,32.43879 38.8296,33.56506 1.72371,1.92922 1.80577,4.38222 1.41769,42.38104 -0.45509,44.56114 -0.62612,45.97388 -7.34534,60.67358 -9.45686,20.68887 -26.43397,35.86076 -48.40195,43.25526 -8.34277,2.80821 -11.02267,3.23177 -22,3.47716 -6.875,0.15369 -13.625,0.0623 -15,-0.20307 z"
       id="path2996"
       inkscape:connector-curvature="0" />
    <path
       inkscape:connector-curvature="0"
       id="path4204"
       d="m 84.739605,1342.829 c -0.257307,-0.581 -6.599141,-14.9981 -14.092969,-32.0379 -7.493825,-17.0398 -13.681924,-31.0383 -13.751331,-31.1077 -0.06941,-0.069 -0.181511,-0.071 -0.249122,0 -0.06761,0.068 -2.573869,13.9988 -5.569471,30.9582 -2.995601,16.9594 -5.539624,30.9283 -5.653389,31.0421 -0.124994,0.125 -2.545144,0.1841 -6.116102,0.1495 l -5.909257,-0.057 0.07034,-0.5385 c 0.133586,-1.0227 19.044719,-97.4698 19.129909,-97.5629 0.04699,-0.051 0.187492,0.01 0.312232,0.1335 0.124737,0.1247 7.386507,16.645 16.137267,36.7117 8.750758,20.0667 16.038072,36.5089 16.194034,36.5382 0.186715,0.035 5.719335,-12.435 16.198844,-36.5107 8.75341,-20.1102 15.99739,-36.6544 16.09773,-36.765 0.10035,-0.1106 0.24269,-0.1408 0.31633,-0.067 0.20889,0.2089 19.26299,97.5963 19.15425,97.8992 -0.0741,0.2066 -1.47529,0.2693 -6.01424,0.2693 -3.25469,0 -5.96223,-0.073 -6.01677,-0.1616 -0.0545,-0.089 -2.54347,-14.0226 -5.53096,-30.964 -2.98749,-16.9414 -5.50902,-30.8864 -5.60339,-30.9889 -0.0944,-0.1024 -0.32088,0.1025 -0.50337,0.4554 -0.1825,0.3529 -6.5485,14.7825 -14.146677,32.0658 -7.598179,17.2833 -13.85339,31.4634 -13.900466,31.5113 -0.04708,0.048 -0.296118,-0.3882 -0.553422,-0.9693 z m 338.860665,0.6634 c -12.23663,-1.6352 -23.57,-7.8695 -31.49092,-17.3226 -4.9238,-5.8762 -8.61491,-13.4351 -10.15708,-20.8002 -0.88259,-4.2151 -1.06835,-6.5838 -0.93603,-11.9358 0.19924,-8.0591 1.52255,-13.518 4.99128,-20.5899 6.21048,-12.6618 17.67171,-22.1235 31.33904,-25.8716 5.28524,-1.4494 7.18981,-1.683 13.79167,-1.6915 5.18812,-0.01 6.24449,0.051 8.50839,0.4644 4.9292,0.9003 10.40337,2.7931 14.00115,4.841 l 1.29241,0.7357 0.0569,6.7222 c 0.0404,4.7648 -0.0119,6.7222 -0.17915,6.7222 -0.12982,0 -0.64009,-0.3274 -1.13392,-0.7276 -2.85522,-2.3138 -7.74171,-4.9129 -11.56027,-6.149 -16.29559,-5.2748 -33.1769,0.5022 -42.6724,14.603 -9.65577,14.3388 -8.79043,33.6638 2.10573,47.0258 0.64593,0.7922 2.11803,2.3431 3.27134,3.4465 9.23427,8.8349 22.14419,12.1267 34.55858,8.812 5.08707,-1.3584 9.78255,-3.711 13.83709,-6.933 0.88104,-0.7001 1.65179,-1.2729 1.71284,-1.2729 0.061,0 0.11095,3.0985 0.11095,6.8856 l 0,6.8855 -1.55693,0.8598 c -3.61716,1.9974 -9.85672,4.0939 -14.81364,4.9774 -3.45652,0.6161 -11.55148,0.7841 -15.07704,0.313 z m -499.963778,-2.0936 c 1.145051,-2.8921 44.869102,-97.8496 45.055765,-97.8496 0.272658,0 44.968825,97.3262 44.986036,97.9574 0.0097,0.3561 -0.386378,0.3766 -6.2568221,0.3231 l -6.267189,-0.057 -5.3342409,-11.7394 -5.334243,-11.7395 -21.650992,-0.055 c -17.793004,-0.045 -21.693319,0 -21.888527,0.2313 -0.130641,0.1574 -2.594835,5.4648 -5.475982,11.7943 l -5.238449,11.5081 -6.394253,0.057 -6.394253,0.057 0.19315,-0.4879 z m 61.278347,-34.1136 c 0.187397,-0.072 0.340721,-0.217 0.340721,-0.3224 0,-0.268 -16.168652,-37.0888 -16.394675,-37.3356 -0.101265,-0.1106 -0.240202,-0.145 -0.308749,-0.076 -0.141556,0.1415 -16.239663,36.7031 -16.402634,37.2531 -0.06639,0.2241 0.04213,0.3955 0.291079,0.4597 0.592074,0.1527 32.078103,0.1736 32.474258,0.022 z m 181.762801,-12.7396 0.0543,-47.3346 25.36362,-0.055 25.36361,-0.055 0,5.3848 0,5.3848 -19.44005,0.055 -19.44005,0.055 0,13.1395 0,13.1396 18.84769,0.1077 18.8477,0.1077 0,5.385 0,5.3851 -18.8477,0.1077 -18.84769,0.1077 0,17.7707 0,17.7707 19.44005,0.055 19.44005,0.055 0,5.3839 0,5.3839 -25.41794,0 -25.41796,0 0.0543,-47.3347 z m 84.38431,-0.074 0,-47.4092 12.22407,0.1043 c 7.36926,0.063 12.90846,0.2015 13.9473,0.349 9.9663,1.4147 15.79474,4.4399 20.32447,10.5492 7.66906,10.3433 6.7688,25.6978 -2.04776,34.926 -3.6333,3.803 -8.03084,6.2372 -13.21476,7.3151 -1.25101,0.2601 -1.82428,0.4743 -1.80994,0.6763 0.0114,0.1625 6.5786,9.3316 14.59351,20.3757 8.01488,11.044 14.57252,20.1797 14.57252,20.3014 0,0.1471 -2.36893,0.2214 -7.05621,0.2214 l -7.05624,0 -13.90167,-19.9786 -13.90167,-19.9785 -2.34197,-0.062 c -1.72849,-0.045 -2.38797,0.011 -2.51764,0.2154 -0.0966,0.1523 -0.17719,9.1703 -0.179,20.04 l -0.003,19.7632 -5.81586,0 -5.81586,0 0,-47.4092 z m 22.8005,-2.8993 c 11.15337,-1.2977 16.7856,-5.9807 17.68045,-14.7006 0.56181,-5.4749 -0.77284,-9.8854 -3.96148,-13.0912 -3.95597,-3.9772 -9.67234,-5.7138 -19.91067,-6.0486 -4.1225,-0.1349 -4.4109,-0.1191 -4.685,0.2557 -0.23978,0.3279 -0.29208,3.339 -0.29208,16.8189 0,9.0308 0.0588,16.5728 0.13075,16.7602 0.11276,0.2939 0.68321,0.3407 4.14649,0.3405 2.2513,-1e-4 5.27932,-0.1473 6.89154,-0.3349 z m 63.89078,50.0392 c -0.0563,-0.1481 -0.0775,-21.4486 -0.0471,-47.3346 l 0.0552,-47.0654 5.81586,0 5.81587,0 0.0543,47.3346 0.0543,47.3347 -5.8231,0 c -4.46034,0 -5.84705,-0.063 -5.92542,-0.2693 z m 140.5581,-0.049 c 0,-0.3556 44.50796,-97.6732 44.81954,-97.9989 0.10578,-0.1106 0.25213,-0.1412 0.32522,-0.068 0.0731,0.073 10.24911,22.2154 22.61342,49.2051 l 22.48059,49.0722 -6.27905,0.057 c -3.45347,0.031 -6.35092,-0.017 -6.43878,-0.1077 -0.0879,-0.091 -2.45233,-5.2053 -5.25439,-11.3658 -2.80204,-6.1605 -5.23501,-11.4195 -5.40658,-11.6866 l -0.31196,-0.4857 -21.66893,0.055 -21.66891,0.055 -5.33958,11.7395 -5.33959,11.7394 -6.26549,0.057 c -5.46219,0.05 -6.26551,0.015 -6.26551,-0.2673 z m 61.50641,-34.4068 c 0.12321,-0.1232 -15.70099,-36.5112 -16.29764,-37.4767 -0.11242,-0.1818 -0.24073,-0.2041 -0.37135,-0.064 -0.23283,0.2492 -16.40433,37.0798 -16.40433,37.3609 0,0.104 0.12117,0.2389 0.26926,0.2999 0.41553,0.1708 32.63111,0.053 32.80406,-0.1198 z M 338.51526,1234.263 c -0.41465,-0.051 -1.74872,-0.2417 -2.9646,-0.4247 -8.84267,-1.3311 -15.41761,-5.949 -16.95418,-11.9075 -2.17968,-8.4526 2.62019,-15.7266 12.0566,-18.2713 1.98347,-0.5349 2.47807,-0.5809 6.24666,-0.5811 4.30654,-2e-4 5.37326,0.1797 5.2377,0.8836 -0.0737,0.3828 -0.41376,0.4997 -2.76057,0.9489 -1.77261,0.3393 -4.7331,1.8178 -6.16423,3.0786 -1.46741,1.2927 -2.98662,3.5586 -3.63407,5.4204 -0.97397,2.8006 -1.09761,6.6386 -0.31861,9.8914 0.77707,3.2449 3.31209,6.5279 6.03999,7.8223 4.55908,2.1632 11.32723,2.293 17.21646,0.3303 6.36427,-2.121 14.22607,-8.0662 20.98724,-15.8708 7.95121,-9.1784 14.50689,-19.4246 28.5514,-44.6245 3.7553,-6.7381 7.26431,-12.7783 8.9799,-15.4573 0.51286,-0.8009 0.93248,-1.6006 0.93248,-1.7771 0,-0.2762 -0.79526,-0.3209 -5.70816,-0.3209 -4.05079,0 -5.70816,-0.07 -5.70816,-0.2399 0,-0.132 0.21172,-0.6166 0.47046,-1.077 l 0.47048,-0.8371 5.96774,0 c 5.37672,0 6.01016,-0.037 6.3962,-0.377 0.23567,-0.2073 1.08836,-1.4916 1.8949,-2.854 2.06342,-3.4856 6.89571,-11.0116 8.7508,-13.6288 3.47678,-4.905 8.78182,-11.0368 12.36157,-14.288 7.14084,-6.4853 14.11959,-10.4516 20.66175,-11.7428 2.29532,-0.453 8.87044,-0.4034 10.66241,0.081 3.81135,1.0291 6.73869,3.1856 8.03265,5.9173 0.65332,1.3793 0.69114,1.5947 0.69097,3.9362 -1.7e-4,2.2288 -0.0574,2.5991 -0.57039,3.6938 -1.29863,2.7708 -4.23179,4.591 -8.31282,5.1586 -1.99213,0.2771 -3.93305,0.097 -3.93305,-0.366 0,-0.1727 0.24097,-0.8866 0.53549,-1.5863 3.04843,-7.2428 2.1328,-14.2395 -2.02657,-15.4857 -4.02158,-1.2049 -9.58428,2.0064 -15.59502,9.0029 -3.8775,4.5134 -8.63974,11.2874 -12.5783,17.8919 -2.57109,4.3115 -8.031,13.976 -8.031,14.2156 0,0.1145 0.2181,0.2626 0.48466,0.3291 0.26656,0.066 7.26982,0.088 15.56281,0.049 14.89556,-0.071 15.09468,-0.078 16.44204,-0.5471 2.88387,-1.0042 5.52093,-1.4109 9.19083,-1.4176 5.16612,-0.01 8.04303,0.9006 10.82965,3.4251 2.66366,2.4132 4.16306,5.1252 4.9768,9.0015 0.57468,2.7375 1.48544,4.5741 2.95993,5.9686 1.7915,1.6943 2.73697,2.0404 5.57407,2.0404 3.10761,0 4.06238,-0.3436 4.93052,-1.7744 0.34236,-0.5642 2.60768,-4.4184 5.03406,-8.5649 2.42637,-4.1465 4.56954,-7.6961 4.76258,-7.8881 0.29803,-0.2963 1.37505,-0.3836 7.13617,-0.5781 3.73185,-0.1261 6.85647,-0.1594 6.94362,-0.074 0.0872,0.085 -3.24128,4.9478 -7.39654,10.8056 -4.15526,5.8579 -7.65073,10.8464 -7.76769,11.0856 -0.26337,0.5386 1.13517,-0.9071 4.27067,-4.4145 3.89084,-4.3524 9.96486,-9.7451 14.29686,-12.6932 1.12129,-0.763 2.7436,-2.0326 3.60514,-2.8212 1.72837,-1.5821 3.15457,-2.3907 5.11104,-2.8979 1.30362,-0.3379 8.89892,-0.8677 9.12981,-0.6368 0.14052,0.1405 -0.0257,0.4377 -1.88878,3.3778 -2.95549,4.664 -4.11438,7.8346 -4.11498,11.2584 0,2.209 0.27602,3.1692 1.20981,4.2028 1.03393,1.1444 2.42482,1.5871 4.59254,1.4616 2.81779,-0.1631 5.60986,-1.76 9.41429,-5.3842 1.09442,-1.0427 2.08158,-1.8957 2.1937,-1.8957 0.11212,0 0.26169,0.1508 0.33241,0.335 0.18746,0.4886 -3.35642,4.0681 -5.63893,5.6957 -2.37697,1.6949 -4.68543,2.8602 -7.09158,3.5799 -1.51462,0.453 -2.49315,0.5871 -4.90984,0.6728 -3.35849,0.1192 -4.89305,-0.1396 -6.9481,-1.1718 -1.29732,-0.6516 -3.02028,-2.3712 -3.68885,-3.6817 -1.4369,-2.8165 -1.4469,-7.2722 -0.0229,-10.2195 0.82861,-1.715 0.50113,-1.6686 -2.13502,0.3027 -3.23651,2.4203 -5.67211,4.5935 -9.28686,8.2863 -7.49128,7.6531 -12.81833,15.0535 -20.16102,28.0077 l -0.5084,0.897 -1.56345,0.1195 c -0.85991,0.066 -3.6717,0.1775 -6.24845,0.2483 -3.6797,0.1013 -4.685,0.071 -4.685,-0.1411 0,-0.316 3.31282,-6.039 9.30839,-16.0806 2.35366,-3.942 4.34021,-7.3258 4.41456,-7.5196 0.12007,-0.3128 -0.0317,-0.3371 -1.35496,-0.2163 -3.374,0.3078 -6.06593,-0.5946 -8.54215,-2.8637 -0.77812,-0.713 -1.49683,-1.2952 -1.59714,-1.2937 -0.10031,0 -0.5533,1.161 -1.00666,2.5767 -4.27466,13.349 -15.73081,23.9899 -29.03467,26.9686 -1.92208,0.4304 -2.82567,0.5007 -6.43633,0.5007 -3.80054,0 -4.35412,-0.048 -5.81586,-0.5043 -2.48824,-0.7766 -4.03537,-1.701 -5.82519,-3.4806 -1.83887,-1.8284 -2.74011,-3.3679 -3.47226,-5.9312 -0.67443,-2.3612 -0.68319,-7.2273 -0.0183,-10.1291 1.89851,-8.2851 8.20697,-16.453 16.95198,-21.9485 1.17896,-0.7409 2.18059,-1.4581 2.22582,-1.5939 0.12452,-0.3735 -26.01898,-0.3514 -26.48858,0.023 -0.60995,0.4855 -5.49982,8.9183 -9.64885,16.6398 -10.46907,19.4833 -19.7075,33.5348 -28.12129,42.7722 -4.22276,4.6362 -8.6208,8.4313 -13.67074,11.7969 -7.133,4.7538 -14.53818,7.7204 -22.17053,8.8817 -2.80376,0.4266 -10.56557,0.7367 -12.50901,0.4998 z m 112.5054,-39.0674 c 4.08838,-1.5523 9.41273,-6.9041 13.38387,-13.453 5.19446,-8.5663 8.75618,-18.4694 8.75918,-24.3543 0.002,-3.9893 -1.31661,-6.0509 -4.21269,-6.5862 -3.9642,-0.7329 -8.74865,2.0055 -13.76567,7.8786 -6.02221,7.0498 -12.13315,20.456 -13.05019,28.6295 -0.4806,4.2835 0.67294,7.3041 3.14149,8.226 1.18907,0.444 4.13792,0.2692 5.74401,-0.3406 z m -474.704294,1.9026 c -10.365057,-0.5161 -20.447033,-4.4401 -28.863902,-11.2342 -2.226211,-1.797 -6.745155,-6.4438 -8.457281,-8.6965 -6.712931,-8.8325 -10.660596,-18.9904 -11.699869,-30.1054 -0.347039,-3.7115 -0.140057,-10.5297 0.435251,-14.3374 1.627385,-10.771 6.061921,-21.0445 12.51529,-28.9942 6.485575,-7.9894 15.4869,-13.9913 25.135924,-16.7602 5.790725,-1.6618 13.27842,-2.431 18.298268,-1.8798 5.802235,0.637 12.02168,2.3737 16.95940628,4.7357 l 2.70989612,1.2963 0,12.185 c 0,6.7018 -0.054339,12.185 -0.1207567,12.185 -0.066415,0 -0.8793754,-0.7586 -1.8065787,-1.6858 -4.8545508,-4.8546 -10.8983526,-7.8911 -17.679537,-8.8827 -1.131303,-0.1654 -3.010658,-0.2175 -5.142946,-0.1426 -3.952728,0.1387 -7.059507,0.8265 -10.448812,2.3129 -10.408257,4.5647 -17.821726,15.797 -19.403459,29.3986 -1.886308,16.2207 5.786943,32.065 18.501046,38.2024 3.626558,1.7506 6.896015,2.5615 11.124221,2.7591 3.248391,0.1519 5.392557,-0.074 8.551978,-0.9017 5.1745568,-1.3552 10.2220607,-4.2239 14.5172915,-8.2507 0.9056201,-0.8491 1.7061087,-1.5437 1.7788608,-1.5437 0.072754,0 0.1072402,5.4443 0.076636,12.0985 l -0.055645,12.0985 -2.36942487,1.0544 c -5.46737453,2.433 -11.20552243,4.1606 -15.86381443,4.7762 -3.116638,0.4118 -5.194524,0.4865 -8.692043,0.3123 z m 106.624117,0 c -12.951827,-0.5857 -24.179967,-5.2977 -33.037329,-13.8644 -8.903172,-8.611 -14.37893,-20.3014 -16.101455,-34.3756 -0.426111,-3.4816 -0.484058,-11.5292 -0.106887,-14.8442 0.921177,-8.0964 2.836684,-14.702 6.191139,-21.35 2.732354,-5.4151 5.741858,-9.5149 10.031557,-13.6659 7.459384,-7.2182 16.037168,-11.4255 27.267526,-13.3745 3.063326,-0.5316 3.899238,-0.5883 8.771081,-0.5954 5.885029,-0.01 8.541279,0.2982 13.872368,1.6016 6.904327,1.688 13.876897,5.1167 19.281397,9.4812 12.97711,10.4801 20.31394,28.0023 19.65863,46.9499 -0.33864,9.7916 -2.31665,18.0899 -6.18701,25.956 -9.31305,18.9279 -27.28167,29.0925 -49.641017,28.0813 z m 8.942091,-20.7433 c 9.003886,-1.5805 15.834056,-6.5062 20.362206,-14.6843 4.58597,-8.2825 6.32943,-19.9421 4.39867,-29.4165 -2.4571,-12.0573 -10.65707,-22.0101 -20.886532,-25.3514 -5.765158,-1.8832 -12.41978,-2.0061 -18.258519,-0.3374 -2.541753,0.7264 -6.6695,2.7748 -8.890872,4.412 -6.592983,4.8593 -11.330775,12.666 -13.146786,21.6628 -0.668269,3.3106 -0.817592,9.7051 -0.318246,13.6282 1.555236,12.219 7.14435,21.7789 15.630247,26.735 3.10366,1.8126 7.442802,3.198 11.413833,3.6441 2.377085,0.267 7.366021,0.1165 9.695999,-0.2925 z m 78.538626,17.6424 c -0.0743,-0.1937 -0.1351,-24.0729 -0.1351,-53.065 0,-40.7116 0.0589,-52.7717 0.25848,-52.9713 0.33415,-0.3341 27.71456,-0.3608 32.8969,-0.032 7.6353,0.4844 13.89554,2.0822 20.15668,5.1445 9.73818,4.763 17.1846,12.2624 22.08586,22.2433 2.64466,5.3855 4.42701,11.303 5.30714,17.6202 0.46644,3.3478 0.53646,12.661 0.11744,15.6167 -2.02515,14.2847 -7.86595,25.535 -17.57644,33.8548 -3.16473,2.7115 -6.27798,4.7476 -10.1494,6.6377 -4.90446,2.3944 -8.77112,3.6352 -14.5545,4.6705 -2.59889,0.4652 -3.20135,0.4816 -20.47482,0.556 -16.3155,0.07 -17.80838,0.047 -17.93224,-0.2754 z m 31.93463,-18.0844 c 8.22934,-1.1911 14.15133,-3.8717 18.77653,-8.4992 4.84679,-4.8492 7.4965,-10.8653 8.6386,-19.6139 0.34958,-2.6778 0.34633,-10.9567 -0.005,-13.5704 -1.11467,-8.2849 -3.69376,-14.3125 -8.10223,-18.9357 -5.9926,-6.2846 -14.38896,-9.3149 -25.95979,-9.369 l -4.41574,-0.021 -0.0553,35.0029 c -0.0304,19.2516 -0.003,35.1392 0.06,35.3058 0.0963,0.253 0.83371,0.28 4.47106,0.1635 2.39564,-0.077 5.36216,-0.2852 6.59223,-0.4633 z m 80.80105,-34.7676 c 0,-48.2957 0.0313,-53.1933 0.34072,-53.312 0.44537,-0.1709 53.80077,-0.1709 54.24613,0 0.3031,0.1163 0.34073,1.1151 0.34073,9.0456 l 0,8.9148 -17.07063,0.055 -17.07063,0.055 0,11.7394 0,11.7395 16.42442,0.055 16.42442,0.055 0,8.9365 0,8.9365 -16.42442,0.055 -16.42442,0.055 0,14.4319 0,14.432 17.07063,0.055 17.07063,0.055 0,8.9378 0,8.9379 -27.46379,0 -27.46379,0 0,-53.1813 z"
       style="fill:#d0d5d8;fill-opacity:1" />
    <image
       y="1084.9054"
       x="1053.4351"
       id="image4179"
       xlink:href="file:///H:/temp/novalogo/CfA_logo_lg.png"
       height="258.91351"
       width="645.12976" />
    <image
       y="511.36218"
       x="0"
       id="image2993"
       xlink:href="file:///H:/temp/novalogo/brigade_icon_v2.png"
       height="541"
       width="488" />
    <path
       style="fill:#d0d5d8;fill-opacity:1"
       d="m 84.739605,1342.829 c -0.257307,-0.581 -6.599141,-14.9981 -14.092969,-32.0379 -7.493825,-17.0398 -13.681924,-31.0383 -13.751331,-31.1077 -0.06941,-0.069 -0.181511,-0.071 -0.249122,0 -0.06761,0.068 -2.573869,13.9988 -5.569471,30.9582 -2.995601,16.9594 -5.539624,30.9283 -5.653389,31.0421 -0.124994,0.125 -2.545144,0.1841 -6.116102,0.1495 l -5.909257,-0.057 0.07034,-0.5385 c 0.133586,-1.0227 19.044719,-97.4698 19.129909,-97.5629 0.04699,-0.051 0.187492,0.01 0.312232,0.1335 0.124737,0.1247 7.386507,16.645 16.137267,36.7117 8.750758,20.0667 16.038072,36.5089 16.194034,36.5382 0.186715,0.035 5.719335,-12.435 16.198844,-36.5107 8.75341,-20.1102 15.99739,-36.6544 16.09773,-36.765 0.10035,-0.1106 0.24269,-0.1408 0.31633,-0.067 0.20889,0.2089 19.26299,97.5963 19.15425,97.8992 -0.0741,0.2066 -1.47529,0.2693 -6.01424,0.2693 -3.25469,0 -5.96223,-0.073 -6.01677,-0.1616 -0.0545,-0.089 -2.54347,-14.0226 -5.53096,-30.964 -2.98749,-16.9414 -5.50902,-30.8864 -5.60339,-30.9889 -0.0944,-0.1024 -0.32088,0.1025 -0.50337,0.4554 -0.1825,0.3529 -6.5485,14.7825 -14.146677,32.0658 -7.598179,17.2833 -13.85339,31.4634 -13.900466,31.5113 -0.04708,0.048 -0.296118,-0.3882 -0.553422,-0.9693 z m 338.860665,0.6634 c -12.23663,-1.6352 -23.57,-7.8695 -31.49092,-17.3226 -4.9238,-5.8762 -8.61491,-13.4351 -10.15708,-20.8002 -0.88259,-4.2151 -1.06835,-6.5838 -0.93603,-11.9358 0.19924,-8.0591 1.52255,-13.518 4.99128,-20.5899 6.21048,-12.6618 17.67171,-22.1235 31.33904,-25.8716 5.28524,-1.4494 7.18981,-1.683 13.79167,-1.6915 5.18812,-0.01 6.24449,0.051 8.50839,0.4644 4.9292,0.9003 10.40337,2.7931 14.00115,4.841 l 1.29241,0.7357 0.0569,6.7222 c 0.0404,4.7648 -0.0119,6.7222 -0.17915,6.7222 -0.12982,0 -0.64009,-0.3274 -1.13392,-0.7276 -2.85522,-2.3138 -7.74171,-4.9129 -11.56027,-6.149 -16.29559,-5.2748 -33.1769,0.5022 -42.6724,14.603 -9.65577,14.3388 -8.79043,33.6638 2.10573,47.0258 0.64593,0.7922 2.11803,2.3431 3.27134,3.4465 9.23427,8.8349 22.14419,12.1267 34.55858,8.812 5.08707,-1.3584 9.78255,-3.711 13.83709,-6.933 0.88104,-0.7001 1.65179,-1.2729 1.71284,-1.2729 0.061,0 0.11095,3.0985 0.11095,6.8856 l 0,6.8855 -1.55693,0.8598 c -3.61716,1.9974 -9.85672,4.0939 -14.81364,4.9774 -3.45652,0.6161 -11.55148,0.7841 -15.07704,0.313 z m -499.963778,-2.0936 c 1.145051,-2.8921 44.869102,-97.8496 45.055765,-97.8496 0.272658,0 44.968825,97.3262 44.986036,97.9574 0.0097,0.3561 -0.386378,0.3766 -6.2568221,0.3231 l -6.267189,-0.057 -5.3342409,-11.7394 -5.334243,-11.7395 -21.650992,-0.055 c -17.793004,-0.045 -21.693319,0 -21.888527,0.2313 -0.130641,0.1574 -2.594835,5.4648 -5.475982,11.7943 l -5.238449,11.5081 -6.394253,0.057 -6.394253,0.057 0.19315,-0.4879 z m 61.278347,-34.1136 c 0.187397,-0.072 0.340721,-0.217 0.340721,-0.3224 0,-0.268 -16.168652,-37.0888 -16.394675,-37.3356 -0.101265,-0.1106 -0.240202,-0.145 -0.308749,-0.076 -0.141556,0.1415 -16.239663,36.7031 -16.402634,37.2531 -0.06639,0.2241 0.04213,0.3955 0.291079,0.4597 0.592074,0.1527 32.078103,0.1736 32.474258,0.022 z m 181.762801,-12.7396 0.0543,-47.3346 25.36362,-0.055 25.36361,-0.055 0,5.3848 0,5.3848 -19.44005,0.055 -19.44005,0.055 0,13.1395 0,13.1396 18.84769,0.1077 18.8477,0.1077 0,5.385 0,5.3851 -18.8477,0.1077 -18.84769,0.1077 0,17.7707 0,17.7707 19.44005,0.055 19.44005,0.055 0,5.3839 0,5.3839 -25.41794,0 -25.41796,0 0.0543,-47.3347 z m 84.38431,-0.074 0,-47.4092 12.22407,0.1043 c 7.36926,0.063 12.90846,0.2015 13.9473,0.349 9.9663,1.4147 15.79474,4.4399 20.32447,10.5492 7.66906,10.3433 6.7688,25.6978 -2.04776,34.926 -3.6333,3.803 -8.03084,6.2372 -13.21476,7.3151 -1.25101,0.2601 -1.82428,0.4743 -1.80994,0.6763 0.0114,0.1625 6.5786,9.3316 14.59351,20.3757 8.01488,11.044 14.57252,20.1797 14.57252,20.3014 0,0.1471 -2.36893,0.2214 -7.05621,0.2214 l -7.05624,0 -13.90167,-19.9786 -13.90167,-19.9785 -2.34197,-0.062 c -1.72849,-0.045 -2.38797,0.011 -2.51764,0.2154 -0.0966,0.1523 -0.17719,9.1703 -0.179,20.04 l -0.003,19.7632 -5.81586,0 -5.81586,0 0,-47.4092 z m 22.8005,-2.8993 c 11.15337,-1.2977 16.7856,-5.9807 17.68045,-14.7006 0.56181,-5.4749 -0.77284,-9.8854 -3.96148,-13.0912 -3.95597,-3.9772 -9.67234,-5.7138 -19.91067,-6.0486 -4.1225,-0.1349 -4.4109,-0.1191 -4.685,0.2557 -0.23978,0.3279 -0.29208,3.339 -0.29208,16.8189 0,9.0308 0.0588,16.5728 0.13075,16.7602 0.11276,0.2939 0.68321,0.3407 4.14649,0.3405 2.2513,-1e-4 5.27932,-0.1473 6.89154,-0.3349 z m 63.89078,50.0392 c -0.0563,-0.1481 -0.0775,-21.4486 -0.0471,-47.3346 l 0.0552,-47.0654 5.81586,0 5.81587,0 0.0543,47.3346 0.0543,47.3347 -5.8231,0 c -4.46034,0 -5.84705,-0.063 -5.92542,-0.2693 z m 140.5581,-0.049 c 0,-0.3556 44.50796,-97.6732 44.81954,-97.9989 0.10578,-0.1106 0.25213,-0.1412 0.32522,-0.068 0.0731,0.073 10.24911,22.2154 22.61342,49.2051 l 22.48059,49.0722 -6.27905,0.057 c -3.45347,0.031 -6.35092,-0.017 -6.43878,-0.1077 -0.0879,-0.091 -2.45233,-5.2053 -5.25439,-11.3658 -2.80204,-6.1605 -5.23501,-11.4195 -5.40658,-11.6866 l -0.31196,-0.4857 -21.66893,0.055 -21.66891,0.055 -5.33958,11.7395 -5.33959,11.7394 -6.26549,0.057 c -5.46219,0.05 -6.26551,0.015 -6.26551,-0.2673 z m 61.50641,-34.4068 c 0.12321,-0.1232 -15.70099,-36.5112 -16.29764,-37.4767 -0.11242,-0.1818 -0.24073,-0.2041 -0.37135,-0.064 -0.23283,0.2492 -16.40433,37.0798 -16.40433,37.3609 0,0.104 0.12117,0.2389 0.26926,0.2999 0.41553,0.1708 32.63111,0.053 32.80406,-0.1198 z M 338.51526,1234.263 c -0.41465,-0.051 -1.74872,-0.2417 -2.9646,-0.4247 -8.84267,-1.3311 -15.41761,-5.949 -16.95418,-11.9075 -2.17968,-8.4526 2.62019,-15.7266 12.0566,-18.2713 1.98347,-0.5349 2.47807,-0.5809 6.24666,-0.5811 4.30654,-2e-4 5.37326,0.1797 5.2377,0.8836 -0.0737,0.3828 -0.41376,0.4997 -2.76057,0.9489 -1.77261,0.3393 -4.7331,1.8178 -6.16423,3.0786 -1.46741,1.2927 -2.98662,3.5586 -3.63407,5.4204 -0.97397,2.8006 -1.09761,6.6386 -0.31861,9.8914 0.77707,3.2449 3.31209,6.5279 6.03999,7.8223 4.55908,2.1632 11.32723,2.293 17.21646,0.3303 6.36427,-2.121 14.22607,-8.0662 20.98724,-15.8708 7.95121,-9.1784 14.50689,-19.4246 28.5514,-44.6245 3.7553,-6.7381 7.26431,-12.7783 8.9799,-15.4573 0.51286,-0.8009 0.93248,-1.6006 0.93248,-1.7771 0,-0.2762 -0.79526,-0.3209 -5.70816,-0.3209 -4.05079,0 -5.70816,-0.07 -5.70816,-0.2399 0,-0.132 0.21172,-0.6166 0.47046,-1.077 l 0.47048,-0.8371 5.96774,0 c 5.37672,0 6.01016,-0.037 6.3962,-0.377 0.23567,-0.2073 1.08836,-1.4916 1.8949,-2.854 2.06342,-3.4856 6.89571,-11.0116 8.7508,-13.6288 3.47678,-4.905 8.78182,-11.0368 12.36157,-14.288 7.14084,-6.4853 14.11959,-10.4516 20.66175,-11.7428 2.29532,-0.453 8.87044,-0.4034 10.66241,0.081 3.81135,1.0291 6.73869,3.1856 8.03265,5.9173 0.65332,1.3793 0.69114,1.5947 0.69097,3.9362 -1.7e-4,2.2288 -0.0574,2.5991 -0.57039,3.6938 -1.29863,2.7708 -4.23179,4.591 -8.31282,5.1586 -1.99213,0.2771 -3.93305,0.097 -3.93305,-0.366 0,-0.1727 0.24097,-0.8866 0.53549,-1.5863 3.04843,-7.2428 2.1328,-14.2395 -2.02657,-15.4857 -4.02158,-1.2049 -9.58428,2.0064 -15.59502,9.0029 -3.8775,4.5134 -8.63974,11.2874 -12.5783,17.8919 -2.57109,4.3115 -8.031,13.976 -8.031,14.2156 0,0.1145 0.2181,0.2626 0.48466,0.3291 0.26656,0.066 7.26982,0.088 15.56281,0.049 14.89556,-0.071 15.09468,-0.078 16.44204,-0.5471 2.88387,-1.0042 5.52093,-1.4109 9.19083,-1.4176 5.16612,-0.01 8.04303,0.9006 10.82965,3.4251 2.66366,2.4132 4.16306,5.1252 4.9768,9.0015 0.57468,2.7375 1.48544,4.5741 2.95993,5.9686 1.7915,1.6943 2.73697,2.0404 5.57407,2.0404 3.10761,0 4.06238,-0.3436 4.93052,-1.7744 0.34236,-0.5642 2.60768,-4.4184 5.03406,-8.5649 2.42637,-4.1465 4.56954,-7.6961 4.76258,-7.8881 0.29803,-0.2963 1.37505,-0.3836 7.13617,-0.5781 3.73185,-0.1261 6.85647,-0.1594 6.94362,-0.074 0.0872,0.085 -3.24128,4.9478 -7.39654,10.8056 -4.15526,5.8579 -7.65073,10.8464 -7.76769,11.0856 -0.26337,0.5386 1.13517,-0.9071 4.27067,-4.4145 3.89084,-4.3524 9.96486,-9.7451 14.29686,-12.6932 1.12129,-0.763 2.7436,-2.0326 3.60514,-2.8212 1.72837,-1.5821 3.15457,-2.3907 5.11104,-2.8979 1.30362,-0.3379 8.89892,-0.8677 9.12981,-0.6368 0.14052,0.1405 -0.0257,0.4377 -1.88878,3.3778 -2.95549,4.664 -4.11438,7.8346 -4.11498,11.2584 0,2.209 0.27602,3.1692 1.20981,4.2028 1.03393,1.1444 2.42482,1.5871 4.59254,1.4616 2.81779,-0.1631 5.60986,-1.76 9.41429,-5.3842 1.09442,-1.0427 2.08158,-1.8957 2.1937,-1.8957 0.11212,0 0.26169,0.1508 0.33241,0.335 0.18746,0.4886 -3.35642,4.0681 -5.63893,5.6957 -2.37697,1.6949 -4.68543,2.8602 -7.09158,3.5799 -1.51462,0.453 -2.49315,0.5871 -4.90984,0.6728 -3.35849,0.1192 -4.89305,-0.1396 -6.9481,-1.1718 -1.29732,-0.6516 -3.02028,-2.3712 -3.68885,-3.6817 -1.4369,-2.8165 -1.4469,-7.2722 -0.0229,-10.2195 0.82861,-1.715 0.50113,-1.6686 -2.13502,0.3027 -3.23651,2.4203 -5.67211,4.5935 -9.28686,8.2863 -7.49128,7.6531 -12.81833,15.0535 -20.16102,28.0077 l -0.5084,0.897 -1.56345,0.1195 c -0.85991,0.066 -3.6717,0.1775 -6.24845,0.2483 -3.6797,0.1013 -4.685,0.071 -4.685,-0.1411 0,-0.316 3.31282,-6.039 9.30839,-16.0806 2.35366,-3.942 4.34021,-7.3258 4.41456,-7.5196 0.12007,-0.3128 -0.0317,-0.3371 -1.35496,-0.2163 -3.374,0.3078 -6.06593,-0.5946 -8.54215,-2.8637 -0.77812,-0.713 -1.49683,-1.2952 -1.59714,-1.2937 -0.10031,0 -0.5533,1.161 -1.00666,2.5767 -4.27466,13.349 -15.73081,23.9899 -29.03467,26.9686 -1.92208,0.4304 -2.82567,0.5007 -6.43633,0.5007 -3.80054,0 -4.35412,-0.048 -5.81586,-0.5043 -2.48824,-0.7766 -4.03537,-1.701 -5.82519,-3.4806 -1.83887,-1.8284 -2.74011,-3.3679 -3.47226,-5.9312 -0.67443,-2.3612 -0.68319,-7.2273 -0.0183,-10.1291 1.89851,-8.2851 8.20697,-16.453 16.95198,-21.9485 1.17896,-0.7409 2.18059,-1.4581 2.22582,-1.5939 0.12452,-0.3735 -26.01898,-0.3514 -26.48858,0.023 -0.60995,0.4855 -5.49982,8.9183 -9.64885,16.6398 -10.46907,19.4833 -19.7075,33.5348 -28.12129,42.7722 -4.22276,4.6362 -8.6208,8.4313 -13.67074,11.7969 -7.133,4.7538 -14.53818,7.7204 -22.17053,8.8817 -2.80376,0.4266 -10.56557,0.7367 -12.50901,0.4998 z m 112.5054,-39.0674 c 4.08838,-1.5523 9.41273,-6.9041 13.38387,-13.453 5.19446,-8.5663 8.75618,-18.4694 8.75918,-24.3543 0.002,-3.9893 -1.31661,-6.0509 -4.21269,-6.5862 -3.9642,-0.7329 -8.74865,2.0055 -13.76567,7.8786 -6.02221,7.0498 -12.13315,20.456 -13.05019,28.6295 -0.4806,4.2835 0.67294,7.3041 3.14149,8.226 1.18907,0.444 4.13792,0.2692 5.74401,-0.3406 z m -474.704294,1.9026 c -10.365057,-0.5161 -20.447033,-4.4401 -28.863902,-11.2342 -2.226211,-1.797 -6.745155,-6.4438 -8.457281,-8.6965 -6.712931,-8.8325 -10.660596,-18.9904 -11.699869,-30.1054 -0.347039,-3.7115 -0.140057,-10.5297 0.435251,-14.3374 1.627385,-10.771 6.061921,-21.0445 12.51529,-28.9942 6.485575,-7.9894 15.4869,-13.9913 25.135924,-16.7602 5.790725,-1.6618 13.27842,-2.431 18.298268,-1.8798 5.802235,0.637 12.02168,2.3737 16.95940628,4.7357 l 2.70989612,1.2963 0,12.185 c 0,6.7018 -0.054339,12.185 -0.1207567,12.185 -0.066415,0 -0.8793754,-0.7586 -1.8065787,-1.6858 -4.8545508,-4.8546 -10.8983526,-7.8911 -17.679537,-8.8827 -1.131303,-0.1654 -3.010658,-0.2175 -5.142946,-0.1426 -3.952728,0.1387 -7.059507,0.8265 -10.448812,2.3129 -10.408257,4.5647 -17.821726,15.797 -19.403459,29.3986 -1.886308,16.2207 5.786943,32.065 18.501046,38.2024 3.626558,1.7506 6.896015,2.5615 11.124221,2.7591 3.248391,0.1519 5.392557,-0.074 8.551978,-0.9017 5.1745568,-1.3552 10.2220607,-4.2239 14.5172915,-8.2507 0.9056201,-0.8491 1.7061087,-1.5437 1.7788608,-1.5437 0.072754,0 0.1072402,5.4443 0.076636,12.0985 l -0.055645,12.0985 -2.36942487,1.0544 c -5.46737453,2.433 -11.20552243,4.1606 -15.86381443,4.7762 -3.116638,0.4118 -5.194524,0.4865 -8.692043,0.3123 z m 106.624117,0 c -12.951827,-0.5857 -24.179967,-5.2977 -33.037329,-13.8644 -8.903172,-8.611 -14.37893,-20.3014 -16.101455,-34.3756 -0.426111,-3.4816 -0.484058,-11.5292 -0.106887,-14.8442 0.921177,-8.0964 2.836684,-14.702 6.191139,-21.35 2.732354,-5.4151 5.741858,-9.5149 10.031557,-13.6659 7.459384,-7.2182 16.037168,-11.4255 27.267526,-13.3745 3.063326,-0.5316 3.899238,-0.5883 8.771081,-0.5954 5.885029,-0.01 8.541279,0.2982 13.872368,1.6016 6.904327,1.688 13.876897,5.1167 19.281397,9.4812 12.97711,10.4801 20.31394,28.0023 19.65863,46.9499 -0.33864,9.7916 -2.31665,18.0899 -6.18701,25.956 -9.31305,18.9279 -27.28167,29.0925 -49.641017,28.0813 z m 8.942091,-20.7433 c 9.003886,-1.5805 15.834056,-6.5062 20.362206,-14.6843 4.58597,-8.2825 6.32943,-19.9421 4.39867,-29.4165 -2.4571,-12.0573 -10.65707,-22.0101 -20.886532,-25.3514 -5.765158,-1.8832 -12.41978,-2.0061 -18.258519,-0.3374 -2.541753,0.7264 -6.6695,2.7748 -8.890872,4.412 -6.592983,4.8593 -11.330775,12.666 -13.146786,21.6628 -0.668269,3.3106 -0.817592,9.7051 -0.318246,13.6282 1.555236,12.219 7.14435,21.7789 15.630247,26.735 3.10366,1.8126 7.442802,3.198 11.413833,3.6441 2.377085,0.267 7.366021,0.1165 9.695999,-0.2925 z m 78.538626,17.6424 c -0.0743,-0.1937 -0.1351,-24.0729 -0.1351,-53.065 0,-40.7116 0.0589,-52.7717 0.25848,-52.9713 0.33415,-0.3341 27.71456,-0.3608 32.8969,-0.032 7.6353,0.4844 13.89554,2.0822 20.15668,5.1445 9.73818,4.763 17.1846,12.2624 22.08586,22.2433 2.64466,5.3855 4.42701,11.303 5.30714,17.6202 0.46644,3.3478 0.53646,12.661 0.11744,15.6167 -2.02515,14.2847 -7.86595,25.535 -17.57644,33.8548 -3.16473,2.7115 -6.27798,4.7476 -10.1494,6.6377 -4.90446,2.3944 -8.77112,3.6352 -14.5545,4.6705 -2.59889,0.4652 -3.20135,0.4816 -20.47482,0.556 -16.3155,0.07 -17.80838,0.047 -17.93224,-0.2754 z m 31.93463,-18.0844 c 8.22934,-1.1911 14.15133,-3.8717 18.77653,-8.4992 4.84679,-4.8492 7.4965,-10.8653 8.6386,-19.6139 0.34958,-2.6778 0.34633,-10.9567 -0.005,-13.5704 -1.11467,-8.2849 -3.69376,-14.3125 -8.10223,-18.9357 -5.9926,-6.2846 -14.38896,-9.3149 -25.95979,-9.369 l -4.41574,-0.021 -0.0553,35.0029 c -0.0304,19.2516 -0.003,35.1392 0.06,35.3058 0.0963,0.253 0.83371,0.28 4.47106,0.1635 2.39564,-0.077 5.36216,-0.2852 6.59223,-0.4633 z m 80.80105,-34.7676 c 0,-48.2957 0.0313,-53.1933 0.34072,-53.312 0.44537,-0.1709 53.80077,-0.1709 54.24613,0 0.3031,0.1163 0.34073,1.1151 0.34073,9.0456 l 0,8.9148 -17.07063,0.055 -17.07063,0.055 0,11.7394 0,11.7395 16.42442,0.055 16.42442,0.055 0,8.9365 0,8.9365 -16.42442,0.055 -16.42442,0.055 0,14.4319 0,14.432 17.07063,0.055 17.07063,0.055 0,8.9378 0,8.9379 -27.46379,0 -27.46379,0 0,-53.1813 z"
       id="path4218"
       inkscape:connector-curvature="0" />
    <rect
       style="color:#000000;fill:none;stroke:#00ff00;stroke-width:1;stroke-linecap:round;stroke-linejoin:miter;stroke-miterlimit:4;stroke-opacity:1;stroke-dasharray:none;stroke-dashoffset:0;marker:none;visibility:visible;display:inline;overflow:visible;enable-background:accumulate"
       id="rect3844"
       width="530"
       height="600"
       x="-20"
       y="482.36218"
       inkscape:export-filename="H:\temp\novalogo\brigade_outlined.png"
       inkscape:export-xdpi="90"
       inkscape:export-ydpi="90" />
  </g>
</svg>
