<?xml version="1.0" encoding="UTF-8" standalone="no"?>
<!-- Created with Inkscape (http://www.inkscape.org/) -->

<svg
   xmlns:dc="http://purl.org/dc/elements/1.1/"
   xmlns:cc="http://creativecommons.org/ns#"
   xmlns:rdf="http://www.w3.org/1999/02/22-rdf-syntax-ns#"
   xmlns:svg="http://www.w3.org/2000/svg"
   xmlns="http://www.w3.org/2000/svg"
   version="1.1"
   width="940"
   height="500"
   id="svg3192">
  <defs
     id="defs3194" />
  <metadata
     id="metadata3197">
    <rdf:RDF>
      <cc:Work
         rdf:about="">
        <dc:format>image/svg+xml</dc:format>
        <dc:type
           rdf:resource="http://purl.org/dc/dcmitype/StillImage" />
        <dc:title></dc:title>
      </cc:Work>
    </rdf:RDF>
  </metadata>
  <g
     transform="translate(0,-552.36218)"
     id="layer1">
    <path
       d="m 583.75,66.96875 c -0.85575,0.0139 -1.73449,0.12376 -2.59375,0.40625 -0.2492,0.0819 -0.47743,0.20448 -0.71875,0.3125 -0.19636,-0.0412 -0.39864,-0.10745 -0.59375,-0.125 -0.63468,-0.0571 -1.26426,0.0253 -1.84375,0.1875 -1.15899,0.32434 -2.27156,1.07148 -3,2.28125 -0.5977,0.99265 -0.69033,2.20898 -0.5625,3.28125 l -0.125,0 0.21875,1.8125 c -1.38396,3.54301 -2.13257,7.09755 -2.71875,10.4375 -0.0113,0.05191 -0.0217,0.104005 -0.0312,0.15625 -0.86358,6.03477 -2.11939,11.98065 -3.71875,17.90625 -0.003,0.01 0.003,0.0215 0,0.0312 -2.09393,7.37636 -5.45736,14.38134 -8.5,21.65625 -2.72686,6.5199 1.48711,19.58757 3.07152,24.39264 0.29078,0.88187 5.57884,-4.34983 11.64543,-13.44115 5.47562,-8.2057 8.46357,-18.01843 11.1893,-27.85774 3e-5,-0.0104 3e-5,-0.0208 0,-0.0312 0.99948,-3.71562 1.87831,-7.45537 2.65625,-11.25 3.28481,2.64584 6.8045,4.87741 10.21875,6.8125 0.0104,0.0105 0.0208,0.0209 0.0312,0.0312 6.46447,3.58106 12.94989,6.74339 19.125,10.15625 0.0839,0.0463 0.16625,0.10981 0.25,0.15625 0.42247,0.28098 0.95661,0.6678 1.5,1.0625 -5.19059,7.62655 -11.13818,14.87491 -17.28125,22.09375 -0.01,0.0113 -0.0217,0.02 -0.0312,0.0312 -3.96502,4.60195 -8.1494,9.00128 -12.53125,13.21875 l 0.0312,0.0312 c -4.11846,3.80788 -4.82456,9.44743 -4.0625,13.78125 0.0187,0.0839 0.0395,0.16722 0.0625,0.25 1.22047,5.24409 3.0532,10.12418 4.84375,14.78125 0.0103,0.0209 0.0207,0.0417 0.0312,0.0625 2.22926,5.59334 4.73717,10.96703 7.21875,16.25 0.004,0.009 -0.004,0.0225 0,0.0312 1.46626,3.17887 2.75154,6.40226 3.8125,9.6875 0.009,0.0313 0.0218,0.0625 0.0312,0.0937 0.66451,2.1943 1.36356,4.39491 3.15625,6.4375 1.81829,2.07176 4.46006,3.27809 7.28125,3.90625 0.51163,0.11285 1.04105,0.14461 1.5625,0.0937 6.15403,-0.57804 10.9969,-3.34807 15.0625,-5.09375 0.0105,-0.0104 0.0209,-0.0208 0.0312,-0.0312 3.84516,-1.68017 7.84411,-3.13309 11.8125,-4.625 -0.87017,5.4805 -1.71986,10.94572 -2.6875,16.34375 -2.9e-4,0.0312 -2.9e-4,0.0625 0,0.0937 -0.86519,5.46122 -2.44944,11.19029 -3.46875,17.375 -0.0256,0.12415 -0.0464,0.24927 -0.0625,0.375 -0.15921,1.84532 -0.12278,3.50335 0.34375,5.21875 0.46653,1.7154 1.56933,3.46643 2.9375,4.53125 2.59381,2.01871 4.77834,2.11698 6.75,2.53125 5.00343,1.9752 9.93239,5.00826 15.15625,8.09375 0.0123,0.007 0.019,0.024 0.0312,0.0312 9.09104,5.45169 18.03567,11.17327 26.78125,17.15625 0.12176,0.0783 0.24691,0.15131 0.375,0.21875 0.34663,0.19543 2.75129,2.11096 5.28125,3.8125 2.52996,1.70154 5.64144,4.15808 10.4375,2.8125 2.86982,-0.80517 4.16316,-2.21965 4.59375,-2.46875 0.90743,-0.52859 1.64072,-1.35076 2.0625,-2.3125 0.2486,-0.55947 0.86043,-1.55547 1.375,-3.15625 1.0762,-3.34797 0.90055,-6.24708 1.125,-7.875 0.4988,-3.6179 0.42886,-2.90759 1.125,-6.53125 0.02,-0.10393 0.01,-0.076 0.0312,-0.1875 2.42109,-10.49958 4.60254,-20.89206 7.375,-31.03125 l 0.0312,-0.0625 1.625,-5.625 -0.0937,-0.0312 c 0.29208,-1.04972 0.36093,-2.29274 -0.0937,-3.375 -0.54707,-1.30189 -1.52456,-2.2 -2.625,-2.6875 -1.10044,-0.4875 -2.41818,-0.62583 -3.75,-0.15625 -1.1147,0.39302 -2.01409,1.29032 -2.59375,2.21875 l -0.0937,-0.0625 -3.09375,5.09375 c -5.78662,9.58705 -12.16833,19.82796 -14.625,32.125 -0.005,0.0229 -0.0267,0.0396 -0.0312,0.0625 l 0.0312,0 c -0.17322,0.82735 -0.27745,1.67199 -0.4375,2.5 -8.33535,-5.63771 -16.77408,-11.13982 -25.40625,-16.3125 -0.0104,-3e-5 -0.0208,-3e-5 -0.0312,0 -4.6385,-2.73783 -9.53862,-5.91117 -15.125,-8.3125 0.75229,-3.56485 1.50843,-7.0099 2.09375,-10.90625 l 0.0312,0 c 0.005,-0.0323 -0.005,-0.0616 0,-0.0937 1.19904,-7.09711 2.22334,-14.16748 3.28125,-21.1875 0.003,-0.0202 -0.003,-0.0423 0,-0.0625 0.12592,-0.72998 0.61406,-2.66766 1,-4.71875 0.39084,-2.0771 1.04449,-4.0816 0.0625,-7.21875 -0.66944,-2.13866 -1.59984,-3.15987 -1.78125,-3.5 -0.43213,-0.82702 -1.10091,-1.52869 -1.90625,-2 -0.30675,-0.17487 -1.23342,-1.02569 -3.125,-1.71875 -3.13536,-1.14876 -5.97204,-0.5127 -8.0625,0.0937 -2.09046,0.60655 -3.78926,1.27142 -4.53125,1.4375 -0.17979,0.0422 -0.35723,0.0944 -0.53125,0.15625 -6.38021,2.18615 -12.62386,4.65108 -18.78125,7.3125 -1.36231,0.58495 -2.79799,1.21346 -4.21875,1.8125 -0.9686,-2.61046 -1.8915,-5.22414 -3.125,-7.84375 -0.0139,-0.0307 -0.0175,-0.0631 -0.0312,-0.0937 -2.34211,-5.18546 -4.74191,-10.19431 -6.71875,-15.1875 -0.008,-0.022 -0.023,-0.0405 -0.0312,-0.0625 -1.41386,-3.67161 -2.68731,-7.2392 -3.625,-10.78125 4.07964,-4.10325 8.27389,-8.2706 12.1875,-12.90625 0.0147,-0.0174 0.0168,-0.0451 0.0312,-0.0625 7.04567,-8.15987 13.98418,-16.63214 20,-25.90625 0.0212,-0.031 0.042,-0.0623 0.0625,-0.0937 0.83454,-1.35387 2.73101,-4.1372 4.375,-7.1875 0.58442,-1.08434 1.19591,-2.17383 1.71875,-3.34375 0.0317,-0.0308 0.0629,-0.0621 0.0937,-0.0937 4.2229,-3.29094 8.28698,-7.10985 11.5,-11.9375 0.0212,-0.031 0.042,-0.0623 0.0625,-0.0937 0.16106,-0.25372 0.30633,-0.55571 0.46875,-0.8125 3.26141,2.87897 6.60661,5.78533 10.3125,8.4375 0.0104,0.0105 0.0208,0.0209 0.0312,0.0312 7.06257,4.95642 14.26171,9.46706 21.1875,14.15625 l -0.0312,0.0312 c 8.48282,5.87795 16.83585,11.92329 25.0625,18.15625 0.0312,0.0107 0.0624,0.0211 0.0937,0.0312 3.53978,2.59033 7.23744,5.26394 11.15625,7.78125 -0.944,0.7599 -1.99774,1.50058 -3.21875,2.28125 -0.0265,0.0169 -0.0359,0.0455 -0.0625,0.0625 -4.64465,2.82635 -9.43703,5.63997 -14.15625,8.8125 -0.0209,0.0103 -0.0417,0.0207 -0.0625,0.0312 -5.82736,4.01794 -11.47909,8.49043 -16.5625,13.75 -0.0105,0.0104 -0.0209,0.0208 -0.0312,0.0312 -4.12518,4.37756 -9.02695,9.4624 -11.1875,16.75 -0.0696,0.23532 -0.1219,0.47577 -0.15625,0.71875 -0.51967,3.57045 -0.34037,7.08067 1.03125,10.28125 1.37162,3.20058 3.84408,5.78581 6.875,7.875 0.13134,0.0897 0.26696,0.17319 0.40625,0.25 6.30982,3.51216 13.35123,4.89605 20.53125,4.09375 0.0417,5.2e-4 0.0833,5.2e-4 0.125,0 6.26475,-0.8661 12.59882,-2.47929 18.5625,-5.5 0.042,-0.0203 0.0836,-0.0411 0.125,-0.0625 0.68813,-0.37678 1.37314,-0.84272 2.0625,-1.25 0.0459,0.25429 0.0417,0.388 0.0937,0.65625 0.008,0.0395 0.0236,0.054 0.0312,0.0937 1.10781,6.17509 2.99797,12.52207 6.96875,18.21875 0.0103,0.0209 0.0207,0.0417 0.0312,0.0625 3.84909,5.39028 8.24388,10.34277 13.0625,14.84375 4.27473,3.94284 8.99829,7.91117 14.71875,10.8125 0.031,0.0212 0.0623,0.042 0.0937,0.0625 4.24776,2.03694 8.68287,3.85675 13.375,5.21875 0.0208,1.3e-4 0.0417,1.3e-4 0.0625,0 1.33102,0.36956 2.70476,0.7132 4.125,1 -1.05836,3.68004 -2.34009,7.33454 -3.75,11 -0.0104,-3e-5 -0.0208,-3e-5 -0.0312,0 -2.25358,5.90945 -4.72316,11.95453 -6.75,18.34375 -0.0212,0.031 -0.042,0.0623 -0.0625,0.0937 -2.15322,7.36212 -3.68336,15.0339 -3.8125,23.03125 -5.1e-4,0.0316 4.7e-4,0.0623 0,0.0937 -0.22339,6.81526 -0.1176,13.22851 -1.28125,19.0625 -1.13169,3.95607 -2.5915,6.94541 -5.1875,9.21875 -2.56677,2.24409 -5.18418,3.92907 -7.96875,4.78125 -0.0218,0.007 -0.0407,0.0249 -0.0625,0.0312 -3.14909,0.89516 -6.33485,1.36297 -9.5,1.3125 -0.0195,-5e-4 -0.043,5.3e-4 -0.0625,0 -2.55359,-0.0692 -5.27221,-0.3523 -8.15625,-0.59375 -2.28754,-0.18655 -4.59502,1.41625 -5.21875,3.625 -0.61538,2.17929 -1.73485,4.83144 -2.28125,8.1875 -0.35447,2.17701 0.62421,3.43156 1.09375,4 0.46954,0.56844 0.76642,0.77028 1,0.9375 0.46715,0.33444 0.73488,0.4473 0.96875,0.5625 0.46774,0.2304 0.84593,0.39448 1.28125,0.5625 0.87064,0.33603 1.86594,0.68503 2.90625,1.03125 1.04031,0.34622 2.10762,0.6785 2.9375,0.9375 0.78578,0.24524 1.00062,0.32452 1.6875,0.5 0.0317,0.009 0.0621,0.0226 0.0937,0.0312 8.48299,2.31161 17.10106,4.09928 25.78125,5.40625 0.0101,0.002 0.0213,-0.002 0.0312,0 9.92088,1.53605 19.88858,2.9064 29.875,4.0625 0.0208,1.3e-4 0.0417,1.3e-4 0.0625,0 5.83889,0.60083 12.14576,1.46294 18.875,0.71875 0.0731,-0.009 0.14608,-0.0192 0.21875,-0.0312 0.0791,-0.0119 0.20001,-0.0504 0.28125,-0.0625 0.0423,0.61524 0.0312,1.15291 0.0937,1.78125 0.003,0.0404 -0.003,0.0846 0,0.125 0.62791,8.17974 1.62593,16.74011 4.9375,25.0625 0.0199,0.0524 0.0408,0.10452 0.0625,0.15625 1.02914,2.35569 2.18947,4.74018 3.5625,7.0625 -34.24997,2.79363 -68.6303,4.43016 -103,5.125 -0.0104,2.1e-4 -0.0208,-2.1e-4 -0.0312,0 -52.0841,0.75718 -104.20663,0.56613 -156.40625,1.15625 -0.0104,-3e-5 -0.0208,-3e-5 -0.0312,0 -49.24133,0.72528 -98.43616,2.04102 -147.59375,2.75 -0.0208,1.3e-4 -0.0417,-1.3e-4 -0.0625,0 -39.81318,0.24433 -79.58061,-0.1468 -119.1875,-2.78125 -0.0104,-3e-5 -0.0208,-3e-5 -0.0312,0 -30.64728,-1.88449 -61.34423,-4.10326 -92.1875,-5.25 -0.0104,-3e-5 -0.0208,-3e-5 -0.0312,0 -23.02055,-0.73845 -46.02182,-1.14431 -69,-1.53125 -0.0104,-2.8e-4 -0.0208,2.8e-4 -0.0312,0 -3.72109,-0.0989 -7.44645,-0.1979 -11.15625,-0.3125 13.30179,-5.71297 25.95064,-12.53494 38.5,-19 0.0315,-0.0205 0.0627,-0.0413 0.0937,-0.0625 19.64784,-10.56722 39.35742,-21.33025 58.21875,-33.71875 0.021,-0.0206 0.0419,-0.0415 0.0625,-0.0625 7.68712,-5.23884 15.48203,-10.67252 22.71875,-16.96875 3.38231,8.80837 10.90929,14.88726 19.84375,17.40625 0.12373,0.0361 0.24885,0.0673 0.375,0.0937 10.84281,2.18266 21.74504,1.96549 32.4375,0.0937 10.95227,-1.96265 21.77557,-4.81888 32.25,-8.96875 0.0127,-0.005 0.0188,-0.0263 0.0312,-0.0312 6.55414,-2.53761 13.03755,-5.23961 19.4886,-7.99708 13.35761,-5.70965 17.50103,-10.25047 19.70395,-14.33714 2.75937,-5.11895 -14.18258,-8.0508 -26.08394,-2.9634 -6.56039,2.80434 -13.14839,5.53856 -19.79611,8.11012 -0.0208,-1.3e-4 -0.0417,-1.3e-4 -0.0625,0 -9.20354,3.66927 -18.83276,6.20778 -28.71875,7.96875 -0.0201,0.004 -0.0424,-0.004 -0.0625,0 -8.55791,1.45194 -17.00996,1.71541 -25.21875,0.0937 -3.36512,-1.08524 -4.81235,-2.26145 -5.875,-3.875 -1.08722,-1.65086 -1.85939,-4.26285 -2.34375,-8.15625 -0.20557,-2.62596 -0.74879,-4.97127 -1.6875,-7 -0.19169,-2.28734 -1.13762,-4.41971 -2.84375,-5.875 -1.83613,-1.56616 -4.31463,-2.14146 -6.78125,-1.8125 -2.45892,0.32793 -4.86648,1.56487 -6.625,3.59375 l -0.0312,0 c -8.64309,9.84239 -19.64861,17.63545 -31.03125,25.3125 -0.0193,0.013 -0.0432,0.0183 -0.0625,0.0312 -18.20544,11.86574 -37.36485,22.38979 -56.6875,32.78125 -0.0209,0.0103 -0.0417,0.0207 -0.0625,0.0312 -16.8514,9.48341 -35.27612,16.89468 -52.90625,26.6875 -0.01235,0.007 -0.0189,0.0245 -0.03125,0.0312 -4.021446,2.19576 -8.068063,4.4664 -12.0625,6.875 -6.243065,-0.39459 -12.666974,-0.74618 -19.28125,-0.28125 -0.136197,0.0152 -0.271766,0.0361 -0.40625,0.0625 -2.487095,0.38393 -5.065115,2.25347 -6.03125,4.46875 -0.966135,2.21528 -0.769088,4.23117 -0.3125,5.9375 0.456588,1.70633 1.228142,3.21205 2.46875,4.5625 1.192993,1.29862 3.164924,2.74187 5.90625,2.5625 0.109411,-0.007 0.200586,0.0125 0.3125,0 6.47892,-0.28917 13.235314,0.31529 20.25,0.75 0.02112,0.001 0.04137,-10e-4 0.0625,0 14.36825,1.04416 28.71369,1.52645 43,1.90625 0.0104,3e-5 0.0208,3e-5 0.0312,0 22.97589,0.46028 45.92333,0.88945 68.84375,1.625 30.52024,1.12344 61.05684,3.30375 91.6875,5.1875 0.0104,6.4e-4 0.021,-6.4e-4 0.0312,0 40.17582,2.64018 80.36551,2.99545 120.46875,2.75 0.0208,1.3e-4 0.0417,1.3e-4 0.0625,0 49.26642,-0.80275 98.48651,-2.10724 147.6875,-2.90625 0.0104,-1.3e-4 0.0208,1.3e-4 0.0312,0 52.10356,-0.64535 104.28613,-0.56349 156.5,-1.5625 0.0104,3e-5 0.0208,3e-5 0.0312,0 31.10493,-0.87863 62.45018,-1.84402 93.65625,-5.8125 16.5133,-2.09999 22.16549,-3.36196 38.0625,-6.28125 0.0627,-0.009 0.12521,-0.0197 0.1875,-0.0312 20.72282,-4.65459 10.99049,-2.22453 30.25,-7.40625 l -0.0312,-0.0625 c 1.14005,-0.30992 2.40753,-1.10179 3.09375,-2.25 0.72442,-1.21212 0.85293,-2.54373 0.59375,-3.71875 -0.25918,-1.17502 -0.92603,-2.33005 -2.09375,-3.125 -1.10287,-0.7508 -2.58703,-0.94552 -3.75,-0.75 l 0,-0.0625 c -19.52352,3.37257 -9.47703,1.83885 -30.0625,4.53125 -2.27114,0.22784 -4.54007,0.43917 -6.8125,0.65625 -0.41997,-0.72834 -0.93424,-1.42805 -1.53125,-2.03125 l 0.0312,-0.0312 c -0.0297,-0.0306 -0.0643,-0.063 -0.0937,-0.0937 -2.52074,-2.63245 -4.38012,-6.05082 -6,-9.9375 -2.31165,-6.00274 -3.1125,-12.77528 -3.71875,-19.90625 -7.7e-4,-0.01 7.7e-4,-0.0215 0,-0.0312 -0.43703,-5.63808 -0.19623,-11.90269 -1.46875,-18.5625 -0.0256,-0.13664 -0.0569,-0.27221 -0.0937,-0.40625 -1.11314,-3.9685 -3.90642,-7.49924 -8.03125,-8.28125 -1.53655,-0.29131 -3.04958,-0.12659 -4.46875,0.34375 0.99397,-1.25665 1.85345,-2.5131 2.65625,-3.6875 0.012,-0.0176 0.0195,-0.045 0.0312,-0.0625 2.35736,-3.32173 5.07999,-6.58548 7.8125,-10.0625 0.0105,-0.0104 0.0209,-0.0208 0.0312,-0.0312 7.23564,-9.43903 13.85502,-19.21695 20.46875,-28.84375 0.0104,3e-5 0.0208,3e-5 0.0312,0 7.29509,-10.7355 14.70812,-21.38499 22.375,-31.8125 0.15205,-0.20785 0.288,-0.42747 0.40625,-0.65625 0.44872,-0.86958 2.34472,-3.22425 4.34375,-5.625 1.99903,-2.40075 4.22982,-4.79089 5.34375,-8.4375 0.55463,-1.81568 0.52256,-3.03793 0.59375,-3.5 0.1805,-1.19577 -0.0916,-2.45436 -0.75,-3.46875 -0.29863,-0.46423 -0.79399,-2.61863 -3.3125,-4.8125 -2.73585,-2.38323 -5.82015,-2.54005 -8.15625,-2.5 -2.3361,0.0401 -4.37526,0.40488 -5.28125,0.46875 -3.95598,0.2789 -3.95392,0.18393 -8,0.125 -2.33371,-0.25649 -3.18356,-0.28373 -3.4375,-0.375 0.0731,-0.25859 0.17994,-0.4894 0.25,-0.75 0.0116,-0.0623 0.022,-0.12481 0.0312,-0.1875 0.44056,-1.92319 1.10888,-4.34553 0.4375,-7.40625 -0.67138,-3.06072 -3.91209,-6.3326 -7.625,-7.0625 -0.31885,-0.0626 -0.64381,-0.0941 -0.96875,-0.0937 -0.15662,0.003 -0.3131,0.0135 -0.46875,0.0312 -3.37129,0.32119 -5.93618,1.49257 -8.03125,2.3125 -0.10258,0.0402 -0.24365,0.0867 -0.34375,0.125 l 0.0312,0.0625 c -1.99212,0.69452 -3.80641,2.09118 -4.71875,3.90625 -0.96512,1.92008 -1.01766,4.03696 -0.46875,5.875 0.49318,1.65143 1.57229,3.1412 3.125,4.21875 -1.0598,2.59536 -2.20298,5.21291 -3.40625,7.90625 -0.01,0.0217 -0.0217,0.0408 -0.0312,0.0625 -4.90454,10.45679 -10.02566,20.90067 -14.90625,31.53125 -0.006,0.0127 -0.0254,0.0186 -0.0312,0.0312 -4.96217,10.69846 -9.19089,21.64171 -13.0625,32.65625 -0.0106,0.0208 -0.021,0.0416 -0.0312,0.0625 -2.36288,6.95302 -4.74951,14.08706 -6.3125,21.65625 -0.012,0.0727 -0.0225,0.14562 -0.0312,0.21875 -0.45338,2.75393 -0.67273,5.94565 0.78125,9.28125 1.45398,3.3356 5.77428,6.22779 10.25,5.9375 1.93109,-0.12525 3.03766,-0.65222 3.5625,-1 -0.40456,0.95187 -0.66854,1.88527 -0.875,2.8125 -4.21175,0.17011 -8.715,-0.30106 -13.5,-0.84375 -8.37348,-0.9527 -16.73081,-2.18949 -25.125,-3.46875 0.12911,-0.10579 0.27831,-0.20639 0.40625,-0.3125 0.0317,-0.0308 0.0629,-0.0621 0.0937,-0.0937 5.75416,-5.00075 8.9009,-11.47825 10.84375,-18.0625 0.0335,-0.0825 0.0647,-0.16585 0.0937,-0.25 1.89095,-8.00896 1.71727,-15.82831 2.03125,-23 0.0107,-0.0312 0.0211,-0.0624 0.0312,-0.0937 0.1252,-6.07639 1.35906,-12.15734 3.15625,-18.28125 1.87826,-5.67642 4.148,-11.34894 6.375,-17.1875 0.004,-0.009 -0.004,-0.022 0,-0.0312 2.12662,-5.50126 4.03594,-11.16387 5.46875,-17 1.32394,-5.49118 0.99937,-11.56321 -2.3125,-16.84375 -0.0159,-0.0279 -0.0464,-0.035 -0.0625,-0.0625 -0.031,-0.0489 -0.031,-0.10745 -0.0625,-0.15625 L 795.09375,241 c -1.83843,-3.00499 -4.91683,-3.86758 -6.40625,-4.25 -0.57671,-0.14807 -0.76719,-0.2077 -0.96875,-0.28125 -0.0318,-0.0701 -0.0275,-0.0453 -0.0625,-0.125 l -0.0937,0.0312 c -0.42521,-0.93303 -1.06706,-1.86408 -2,-2.40625 -0.61051,-0.35479 -1.2746,-0.57171 -1.90625,-0.65625 -0.63165,-0.0845 -1.25771,-0.043 -1.84375,0.0937 -1.17209,0.27393 -2.28242,0.97887 -3.0625,2.15625 -0.6155,0.92899 -0.80342,2.10736 -0.75,3.15625 l -0.0937,0 c 0.004,0.06 -0.004,0.12716 0,0.1875 -3.05287,-1.06097 -6.02399,-2.28224 -8.875,-3.71875 -0.008,-0.004 -0.0237,0.004 -0.0312,0 -3.65696,-1.87506 -7.04388,-4.74338 -10.59375,-7.9375 -0.0217,-0.0202 -0.0408,-0.0423 -0.0625,-0.0625 -3.93717,-3.66264 -7.50413,-7.62009 -10.5625,-11.9375 -0.008,-0.0113 -0.0236,-0.02 -0.0312,-0.0312 -2.09663,-3.02639 -3.18714,-6.73326 -3.9375,-11.03125 -0.006,-0.0343 -0.0254,-0.0594 -0.0312,-0.0937 -0.44454,-4.28411 -1.16095,-9.0508 -3.90625,-13.59375 -0.0682,-0.11749 -0.1412,-0.2322 -0.21875,-0.34375 -1.99529,-2.75404 -5.00344,-4.71178 -8.21875,-5.125 -3.21531,-0.41322 -6.289,0.59235 -8.875,2.25 -0.18588,0.12336 -0.36349,0.25918 -0.53125,0.40625 -1.99383,1.70614 -4.04069,3.12971 -6.28125,4.28125 -0.008,0.004 -0.0236,-0.004 -0.0312,0 -3.78415,1.90058 -8.00328,2.98617 -12.53125,3.59375 -0.0112,0.001 -0.0201,-0.001 -0.0312,0 -3.34324,0.30987 -6.20334,-0.22792 -8.8125,-1.625 1.40711,-2.69262 3.70373,-5.33092 6.4375,-8.21875 0.0102,-0.0105 0.0213,-0.0208 0.0312,-0.0312 4.01543,-4.15639 8.6783,-7.79199 13.65625,-11.21875 4.22256,-2.7605 8.83808,-5.2945 13.5,-8.125 0.0536,-0.03 0.10288,-0.0635 0.15625,-0.0937 3.5625,-2.01997 6.66393,-4.56979 9.375,-7.46875 0.0319,-0.0412 0.0631,-0.0829 0.0937,-0.125 2.86462,-3.22877 4.47712,-7.15336 5.03125,-11.1875 0.0248,-0.11381 0.0457,-0.22849 0.0625,-0.34375 0.22444,-3.10645 -0.94247,-6.1305 -2.59375,-8.125 -1.64436,-1.98615 -3.54174,-3.16238 -5.21875,-4.125 -0.007,-0.004 -0.024,0.004 -0.0312,0 -4.44765,-2.56486 -8.7339,-5.80025 -13.1875,-9.125 l 0,0.0312 c -8.39069,-6.32901 -16.86706,-12.59824 -25.5625,-18.625 -7.03613,-4.87622 -14.10042,-9.37998 -20.6875,-14.25 -0.0207,-0.02102 -0.0415,-0.04185 -0.0625,-0.0625 -3.25198,-2.32098 -6.44947,-5.20194 -10,-8.09375 -0.0483,-0.0423 -0.10774,-0.0828 -0.15625,-0.125 -1.97446,-1.71829 -4.11164,-3.39214 -6.5625,-4.8125 -0.0517,-0.02171 -0.10382,-0.04255 -0.15625,-0.0625 -4.87405,-2.62312 -10.89168,-1.46837 -14.71875,1.75 -0.23845,0.197791 -0.45846,0.417801 -0.65625,0.65625 -2.64769,3.21467 -3.83079,6.36746 -5.15625,8.4375 -0.0106,0.02076 -0.021,0.04159 -0.0312,0.0625 -1.2399,1.9752 -2.9349,3.74906 -4.9375,5.46875 -0.31289,-0.009 -0.60722,-0.0176 -0.90625,0 -1.1961,0.0706 -2.26982,0.33726 -3.15625,0.59375 -1.16988,0.3385 -2.05239,0.65927 -2.75,0.90625 -6.30669,-3.70201 -12.73232,-6.83566 -18.84375,-10.09375 -5.30257,-3.51056 -10.68236,-5.70552 -15.0625,-8.25 0.82806,-2.18099 0.89562,-4.6279 0.0937,-6.65625 -0.8867,-2.24308 -2.59462,-3.88997 -4.5625,-4.8125 -0.98394,-0.46127 -2.06769,-0.75777 -3.1875,-0.84375 -0.27995,-0.0215 -0.5585,-0.005 -0.84375,0 z M 847,254.375 c 0.74328,0.41557 1.3518,0.89032 4,2.25 0.15234,0.0809 0.30887,0.15398 0.46875,0.21875 4.5122,1.74051 4.69031,1.7142 5.59375,2 -0.95142,1.24432 -1.86945,2.39421 -2.8125,3.71875 -0.0227,0.032 -0.0398,0.0618 -0.0625,0.0937 -7.79226,10.6027 -15.34369,21.39571 -22.71875,32.25 -2.76986,4.07976 -5.54966,8.12821 -8.34375,12.15625 1.95959,-4.9624 4.02869,-9.88375 6.25,-14.71875 4.83636,-10.53775 9.96953,-21.00598 14.90625,-31.65625 0.0107,-0.0312 0.0211,-0.0624 0.0312,-0.0937 0.90059,-2.01788 1.80189,-4.10637 2.6875,-6.21875 z"
       transform="translate(0,552.36218)"
       id="path6268"
       style="font-size:medium;font-style:normal;font-variant:normal;font-weight:normal;font-stretch:normal;text-indent:0;text-align:start;text-decoration:none;line-height:normal;letter-spacing:normal;word-spacing:normal;text-transform:none;direction:ltr;block-progression:tb;writing-mode:lr-tb;text-anchor:start;baseline-shift:baseline;color:#000000;fill:#000000;fill-opacity:1;fill-rule:nonzero;stroke:none;stroke-width:10;marker:none;visibility:visible;display:inline;overflow:visible;enable-background:accumulate;font-family:Sans;-inkscape-font-specification:Sans" />
    <path
       d="m 654.28125,110.65625 c -0.21016,0.019 -0.42835,0.0602 -0.65625,0.125 -5.36745,1.4153 -10.03917,4.1493 -14.46875,7.375 -2.17218,1.4626 -2.83501,1.0454 0.96875,5.8125 0.0742,0.0929 5.70469,-1.779 6,-1.875 2.15178,-0.71082 4.32474,-1.34099 6.5,-1.96875 -1.36287,0.71955 -2.71159,1.44411 -4.0625,2.1875 -4.90575,3.1915 -10.55553,5.6 -14.875,9.625 0.3289,1.6375 -0.14662,3.7231 1,4.9375 0.82459,0.8729 2.40731,0.1245 3.59375,-0.0625 0.0554,-0.009 0.34017,-0.10532 0.5,-0.15625 -6.87145,3.44151 -13.93847,6.55065 -20.5,10.5625 -0.28215,1.4266 -1.78284,3.14515 -0.875,4.28125 1.93068,2.4159 6.24829,0.4483 8.25,-0.25 1.31343,-0.45812 2.63125,-0.92796 3.9375,-1.40625 -2.53402,1.02205 -5.07296,2.03886 -7.59375,3.09375 -1.6128,0.706 -3.23834,1.37105 -4.84375,2.09375 -0.7946,0.3577 -4.86186,2.25565 -6.03125,2.90625 -0.43399,0.2414 -1.3198,0.35205 -1.25,0.84375 0.96577,6.7997 0.93836,5.79765 5,4.96875 10.91322,-3.3776 21.72659,-7.07695 32.65625,-10.40625 8.32734,-2.40888 16.63581,-4.82663 24.96875,-7.21875 -2.61058,1.1697 -5.21173,2.35057 -7.8125,3.53125 -13.79075,6.2285 -27.20314,13.22685 -40.34375,20.71875 -1.46798,0.86 -2.94288,1.72585 -4.40625,2.59375 -1.06149,0.6295 -4.43083,2.63375 -5.71875,3.46875 -0.41581,0.2696 -1.17795,0.34985 -1.21875,0.84375 -0.52144,6.31304 -0.0969,5.66509 3.5625,5.03125 0.0498,0.0884 0.13701,0.0332 0.25,-0.0625 0.21353,-0.0352 0.39005,-0.0611 0.625,-0.0937 8.02545,-3.6319 16.13462,-7.08695 24.34375,-10.28125 11.29678,-4.35786 22.83616,-8.02164 34.4375,-11.46875 -8.12659,3.57086 -16.28717,7.07628 -24.4375,10.59375 -5.02744,1.82848 -10.04318,3.73214 -15,5.75 -5.16191,2.1421 -6.99888,2.84125 -11.9375,5.09375 -1.13523,0.5177 -6.30302,2.9256 -7.71875,3.8125 -0.97931,0.6135 -2.88276,0.94265 -2.78125,2.09375 0.1784,2.0231 2.27105,3.34705 3.40625,5.03125 3.03147,-0.9655 5.88876,-2.3045 8.78125,-3.625 6.61494,-3.0201 13.1947,-6.14825 19.84375,-9.09375 3.00659,-1.33085 6.01995,-2.64807 9.03125,-3.96875 8.67853,-3.15071 17.42928,-6.04848 26.21875,-8.875 1.02106,-0.2987 2.04488,-0.62152 3.0625,-0.9375 -1.6454,1.03863 -3.31136,2.07152 -4.96875,3.09375 -7.30213,4.442 -14.70242,8.6565 -22.0625,13 -3.18144,2.1064 -4.77897,3.00545 0.9375,7.03125 0.19252,0.1356 7.56141,-2.70245 8.09375,-2.90625 1.67403,-0.57662 3.3469,-1.18519 5.03125,-1.78125 -2.91667,2.41323 -5.94721,4.69798 -8.59375,7.40625 -0.28212,0.4842 -0.99501,0.92915 -0.84375,1.46875 0.44681,1.5939 1.18066,3.2728 2.46875,4.3125 0.48128,0.38843 2.25443,-0.0545 4.09375,-0.65625 -0.22984,0.2277 -0.45906,0.45778 -0.6875,0.6875 -0.72027,0.7575 -4.18734,4.18495 -3.59375,5.40625 1.12516,2.31496 1.69776,3.15584 2.46875,3.375 -1.84971,1.66995 -3.69715,3.34396 -5.53125,5.03125 -2.56953,2.8385 -3.39185,4.6664 2.5,6.625 0.89167,0.2965 1.72344,-0.73325 2.5625,-1.15625 0.18247,-0.092 0.37634,-0.21343 0.5625,-0.3125 -4.53597,4.11062 -8.95646,8.32291 -13.15625,12.78125 -2.76124,3.3083 -3.7997,5.80705 3.03125,6.90625 1.11813,0.1799 2.06648,-0.92975 3.0625,-1.46875 1.43949,-0.7791 6.32694,-3.83325 7.5625,-4.59375 6.03581,-3.815 12.27964,-7.28433 18.71875,-10.34375 -3.70678,3.46895 -7.44086,6.9102 -11.09375,10.4375 -0.77662,0.7728 -1.54422,1.5314 -2.3125,2.3125 -0.3315,0.337 -4.36508,4.3215 -3.78125,5.125 3.6401,5.0092 3.7041,3.99335 7.0625,2.21875 5.43604,-3.84474 10.81788,-7.69578 16.5625,-11.0625 -2.57712,3.29405 -5.3632,6.43009 -8.09375,9.59375 -2.82924,3.4388 -5.84751,5.4897 1.0625,8.5625 0.31173,0.1386 4.10749,-2.149 4.28125,-2.25 0.98417,-0.47167 2.66779,-1.58722 4.40625,-2.5625 -0.005,0.007 -0.027,0.0564 -0.0312,0.0625 -0.75048,1.179 -4.98193,6.25535 -3.6875,7.78125 1.0442,1.2309 2.80633,1.56235 4.21875,2.34375 2.00982,-0.74112 3.70578,-2.02209 5.375,-3.3125 -0.029,0.17748 -0.0258,0.18851 -0.0625,0.40625 -0.95268,2.6808 -0.72359,5.6982 -1.96875,8.25 -0.0558,0.114 0.10045,0.1769 0.15625,0.0625 0.18739,-0.384 0.29964,-0.81925 0.5625,-1.15625 1.40531,-1.8013 3.77539,-3.40515 5,-5.40625 1.05921,-1.3183 3.60451,-4.52825 3.5,-6.40625 -0.20831,-3.74017 -1.75223,-5.0984 -4.84375,-4.3125 0.62176,-1.78875 0.58284,-3.61052 -1.09375,-5.28125 -0.55979,-0.5578 -1.50846,-0.5393 -2.25,-0.8125 -0.58451,0.032 -1.17178,0.003 -1.75,0.0937 -0.5538,0.0875 -1.09085,0.22013 -1.625,0.375 1.97148,-2.44401 3.83915,-4.94303 5.46875,-7.625 0.28404,-0.9486 0.9896,-1.86425 0.84375,-2.84375 -0.80189,-5.38513 -5.07633,-4.46226 -8.65625,-2.90625 0.83478,-0.78807 1.67306,-1.57842 2.5,-2.375 0.96343,-1.1536 3.39084,-3.5564 3,-5.375 -1.20741,-5.618 -6.34271,-3.41875 -9.65625,-2.15625 -5.83795,2.511 -11.51568,5.38404 -17.03125,8.53125 1.72271,-1.55284 3.46115,-3.10882 5.1875,-4.65625 2.00232,-1.8089 4.71252,-4.2402 6.6875,-6.125 0.87956,-0.8394 1.75881,-1.6788 2.59375,-2.5625 2.07032,-2.1915 3.8197,-3.6958 1.53125,-7.5 -0.52879,-0.879 -2.04615,-0.26715 -3.0625,-0.40625 -1.38825,0.57665 -2.71571,1.21648 -4.03125,1.9375 0.10765,-0.19106 0.15098,-0.34441 0.15625,-0.46875 0.13414,-3.1642 -0.57911,-4.71469 -2.34375,-4.875 0.32132,-0.32836 0.6185,-0.63021 0.78125,-0.84375 0.46835,-0.6145 0.81354,-1.31085 1.21875,-1.96875 -0.24576,-1.2627 -0.0588,-2.69625 -0.75,-3.78125 -0.6245,-0.98018 -1.86359,-1.19131 -3.25,-1.0625 0.28702,-0.25139 0.56381,-0.52257 0.84375,-0.78125 1.22815,-1.0803 6.52639,-5.30055 6.25,-7.15625 -0.20857,-1.4003 -1.14037,-2.67015 -2.15625,-3.65625 -0.44218,-0.4293 -1.23313,-0.167 -1.84375,-0.25 -0.13638,0.0212 -0.27014,0.0401 -0.40625,0.0625 1.04133,-0.6332 2.08739,-1.26682 3.125,-1.90625 3.72298,-2.3348 7.43266,-4.67745 11.0625,-7.15625 0.3885,-0.2652 4.3522,-2.9628 4.78125,-3.5625 0.74309,-1.0387 1.06337,-2.30695 1.59375,-3.46875 -0.92606,-0.9991 -1.64324,-2.2511 -2.78125,-3 -0.1747,-0.11493 -0.53136,-0.16566 -0.96875,-0.15625 1.19525,-0.71489 2.17225,-1.39421 2.5,-1.90625 2.44398,-3.8182 1.19256,-6.05275 -3,-6.09375 -7.14956,1.0842 -13.97039,3.7183 -20.9375,5.5625 -7.05271,2.04483 -14.06558,4.17695 -21.03125,6.5 4.29058,-2.14123 8.63022,-4.20327 13,-6.1875 9.90441,-4.5524 19.98944,-8.7887 29.4375,-14.25 2.75885,-3.0406 3.86868,-2.59385 -0.3125,-6.71875 -0.38156,-0.3765 -1.06137,-0.062 -1.59375,0 -3.34954,0.3907 -6.54123,1.68185 -9.8125,2.40625 -7.3666,2.06216 -14.7411,4.16853 -22.09375,6.28125 0.46594,-0.19952 0.94091,-0.39276 1.40625,-0.59375 8.5402,-3.8078 17.17221,-7.5745 25.03125,-12.6875 0.71271,-0.7788 2.29052,-1.29665 2.15625,-2.34375 -0.70685,-5.5125 -3.65519,-4.28955 -6.65625,-3.40625 -1.13595,0.3344 -2.2484,0.66665 -3.375,1.03125 -1.48508,0.4806 -2.95826,1.0017 -4.4375,1.5 -1.97683,0.6881 -3.96302,1.39891 -5.9375,2.09375 2.06062,-0.78291 7.14379,-2.56415 6.96875,-4.78125 -0.37986,-4.8116 -3.6172,-3.82555 -6.21875,-3.40625 -4.3497,0.94111 -8.66319,2.0403 -12.9375,3.28125 3.43774,-1.81461 6.88502,-3.60231 10.3125,-5.4375 2.33251,-1.9812 3.41122,-1.95955 1.5,-6.09375 -0.73837,-1.5976 -6.80166,-0.23945 -7.9375,-0.0312 -1.82581,0.39151 -3.65826,0.79975 -5.46875,1.25 -0.10464,-1.35751 -1.19874,-2.62269 -2.90625,-2.46875 z m 13.4375,6.03125 c 0.0207,-0.001 0.0418,0.001 0.0625,0 0.0937,-0.005 0.25312,0.007 0.40625,0.0312 -0.17283,0.0112 -0.33697,0.0157 -0.46875,-0.0312 z m -43.875,34.125 c -0.39092,0.43214 -1.16266,0.91548 -2.46875,1.46875 0.81499,-0.50579 1.63654,-0.9924 2.46875,-1.46875 z m 35.84375,37.625 c 0.0325,0.1035 -0.18665,0.1345 -0.28125,0.1875 0.0932,-0.0591 0.18801,-0.12836 0.28125,-0.1875 z m 18.125,5.71875 c 0.067,-0.009 0.2534,0.10875 0.1875,0.0937 -0.13367,-0.0315 -0.16732,-0.037 -0.28125,-0.0625 0.0326,-0.005 0.0611,-0.0266 0.0937,-0.0312 z m 17.84375,22.4375 c 0.11852,-0.0101 -0.2134,0.2535 -0.3125,0.1875 -0.0546,-0.0362 -0.10225,-0.088 -0.15625,-0.125 0.15117,-0.0236 0.3166,-0.0495 0.46875,-0.0625 z m 3,10.09375 c 0.21009,-0.0136 0.35798,-0.014 0.21875,0 -0.32898,0.033 -0.69925,0.22611 -1,0.125 0.0544,-0.0166 0.10156,-0.0469 0.15625,-0.0625 0.13456,-0.0405 0.41491,-0.0489 0.625,-0.0625 z M 675.125,239.65625 c 0.04,0.185 -0.38376,0.52028 -0.46875,0.5625 0.28286,-0.32611 0.33641,-0.40056 0.46875,-0.5625 z m 23.78125,1.21875 c 0.16376,0.001 0.32481,-0.002 0.46875,0.0312 -0.28695,0.22318 -0.61547,0.18841 -0.9375,0 0.16862,-0.0237 0.31519,-0.0326 0.46875,-0.0312 z m 5.78125,5.625 c 0.42027,0.14737 0.1434,0.17878 -0.28125,0.15625 0.0948,-0.0501 0.18506,-0.10828 0.28125,-0.15625 z"
       transform="translate(0,552.36218)"
       id="path8310"
       style="color:#000000;fill:#000000;fill-opacity:1;fill-rule:nonzero;stroke:none;stroke-width:2;marker:none;visibility:visible;display:inline;overflow:visible;enable-background:accumulate" />
    <g
       transform="translate(120,-400)"
       id="g6270"
       style="fill:#000000;fill-opacity:1">
      <path
         d="m -42.000001,1246.5962 29.148937,0 0,-114.2553 65.744682,114.2553 32.553192,0 0,-157.2341 -29.148937,0 0,114.4681 -65.106384,-114.4681 -33.19149,0 0,157.2341"
         id="path6272"
         style="font-size:212.76596069px;font-style:normal;font-variant:normal;font-weight:600;font-stretch:normal;line-height:125%;letter-spacing:0px;word-spacing:0px;fill:#000000;fill-opacity:1;stroke:none;font-family:URW Gothic L;-inkscape-font-specification:URW Gothic L Semi-Bold" />
      <path
         d="m 159.75199,1125.9579 c -34.25528,0 -62.34042,27.8724 -62.34042,61.7021 0,34.0425 28.08514,61.7021 62.55319,61.7021 34.25528,0 62.76596,-27.6596 62.76596,-60.851 0,-35.1064 -27.44685,-62.5532 -62.97873,-62.5532 m 0.21277,25.9574 c 18.93615,0 34.25532,16.1703 34.25532,35.7447 0,19.7872 -15.31917,35.7447 -34.04256,35.7447 -19.14891,0 -34.25532,-15.9575 -34.25532,-36.1702 0,-19.3617 15.53194,-35.3192 34.04256,-35.3192"
         id="path6274"
         style="font-size:212.76596069px;font-style:normal;font-variant:normal;font-weight:600;font-stretch:normal;line-height:125%;letter-spacing:0px;word-spacing:0px;fill:#000000;fill-opacity:1;stroke:none;font-family:URW Gothic L;-inkscape-font-specification:URW Gothic L Semi-Bold" />
      <path
         d="m 267.3105,1246.5962 23.82979,0 60.85107,-157.2341 -30.6383,0 -42.34043,119.5745 -42.34042,-119.5745 -30.6383,0 61.27659,157.2341"
         id="path6276"
         style="font-size:212.76596069px;font-style:normal;font-variant:normal;font-weight:600;font-stretch:normal;line-height:125%;letter-spacing:0px;word-spacing:0px;fill:#000000;fill-opacity:1;stroke:none;font-family:URW Gothic L;-inkscape-font-specification:URW Gothic L Semi-Bold" />
      <path
         d="m 312.5911,1246.5962 32.12766,0 17.44681,-40.6383 55.95745,0 16.80851,40.6383 32.12766,0 -65.95745,-157.2341 -22.97872,0 -65.53192,157.2341 m 60.21277,-68.5106 16.80851,-47.6596 16.80851,47.6596 -33.61702,0"
         id="path6278"
         style="font-size:212.76596069px;font-style:normal;font-variant:normal;font-weight:600;font-stretch:normal;line-height:125%;letter-spacing:0px;word-spacing:0px;fill:#000000;fill-opacity:1;stroke:none;font-family:URW Gothic L;-inkscape-font-specification:URW Gothic L Semi-Bold" />
    </g>
    <g
       transform="translate(120,-400)"
       id="g6280"
       style="font-size:87.66661072px;font-style:normal;font-variant:normal;font-weight:600;font-stretch:normal;line-height:125%;letter-spacing:0px;word-spacing:0px;fill:#000000;fill-opacity:1;stroke:none;font-family:URW Gothic L;-inkscape-font-specification:URW Gothic L Semi-Bold">
      <path
         d="m -5.0923558,1068.2671 c -2.8929953,4.471 -6.2243342,6.3997 -11.0459932,6.3997 -8.06532,0 -14.114324,-6.3121 -14.114324,-14.8157 0,-8.5037 5.786004,-14.6403 13.851324,-14.6403 5.259992,0 8.9419971,2.1916 11.3089932,6.6626 l 13.1499916,0 c -1.665664,-4.9093 -3.2436679,-7.4516 -6.5749958,-10.52 -4.7339923,-4.3833 -11.1336663,-6.838 -17.883989,-6.838 -14.377309,0 -25.59865,11.1337 -25.59865,25.4234 0,14.1143 11.572007,25.4233 25.949317,25.4233 11.3089813,0 20.0756577,-6.2244 24.1083178,-17.095 l -13.1499916,0"
         id="path6282"
         style="fill:#000000" />
      <path
         d="m 39.847741,1034.5154 c -14.11431,0 -25.686317,11.4844 -25.686317,25.4234 0,14.0266 11.572007,25.4233 25.773983,25.4233 14.114311,0 25.861651,-11.3967 25.861651,-25.0727 0,-14.4649 -11.309008,-25.774 -25.949317,-25.774 m 0.08767,10.6954 c 7.802321,0 14.114325,6.6626 14.114325,14.728 0,8.1529 -6.312004,14.728 -14.026658,14.728 -7.889987,0 -14.114324,-6.5751 -14.114324,-14.9034 0,-7.9776 6.39967,-14.5526 14.026657,-14.5526"
         id="path6284"
         style="fill:#000000" />
      <path
         d="m 121.43248,1019.4368 -11.65966,0 0,20.514 c -3.41899,-3.7697 -9.02967,-6.049 -15.166322,-6.049 -13.588311,0 -24.283651,11.3967 -24.283651,25.9493 0,14.3773 10.607673,25.511 24.371317,25.511 6.574986,0 11.396666,-2.1917 16.042986,-7.4517 l 0,6.312 10.69533,0 0,-64.7856 m -25.160317,25.1603 c 8.152987,0 14.377327,6.575 14.377327,15.0787 0,8.4159 -6.22434,14.991 -14.114327,14.991 -8.152987,0 -14.464991,-6.7504 -14.464991,-15.3417 0,-8.2407 6.224338,-14.728 14.201991,-14.728"
         id="path6286"
         style="fill:#000000" />
      <path
         d="m 178.42947,1065.1111 c 0.35067,-1.6657 0.43833,-2.7177 0.43833,-4.471 0,-15.0786 -10.60767,-26.1247 -25.07265,-26.1247 -14.28964,0 -25.59865,11.3091 -25.59865,25.5987 0,14.202 11.48434,25.248 26.29999,25.248 7.97765,0 14.20199,-2.893 19.28665,-8.7667 1.841,-2.2793 3.06833,-4.2956 3.85733,-6.7503 l -12.71166,0 c -2.98066,3.5066 -5.87366,4.8217 -10.69532,4.8217 -6.92566,0 -12.01033,-3.6821 -13.41299,-9.5557 l 37.60897,0 m -37.95964,-10.257 c 1.841,-6.2243 6.575,-9.6433 13.50066,-9.6433 7.18865,0 11.92266,3.419 13.41299,9.6433 l -26.91365,0"
         id="path6288"
         style="letter-spacing:10.78261662px;fill:#000000;fill-opacity:1" />
      <g
         transform="matrix(1.1183943,0,0,1.1183943,-26.317409,-128.01052)"
         id="g6290"
         style="fill:#000000;stroke:#d0d5d8;stroke-width:2.68241715;stroke-miterlimit:4;stroke-opacity:1;stroke-dasharray:none">
        <path
           d="m 199.78125,1041.875 0,12.75 12.75,0 0,-12.75 z m 0,28.3125 0,12.375 12.75,0 0,-12.375 z"
           id="path6292"
           style="font-size:medium;font-style:normal;font-variant:normal;font-weight:normal;font-stretch:normal;text-indent:0;text-align:start;text-decoration:none;line-height:125%;letter-spacing:10.78261662px;word-spacing:0;text-transform:none;direction:ltr;block-progression:tb;writing-mode:lr-tb;text-anchor:start;baseline-shift:baseline;color:#000000;fill:#000000;fill-opacity:1;fill-rule:nonzero;stroke:none;stroke-width:2.68241715;marker:none;visibility:visible;display:inline;overflow:visible;enable-background:accumulate;font-family:URW Gothic L;-inkscape-font-specification:URW Gothic L Semi-Bold" />
        <path
           d="m 232.03125,1041.875 0,12.75 12.75,0 0,-12.75 z m 0,28.3125 0,12.375 12.75,0 0,-12.375 z"
           id="path6294"
           style="font-size:medium;font-style:normal;font-variant:normal;font-weight:normal;font-stretch:normal;text-indent:0;text-align:start;text-decoration:none;line-height:125%;letter-spacing:10.78261662px;word-spacing:0;text-transform:none;direction:ltr;block-progression:tb;writing-mode:lr-tb;text-anchor:start;baseline-shift:baseline;color:#000000;fill:#000000;fill-opacity:1;fill-rule:nonzero;stroke:none;stroke-width:2.68241715;marker:none;visibility:visible;display:inline;overflow:visible;enable-background:accumulate;font-family:URW Gothic L;-inkscape-font-specification:URW Gothic L Semi-Bold" />
      </g>
      <path
         d="m 268.13048,1084.2224 11.65966,0 0,-37.9596 6.57499,0 0,-9.731 -6.57499,0 c 0.0877,-4.3834 1.578,-5.8737 6.13666,-5.8737 l 1.13967,0 0,-11.046 c -1.40267,-0.1753 -2.104,-0.1753 -2.893,-0.1753 -4.99699,0 -9.205,1.841 -12.18566,5.4353 -2.367,2.8053 -3.24367,5.6107 -3.85733,11.6597 l -4.208,0 0,9.731 4.208,0 0,37.9596"
         id="path6296"
         style="fill:#000000" />
      <path
         d="m 315.84712,1034.5154 c -14.11432,0 -25.68632,11.4844 -25.68632,25.4234 0,14.0266 11.57201,25.4233 25.77398,25.4233 14.11431,0 25.86165,-11.3967 25.86165,-25.0727 0,-14.4649 -11.30901,-25.774 -25.94931,-25.774 m 0.0877,10.6954 c 7.80232,0 14.11433,6.6626 14.11433,14.728 0,8.1529 -6.31201,14.728 -14.02666,14.728 -7.88999,0 -14.11433,-6.5751 -14.11433,-14.9034 0,-7.9776 6.39967,-14.5526 14.02666,-14.5526"
         id="path6298"
         style="fill:#000000" />
      <path
         d="m 348.42623,1084.2224 11.65966,0 0,-27.0013 c 0,-7.5393 3.41901,-11.309 10.43233,-11.4843 l 0,-11.2214 -0.87667,0 c -4.99699,0 -7.45166,1.4027 -10.51999,5.8737 l 0,-4.734 -10.69533,0 0,48.5673"
         id="path6300"
         style="fill:#000000" />
    </g>
  </g>
</svg>
